<?xml version="1.0" encoding="utf-8"?>
<!-- Generator: Adobe Illustrator 19.0.0, SVG Export Plug-In . SVG Version: 6.00 Build 0)  -->
<svg version="1.1" id="Layer_1" xmlns="http://www.w3.org/2000/svg" xmlns:xlink="http://www.w3.org/1999/xlink" x="0px" y="0px"
	 viewBox="-329 131 300 300" style="enable-background:new -329 131 300 300;" xml:space="preserve">
<style type="text/css">
	.st0{fill:url(#XMLID_2_);}
	.st1{fill:url(#XMLID_3_);}
	.st2{fill:url(#XMLID_4_);}
	.st3{fill:url(#XMLID_5_);}
	.st4{fill:url(#XMLID_6_);}
	.st5{fill:url(#XMLID_7_);}
</style>
<g id="Layer_2">
	<g id="XMLID_84_">
		<g id="XMLID_827_">
			<g id="XMLID_834_">
				
					<linearGradient id="XMLID_2_" gradientUnits="userSpaceOnUse" x1="-235.0866" y1="327.6577" x2="-128.6079" y2="221.1789" gradientTransform="matrix(1 0 0 1 0 4)">
					<stop  offset="0" style="stop-color:#EC411F"/>
					<stop  offset="1" style="stop-color:#F9644B"/>
				</linearGradient>
				<path id="XMLID_108_" class="st0" d="M-179.9,324.1c-22.7,0-39.9-17.2-39.9-40.1c0-11.4,4.7-21.5,14.2-30.1
					c4.9-4.1,10.1-6.6,14.2-8.6c5.6-2.7,8.8-4.4,9.2-7.4c0.1-0.9,0.9-1.6,1.9-1.5c0.9,0.1,1.6,1,1.5,1.9c-0.7,5-5.3,7.3-11.1,10
					c-4.1,2-8.9,4.3-13.5,8.1c-8.5,7.9-13,17.1-13,27.5c0,20.3,14.8,35.8,34.7,36.6v-17.8c-3.4-0.5-16.9-3.5-16.9-18.9
					c0-18.4,18.3-20.3,18.5-20.3c0.5,0,0.9,0.1,1.3,0.4c0.3,0.3,0.6,0.8,0.6,1.3v57C-178.1,323.3-178.9,324.1-179.9,324.1z
					 M-181.6,267.4c-4.1,0.9-13.5,4.4-13.5,16.5c0,12.3,10.2,14.9,13.5,15.5V267.4z"/>
			</g>
			<g id="XMLID_833_">
				
					<linearGradient id="XMLID_3_" gradientUnits="userSpaceOnUse" x1="-233.9672" y1="328.777" x2="-127.4885" y2="222.2984" gradientTransform="matrix(1 0 0 1 0 4)">
					<stop  offset="0" style="stop-color:#EC411F"/>
					<stop  offset="1" style="stop-color:#F9644B"/>
				</linearGradient>
				<path id="XMLID_89_" class="st1" d="M-179.3,313.3c-16.5,0-29.4-12.9-29.4-29.4c0-8.5,3.5-16.3,10-22.3c3.3-2.8,6.8-4.6,9.9-6
					c3.6-1.7,6.5-3.2,6.7-5.2c0.1-0.9,0.9-1.6,1.9-1.5c0.9,0.1,1.6,1,1.5,1.9c-0.5,3.9-4.3,5.7-8.6,7.9c-2.9,1.5-6.3,3.1-9.2,5.5
					c-5.9,5.4-8.9,12-8.9,19.7c0,14.8,11.2,25.9,26,25.9c0.9,0,1.7,0.8,1.7,1.7C-177.6,312.5-178.3,313.3-179.3,313.3z"/>
			</g>
			<g id="XMLID_832_">
				
					<linearGradient id="XMLID_4_" gradientUnits="userSpaceOnUse" x1="-201.3612" y1="361.3831" x2="-94.8824" y2="254.9044" gradientTransform="matrix(1 0 0 1 0 4)">
					<stop  offset="0" style="stop-color:#EC411F"/>
					<stop  offset="1" style="stop-color:#F9644B"/>
				</linearGradient>
				<path id="XMLID_88_" class="st2" d="M-159.8,327.2c-0.6,0-1.2-0.3-1.5-0.9c-0.5-0.9-0.2-1.9,0.6-2.3
					c23.6-13.7,23.6-29.6,23.6-29.7c0-0.9,0.8-1.7,1.7-1.7s1.7,0.8,1.7,1.7c0,0.7,0.1,18-25.3,32.8
					C-159.2,327.1-159.6,327.2-159.8,327.2z"/>
			</g>
			<g id="XMLID_831_">
				
					<linearGradient id="XMLID_5_" gradientUnits="userSpaceOnUse" x1="-230.4795" y1="332.2647" x2="-124.0009" y2="225.7861" gradientTransform="matrix(1 0 0 1 0 4)">
					<stop  offset="0" style="stop-color:#EC411F"/>
					<stop  offset="1" style="stop-color:#F9644B"/>
				</linearGradient>
				<path id="XMLID_87_" class="st3" d="M-139.6,265.4c-0.7,0-1.4-0.4-1.6-1.1c-4.7-12.1-17.5-16.8-17.7-16.8
					c-0.9-0.3-1.4-1.3-1-2.2s1.3-1.4,2.2-1c0.6,0.2,14.4,5.2,19.8,18.7c0.3,0.9-0.1,1.9-0.9,2.2
					C-139.2,265.4-139.4,265.4-139.6,265.4z"/>
			</g>
		</g>
		<g id="XMLID_80_">
			
				<linearGradient id="XMLID_6_" gradientUnits="userSpaceOnUse" x1="-230.201" y1="332.5432" x2="-123.7224" y2="226.0645" gradientTransform="matrix(1 0 0 1 0 4)">
				<stop  offset="0" style="stop-color:#EC411F"/>
				<stop  offset="1" style="stop-color:#F9644B"/>
			</linearGradient>
			<path id="XMLID_81_" class="st4" d="M-131.8,256c-5.6-8.5-13.5-15.3-22.7-19.7l-0.9-0.6c-11.7-6.8-19.1-11.7-21.4-22.6v-0.1
				c-0.3-1-1.1-1.8-2.2-1.8s-2.1,0.8-2.2,1.8v0.1c-2.3,11.6-10.4,16.5-21.2,22.9l0,0c-0.2,0.1-0.3,0.1-0.4,0.2
				c-0.4,0.3-0.8,0.8-0.8,1.4c0,0.9,0.8,1.7,1.7,1.7c0.2,0,0.3,0,0.4-0.1c0.2-0.1,0.3-0.2,0.4-0.2h0.1h0.1c10.1-6,18.5-11,21.9-21.4
				c3.5,10.4,11.9,15.3,21.9,21.2l1,0.6c0.1,0,0.1,0.1,0.2,0.1c18.3,8.6,29.7,26.3,29.7,46c0,22.5-15.5,42.6-37.7,49.1
				c-0.7,0.2-1.1,0.8-1.2,1.5l-0.1,1c0,0.1,0,0.1,0,0.2c0,0,0,0.2-0.2,0.4c-0.2,0.2-0.3,0.4-0.6,0.6l0,0l0,0
				c-2,1.6-6.6,3.3-13.3,3.3c-6,0-10.4-1.3-12.7-2.8l0,0c-0.5-0.3-0.9-0.8-0.9-1.6c0-0.1,0-0.2,0-0.3l-0.2-1
				c-0.1-0.7-0.5-1.2-1.2-1.4c-22.2-6.6-37.6-26.8-37.6-49.1c0-16.3,8.1-31.5,21.3-41.1c0.1-0.1,0.2-0.1,0.2-0.2
				c0.3-0.3,0.6-0.8,0.6-1.3c0-0.9-0.8-1.6-1.6-1.6c-0.3,0-0.6,0.1-0.9,0.3l-0.1,0.1c-14.2,10.2-22.8,26.4-22.8,43.9
				c0,12,3.9,23.3,11.3,32.8c6.9,8.9,16.6,15.6,27.4,19c0.9,4.4,9.2,6.8,16.9,6.8c7.7,0,15.9-2.3,16.9-6.6c0.3-0.1,0.5-0.1,0.5-0.1
				c10.9-3.4,20.6-10.1,27.5-19c7.4-9.6,11.4-20.9,11.4-32.9C-123,274.9-126.1,264.7-131.8,256z"/>
		</g>
	</g>
	<g id="XMLID_75_">
		
			<linearGradient id="XMLID_7_" gradientUnits="userSpaceOnUse" x1="-232.3721" y1="330.3721" x2="-125.8935" y2="223.8935" gradientTransform="matrix(1 0 0 1 0 4)">
			<stop  offset="0" style="stop-color:#EC411F"/>
			<stop  offset="1" style="stop-color:#F9644B"/>
		</linearGradient>
		<path id="XMLID_83_" class="st5" d="M-179,388c-0.4,0-0.9-0.2-1.2-0.5l-105.3-105.3c-0.7-0.7-0.7-1.7,0-2.4l105.3-105.3
			c0.7-0.7,1.8-0.7,2.4,0l105.3,105.3c0.7,0.7,0.7,1.7,0,2.4l-105.3,105.3C-178.1,387.8-178.6,388-179,388z M-281.8,281L-179,383.9
			L-76.2,281L-179,178.1L-281.8,281z"/>
	</g>
</g>
</svg>
