<?xml version="1.0" encoding="utf-8"?>
<!-- Generator: Adobe Illustrator 19.0.0, SVG Export Plug-In . SVG Version: 6.00 Build 0)  -->
<svg version="1.1" id="Layer_1" xmlns="http://www.w3.org/2000/svg" xmlns:xlink="http://www.w3.org/1999/xlink" x="0px" y="0px"
	 viewBox="-229 31 500 500" style="enable-background:new -229 31 500 500;" xml:space="preserve">
<style type="text/css">
	.st0{fill:#0096DC;}
	.st1{fill:#87B946;}
	.st2{fill:#E63B3C;}
	.st3{fill:#EBAA01;}
</style>
<g>
	<path class="st0" d="M144.6,159.2L144.6,159.2c-0.6,0-1.2,0-1.8,0c-44.8,0-81.2,36.4-81.2,81.2h81.2v81.2l0,0
		c44.2,0,80.2-35.3,81.2-79.4l0,0v-83H144.6z"/>
	<path class="st1" d="M61.6,159.2L61.6,159.2c0-44.2-35.3-80.2-79.4-81.2h0h-83v79.4h0c0,0.6,0,1.2,0,1.8
		c0,44.8,36.4,81.2,81.2,81.2v-81.2H61.6z"/>
	<path class="st2" d="M-100.8,240.4c-44.2,0-80.2,35.3-81.2,79.4v0v83h79.4v0c0.6,0,1.2,0,1.8,0c44.8,0,81.2-36.4,81.2-81.2h-81.2
		V240.4z"/>
	<path class="st3" d="M61.6,402.8h-81.2c0,44.2,35.3,80.2,79.4,81.2l0,0h83v-79.4h0c0-0.6,0-1.2,0-1.8c0-44.8-36.4-81.2-81.2-81.2
		l0,0V402.8z"/>
</g>
</svg>
