<svg id="Layer_1" data-name="Layer 1" xmlns="http://www.w3.org/2000/svg" viewBox="0 0 500 500"><defs><style>.cls-1{fill:#0096dc;}.cls-2{fill:#87b946;}.cls-3{fill:#e63b3c;}.cls-4{fill:#ebaa01;}</style></defs><title>finallogo</title><path class="cls-1" d="M402.22,100l0,.06c-.76,0-1.51-.06-2.27-.06A100,100,0,0,0,300,200H400V300h0A100,100,0,0,0,500,202.16l.05.06V100Z"/><path class="cls-2" d="M300,100h0A100,100,0,0,0,202.16.05l.06,0H100V97.78l.06,0c0,.76-.06,1.51-.06,2.27A100,100,0,0,0,200,200V100Z"/><path class="cls-3" d="M100,200A100,100,0,0,0,.05,297.84l0-.06V400H97.78l0-.06c.76,0,1.51.06,2.27.06A100,100,0,0,0,200,300H100Z"/><path class="cls-4" d="M300,400H200A100,100,0,0,0,297.84,500l-.06.05H400V402.22l-.06,0c0-.76.06-1.51.06-2.27A100,100,0,0,0,300,300h0Z"/></svg>