<?xml version="1.0" encoding="utf-8"?>
<!-- Generator: Adobe Illustrator 19.0.0, SVG Export Plug-In . SVG Version: 6.00 Build 0)  -->
<svg version="1.1" id="Layer_1" xmlns="http://www.w3.org/2000/svg" xmlns:xlink="http://www.w3.org/1999/xlink" x="0px" y="0px"
	 viewBox="0 0 600 600" style="enable-background:new 0 0 600 600;" xml:space="preserve">
<style type="text/css">
	.st0{display:none;}
	.st1{display:inline;}
	.st2{display:inline;fill:#FFBFBB;}
	.st3{fill:#FFBFBB;}
	.st4{display:inline;fill:#141414;}
	.st5{fill:#FFDFDC;}
</style>
<g class="st0">
	<path class="st1" d="M-97.2,311.4c-2.7,3.2-6.5,3.3-10.2,2.8c-8.1-0.9-13.1-6.2-15.9-13.2c-2.3-5.7-3.6-11.7-5.3-17.6
		c-1.6,3.7-3.4,7.8-5,12c-5,13-9.1,26.3-9.7,40.4c-0.4,11.2,0.2,22.3,7.1,32.3c-4.3-1.7-11.6-11-14.1-18.7c-2.4-7.5-3.8-15.2-5.6-23
		c-3.9,10.1-6.9,20.3-0.9,30.9c-0.2,0.1-0.5,0.3-0.7,0.4c-0.9-0.9-1.9-1.7-2.6-2.8c-6.8-9.4-7.5-19.9-5.4-30.9
		c2.7-14,5.8-27.9,8.3-41.9c1.5-8.5-0.2-16.2-6.7-22.9c-7.2-7.4-17.2-6.1-22.1,2.2c-3,5.1-7.2,6.6-12.4,6.7c-3.6,0.1-7.2,0-11.2,0
		c0.2,0.6,0.5,1.4,0.9,2c7.9,12.6,13,26.3,16.7,40.6c4.7,18.2,6.6,36.8,6.8,55.5c0.1,7.9,0.2,15.7,0.3,23.5
		c0.2,14.1,2.9,27.4,11.7,39c4.5,6,6.2,12.6,6.3,20.3c0.1,13.7,1.4,27.5,2.5,41.2c0.6,8.2,1.3,16.5,3,24.6c0.9,4.6,3.8,8.9,6,13.2
		c2.1,4.2,4.9,8.2,6.7,12.5c2.7,6.6,0.2,15.5-5.1,20.2c-4.1,3.7-9.8,3.4-13.2-0.9c-5.1-6.4-7.6-13.8-8.2-21.9
		c-1-13.7-1.3-27.5-3-41.1c-1.4-11.3-4.1-22.5-12-31.6c-3.5-4.1-4.9-9.2-5.8-14.6c-0.6-3.9-2.2-7.9-4.3-11.3
		c-6.4-10.2-11.6-20.9-17.1-31.5c-5.1-9.8-12.2-18.8-19.1-27.6c-7.2-9.3-14.9-18.3-18.9-30.3c-1.5,1.8-2.6,3.1-3.8,4.4
		c-11.3,12.9-25,22.6-40.1,30.5c-1.6,0.8-3.2,2.2-4,3.8c-7.7,13.6-15.5,27.1-22.8,40.9c-5.2,9.8-8,20.3-7.7,31.6
		c0.2,8.3-2.2,16-7.6,22.7c-6.9,8.6-13.8,17.1-20.4,26c-5.7,7.6-9.3,16.2-10.3,25.8c-0.7,6.9-4.9,12-10.8,15.2
		c-7.2,4-9.7,9.8-8.9,17.8c0.7,7-2.9,10.5-10.6,10.9c-0.8,0-1.6,0.1-2.4,0c-3.1-0.4-5.1,0.3-5.8,3.9c-0.3,1.4-2.1,3.1-3.6,3.6
		c-8.5,2.9-17.1,2.7-25.9,1.1c-3-0.5-3.7-2.2-2.5-4.6c2.6-5,5.2-10,8.1-14.8c9-14.9,15.8-30.7,19.4-47.8c1.5-7.2,1.2-14.4-0.7-21.3
		c-2.4-8.5,0.1-16,2.1-23.9c3.7-14.6,7.7-29.3,10.6-44.1c1.2-6.1-0.1-12.7-0.4-19c-0.2-4.5-0.9-9-1.2-13.6c-0.1-2.4-1-3.7-3.4-4.4
		c-5.5-1.7-10.9-3.6-16.3-5.7c-2-0.8-2.9-0.6-4,1.4c-2.9,5.2-6.4,10-12.3,12.1c-2.2,0.8-4.6,0.8-7,1c-8.8,0.8-17.6,1.9-26.4,2.3
		c-4.9,0.2-9.8-0.7-14.7-1.4c-10.6-1.6-21.4-2.5-31.7,0.7c-9.6,3-11.9,7.4-10.3,19.6c0.8,5.8,3.6,11.4,5,17.1
		c1.4,5.6,2.4,11.3,3.4,16.9c0.9,5.4,3.4,8,8.8,9.1c2.3,0.5,4.7,0.8,6.9,1.6c6,2.1,9,6.7,9.5,12.8c0.4,4.6,0.3,9.3,0.3,14
		c0,1.1-0.2,2.3-0.5,3.4c-1.3,4.7-3.7,5.8-8.1,3.7c-7.6-3.8-13.7-9.6-19.8-15.4c-10.4-9.8-16.1-21.9-19.2-35.6
		c-2.4-10.3-6.1-20.3-8.5-30.7c-1.2-5.4-1.6-11.3-0.9-16.8c1.4-12.3,10.2-18.4,21-21.9c9.5-3.1,19.5-4.9,28.7-8.9
		c7.7-3.3,14.6-8.5,21.5-13.4c4.9-3.5,9.9-6.3,16.4-6.8c-1.1-2.4-2.1-4.6-2.9-6.8c-4.9-12.8-7.1-26.2-6.9-39.9c0-4.2,0.2-8.4,0-12.6
		c-0.7-13.1,2.4-25.5,7.5-37.3c6.9-16,14.4-31.6,21.7-47.4c6.8-14.6,13.7-29.3,17-45.2c1-4.8,1.2-9.7,1.8-15.6
		c-6.9,5.5-14.2,7.8-21.7,9.3c-5.2,1.1-10.5,1.5-15.9,1.9c-5,0.4-9.1,2-12.2,6.2c-3,4.1-6.5,7.3-12.3,6.2c-0.9-0.2-2,0.3-3,0.6
		c-8.9,2.2-14.8-2.2-15.8-11.3c-0.3-2.3-1.8-4.5-3.2-6.6c-3.2-4.9-3.4-7.7,0.7-11.8c12.2-12,21.2-26.5,31.4-40.1
		c6.6-8.8,12.7-17.9,19.1-26.8c1.4-1.9,3.1-3.5,5.2-5.7c-3.4-0.7-6.3-1.2-9.1-1.8c0-0.3,0-0.6,0-0.8c1.7-0.3,3.3-0.6,5-0.9
		c-6.4-2.8-12.2-5.8-15.8-12.1c6.2,5.6,13.6,8.7,21.6,10.8c-14.6-9.4-25.7-20.4-20.5-39.9c0.5,0-0.3,9.3,0.6,13.1
		c0.9,3.8,3.4,11.1,14.6,17c1.1-2.7,1.7-6,3.6-8.1c4.9-5.2,11.8-6.4,18.5-8c-1.1,1.1-2.5,1.8-3.8,2.6c-1.4,0.8-2.8,1.5-4.1,2.4
		c-3.9,2.7-5.1,7.3-2.7,10.6c1.8,2.4,3.9,4.6,5.9,6.9c0.4-0.3-2.9-7.3-1-10.8c1.7-3,6.2-7.3,8.4-10c0.3,0.2-1.7,5-2.2,6.2
		c-1.6,4-0.7,7.4,3.2,9.4c2.6,1.3,5.4,2.1,8.2,3c1.2,0.4,2.6,0.7,3.7,0.3c6.6-2.6,13-5.6,19.7-8.1c3.1-1.2,6.5-1.7,9.7-2.5
		c0.1,0.3,0.3,0.6,0.4,0.9c-2.6,3.7-5.3,7.3-8.1,11.3c13.1-2.4,25.5-4.7,37.8-6.9c0.1,0.1,0.3,0.2,0.4,0.3c-4.4,2.7-8.7,5.3-13.1,8
		c14.8-2.7,29.3-4.6,44.2,1.5c-8.7-1.4-12.6-1.7-19.9-1.7c-7.5,0-18.2,2-25.4,4.3c1.6,0.3,3.2,0.5,4.8,0.3c17.2-1.6,34-0.3,50.3,5.6
		c11.1,4,21.3,9.6,28.3,19.6c4.7,6.7,8.1,13.7,3.1,21.9c-0.3,0.5-0.1,1.4,0.1,2c1.4,4.3,6.8,7,11,5.5c1.3-0.4,2.3-1.4,4.3-2.6
		c-2.4,8.1-7,12.9-14,15c-10.8,3.3-21.6,3.2-32.2-1.2c-0.5-0.2-1.2-0.2-2.4-0.5c0.7,0.9,0.9,1.2,1.3,1.5c0.6,0.5,1.2,1,1.9,1.4
		c8.1,5.5,17,5.9,26.1,3.3c7.2-2,14.2-4.9,21.8-4.5c6.2,0.3,11.7,2.5,15.9,7.3c-1-0.1-2-0.4-2.9-0.8c-7-3.3-11.4-2.1-15.5,4.5
		c-1.1,1.7-2,3.6-3.1,5.3c-3.5,5.2-7,10.5-10.8,15.5c-1.5,1.9-3.9,3.1-5.9,4.6c12.7-2.3,24.6-5.9,31.4-18.3
		c-1.7,9.9-8.3,15.8-15.8,21.3c-7.7,5.6-16,8.4-25.5,8.9c0.1,0.6,0.2,1.1,0.2,1.7c4.5,0.1,9.1,0.5,13.6,0.1
		c6.3-0.5,10.5-4.3,13.1-10.1c0.2,1.5,0.1,2.8-0.4,4c-3.9,10.9-16.1,17.5-27.7,15c-2-0.4-2.7,0.3-3.9,1.6c-2.8,3.4-5.8,6.6-8.9,9.6
		c-1.8,1.7-3.9,3.1-5.9,4.6c-4.8,3.7-3,9.6,1.4,11.6c6.6,3.1,13,1.6,18.9-1.6c4.3-2.4,7.8-6,11.9-9.2c-2.6,11.8-12.7,15.9-22.6,21.2
		c1.6,0,2.3,0.2,2.9,0c13.4-4.2,27.3-6,41.3-5.1c6.9,0.5,13.7,2.6,20.3,4.8c7.9,2.6,14.1,8,19.9,13.9c5.3,5.4,7.2,5.9,13,1.2
		c6.7-5.4,13.3-11.1,19.1-17.4c9.5-10.1,19.7-19.1,33.1-23.7c10-3.4,20.3-5.1,30.7-2.8c14.6,3.2,21.7,13.4,20.3,28.3
		c-0.5,5.7-1.2,11.5-2.2,17.2c-2.1,11.2-3,22.5-2.6,33.9c0.2,5.9,0.9,12,2.3,17.7C-113.4,309.7-106.4,313.5-97.2,311.4z
		 M-358.5,399.4c-2.8,0.4-5.6-1.7-6.8,2.9c-3.3,12.4-7,24.7-10.8,37c-2.5,7.9-4.9,16-8.3,23.5c-2.4,5.4-4.1,10.7-4.7,16.5
		c-0.8,7.8-0.2,16-4.4,23.1c-5.7,9.6-7.9,19.9-7.1,30.9c0.1,1.3,0,2.7,0,4.1c7.2-8.7,13.6-17.6,20-26.5c5.6-7.8,9.7-16.2,11.7-25.7
		c2.2-10.7,5-21.3,7.1-32.1c0.9-4.3,1-8.7,1-13.1C-360.8,426.6-364.5,412.9-358.5,399.4z M-290.8,113.6c2.4-3.3,0.6-8.9-4.7-14.9
		c-5.6-6.4-16.3-11.3-20.3-9.1C-302.1,92.1-294.8,101.1-290.8,113.6z"/>
	<polyline class="st1" points="-461.7,86.3 -556,6 -452.7,77.3 -460,86.3 	"/>
</g>
<g class="st0">
	<path class="st2" d="M1211.4,231.2c-2.3-11.3-6-22.1-10.2-32.8c-2.1-5.5-4.4-10.8-7.1-16c-1.4-2.7-2.9-5.4-4.4-8
		c-0.9-1.6-4.4-5.5-4.4-7.2c-4.3-7.5-9.5-14.4-14.9-21.2c-2.4-3.1-4.7-6.3-7.7-8.9c-0.8-0.4-0.8-1.3-1.4-1.9
		c-4.7-4.8-9.2-9.7-14-14.4c-2.7-2.7-5.3-5.4-8.5-7.6c-6.7-6.4-13.9-12.2-21.5-17.6c-8.2-6.4-16.8-12.3-25.8-17.6
		c-8.5-5.6-17.3-10.7-26.3-15.4c-7.5-4.3-15.3-8.1-23.1-11.8c-4.3-2-8.5-4.3-13-5.8c-0.5,0-0.9-0.4-1.3-0.6
		c-8-3.9-16.2-7.2-24.6-10.1c-6.9-2.6-13.8-5.3-20.9-7.3c-6.9-2.3-13.9-4.3-21-5.9c-0.7-0.1-1.4-0.3-2.1-0.4
		c-23.5-5.7-47.8-9-72-7.8c-24.1,1.2-48,6.4-70.3,15.5c-14.4,5.9-27.9,13.5-40.4,22.8c-8,5.5-15.4,11.6-22.4,18.4
		c-3.7,2.6-6.5,6.1-9.6,9.2c-7.2,7.3-14,14.9-20.1,23.1c-0.7,0.5-1.2,1.1-1.5,1.9c-0.5,0.7-1.1,1.3-1.6,2c-0.6,0.7-1.1,1.4-1.7,2.1
		c-22.2,29.5-39.7,61.6-54.1,95.5c-25.7,60.4-39.1,135.5-12.7,198c25.4,60.2,79.1,103.1,135.1,133.6c5.2,2.8,10.4,5.6,15.7,8.2
		c34.1,17.1,70,31.3,107.6,38s77,5.8,113.1-6.6c81.4-27.8,133.3-106.3,165.1-182c10-23.7,18.8-49.1,22.5-74.7
		c1.8-12.7,1.7-25.5,1.6-38.3c-0.1-9.2-0.2-18.3-0.2-27.5c0-3.8-0.1-7.7-0.4-11.5C1212.6,237.5,1212,234.4,1211.4,231.2
		C1211.4,231.2,1211.4,231.2,1211.4,231.2z M885.8,13.1C885.8,13.1,885.8,13.1,885.8,13.1L885.8,13.1
		C885.8,13.1,885.8,13.1,885.8,13.1z M941.3,515.4c-10.7,5.5-21.7,10.3-33.2,14c-26.9,8.7-56.4,11-83.4,2.6
		c-23.9-7.5-44.8-23-61.3-41.8c-18.4-20.9-32.2-45.7-43.4-71.1C698.7,371,685,317.7,682.8,264.2c-1.2-28.8,0.9-58.5,12.4-84.9
		c39.3-90.9,150.5-87.6,232.3-72.3c3.5,0.7,7.1,1.3,10.6,2c65.5,12.9,131.5,33.2,192.2,61.1c14.3,6.6,28.7,13.7,40.6,24.1
		c11.9,10.4,21.3,24.4,23,40.1c3.1,27.7-16.6,53.6-32.1,74.7c-2.2,3-4.8,5.7-6.2,9.3c0,0.1,0,0.1,0,0.2c-1.3,0.2-1.6,1.4-2.3,2.2
		c-20.2,27.2-41.6,53.5-65.1,77.9c-0.5,0.5-1.5,1-1,2.1c-1.2,0.1-1.7,1.2-2.5,1.9c-32.5,31.4-64.7,61.7-102,87.6
		C969.5,499.2,955.7,508,941.3,515.4z"/>
	<g class="st1">
		<path id="_4_copy" class="st3" d="M1031.5,337l-1.2,4.1c-1.9,6.8-7.2,10.1-12.3,10.1h-11.9V248.7h-30.8l-63.9,109.5h54.2v32.9
			c0,7.4-3.7,11.1-11.9,11.1h-9.4v2.3h78.4v-2.3h-6.2c-6.8,0-10.3-2.7-10.3-9.5v-34.5h22.4l5.3-21L1031.5,337z M965.6,351.2h-46.8
			l46.8-79.5L965.6,351.2L965.6,351.2z"/>
		<path class="st3" d="M828.3,218.4c0,0-5.7,10.3-3.3,21.9c2.4,11.6,12,20.1,23.4,19.2c11.4-0.9,22-8.1,21-22.8
			c-0.9-14.7-15.6-19.4-21.7-18.1c-6,1.3-11.3,3.3-12.9,5.1c-1.6,1.8-0.9-6.8,1.3-10c0,0,1.7-4.5,9.6-10.2c7.9-5.7,18-7.4,24.8-5.8
			c6.8,1.6,11.9,7.5,13.2,9.9c1.2,2.4,5.1,8.8,5.3,22.6c0.1,13.8-2.7,28.3-13.4,39.3c-10.6,11.1-19.9,14.7-23.1,16.1
			c-3.2,1.3-18.2,10.2-24.7,21c-6.5,10.8-8.1,16.3-9.1,22.6s-0.4,18.5,1.5,23.4h3.4c0,0-2.1-7.4,1.1-13c3.2-5.6,10.6-9.2,16.4-9.2
			c5.8,0,12.2,2.7,21.9,12.9c9.7,10.2,20.2,15.4,33.3,14.2l26.2-44.2c0,0-4.1,3.4-10.6,3.2c-6.5-0.2-32.8-2.6-40.5-2.4
			c-7.7,0.2-14.1,0.6-21.8,2.4c-7.8,1.8-11.7,5.1-15.7,8c-4,2.9-8.1,7.3-9.7,10.1c-1.7,2.8-1.9,3.2-2.3,4.5
			c-0.4,1.3-1.7-10.3,2.9-20.6c4.6-10.2,12-22.7,34.3-32.5c0,0,3.6-1.4,10.5-3.4s31.4-7.3,40-13.3c8.6-6,17.1-11.7,20.4-22.8
			c3.3-11.1,1.7-20.1-3.1-30.1c-4.8-10-19.5-18.2-28.7-20.3c-9.2-2.1-18.2-4.2-34-2.1c-15.8,2.1-22.6,8.4-27,12.2
			C832.9,210.1,829,216.9,828.3,218.4z"/>
	</g>
</g>
<g>
	<g class="st0">
		<rect class="st4" width="600" height="600"/>
	</g>
	<g>
		<path class="st5" d="M528.8,313.4c-2.7,3.2-6.5,3.3-10.2,2.8c-8.1-0.9-13.1-6.2-15.9-13.2c-2.3-5.7-3.6-11.7-5.3-17.6
			c-1.6,3.7-3.4,7.8-5,12c-5,13-9.1,26.3-9.7,40.4c-0.4,11.2,0.2,22.3,7.1,32.3c-4.3-1.7-11.6-11-14.1-18.7
			c-2.4-7.5-3.8-15.2-5.6-23c-3.9,10.1-6.9,20.3-0.9,30.9c-0.2,0.1-0.5,0.3-0.7,0.4c-0.9-0.9-1.9-1.7-2.6-2.8
			c-6.8-9.4-7.5-19.9-5.4-30.9c2.7-14,5.8-27.9,8.3-41.9c1.5-8.5-0.2-16.2-6.7-22.9c-7.2-7.4-17.2-6.1-22.1,2.2
			c-3,5.1-7.2,6.6-12.4,6.7c-3.6,0.1-7.2,0-11.2,0c0.2,0.6,0.5,1.4,0.9,2c7.9,12.6,13,26.3,16.7,40.6c4.7,18.2,6.6,36.8,6.8,55.5
			c0.1,7.9,0.2,15.7,0.3,23.5c0.2,14.1,2.9,27.4,11.7,39c4.5,6,6.2,12.6,6.3,20.3c0.1,13.7,1.4,27.5,2.5,41.2
			c0.6,8.2,1.3,16.5,3,24.6c0.9,4.6,3.8,8.9,6,13.2c2.1,4.2,4.9,8.2,6.7,12.5c2.7,6.6,0.2,15.5-5.1,20.2c-4.1,3.7-9.8,3.4-13.2-0.9
			c-5.1-6.4-7.6-13.8-8.2-21.9c-1-13.7-1.3-27.5-3-41.1c-1.4-11.3-4.1-22.5-12-31.6c-3.5-4.1-4.9-9.2-5.8-14.6
			c-0.6-3.9-2.2-7.9-4.3-11.3c-6.4-10.2-11.6-20.9-17.1-31.5c-5.1-9.8-12.2-18.8-19.1-27.6c-7.2-9.3-14.9-18.3-18.9-30.3
			c-1.5,1.8-2.6,3.1-3.8,4.4c-11.3,12.9-25,22.6-40.1,30.5c-1.6,0.8-3.2,2.2-4,3.8c-7.7,13.6-15.5,27.1-22.8,40.9
			c-5.2,9.8-8,20.3-7.7,31.6c0.2,8.3-2.2,16-7.6,22.7c-6.9,8.6-13.8,17.1-20.4,26c-5.7,7.6-9.3,16.2-10.3,25.8
			c-0.7,6.9-4.9,12-10.8,15.2c-7.2,4-9.7,9.8-8.9,17.8c0.7,7-2.9,10.5-10.6,10.9c-0.8,0-1.6,0.1-2.4,0c-3.1-0.4-5.1,0.3-5.8,3.9
			c-0.3,1.4-2.1,3.1-3.6,3.6c-8.5,2.9-17.1,2.7-25.9,1.1c-3-0.5-3.7-2.2-2.5-4.6c2.6-5,5.2-10,8.1-14.8c9-14.9,15.8-30.7,19.4-47.8
			c1.5-7.2,1.2-14.4-0.7-21.3c-2.4-8.5,0.1-16,2.1-23.9c3.7-14.6,7.7-29.3,10.6-44.1c1.2-6.1-0.1-12.7-0.4-19
			c-0.2-4.5-0.9-9-1.2-13.6c-0.1-2.4-1-3.7-3.4-4.4c-5.5-1.7-10.9-3.6-16.3-5.7c-2-0.8-2.9-0.6-4,1.4c-2.9,5.2-6.4,10-12.3,12.1
			c-2.2,0.8-4.6,0.8-7,1c-8.8,0.8-17.6,1.9-26.4,2.3c-4.9,0.2-9.8-0.7-14.7-1.4c-10.6-1.6-21.4-2.5-31.7,0.7
			c-9.6,3-11.9,7.4-10.3,19.6c0.8,5.8,3.6,11.4,5,17.1c1.4,5.6,2.4,11.3,3.4,16.9c0.9,5.4,3.4,8,8.8,9.1c2.3,0.5,4.7,0.8,6.9,1.6
			c6,2.1,9,6.7,9.5,12.8c0.4,4.6,0.3,9.3,0.3,14c0,1.1-0.2,2.3-0.5,3.4c-1.3,4.7-3.7,5.8-8.1,3.7c-7.6-3.8-13.7-9.6-19.8-15.4
			c-10.4-9.8-16.1-21.9-19.2-35.6c-2.4-10.3-6.1-20.3-8.5-30.7c-1.2-5.4-1.6-11.3-0.9-16.8c1.4-12.3,10.2-18.4,21-21.9
			c9.5-3.1,19.5-4.9,28.7-8.9c7.7-3.3,14.6-8.5,21.5-13.4c4.9-3.5,9.9-6.3,16.4-6.8c-1.1-2.4-2.1-4.6-2.9-6.8
			c-4.9-12.8-7.1-26.2-6.9-39.9c0-4.2,0.2-8.4,0-12.6c-0.7-13.1,2.4-25.5,7.5-37.3c6.9-16,14.4-31.6,21.7-47.4
			c6.8-14.6,13.7-29.3,17-45.2c1-4.8,1.2-9.7,1.8-15.6c-6.9,5.5-14.2,7.8-21.7,9.3c-5.2,1.1-10.5,1.5-15.9,1.9
			c-5,0.4-9.1,2-12.2,6.2c-3,4.1-6.5,7.3-12.3,6.2c-0.9-0.2-2,0.3-3,0.6c-8.9,2.2-14.8-2.2-15.8-11.3c-0.3-2.3-1.8-4.5-3.2-6.6
			c-3.2-4.9-3.4-7.7,0.7-11.8c12.2-12,21.2-26.5,31.4-40.1c6.6-8.8,12.7-17.9,19.1-26.8c1.4-1.9,3.1-3.5,5.2-5.7
			c-3.4-0.7-6.3-1.2-9.1-1.8c0-0.3,0-0.6,0-0.8c1.7-0.3,3.3-0.6,5-0.9c-6.4-2.8-12.2-5.8-15.8-12.1c6.2,5.6,13.6,8.7,21.6,10.8
			c-14.6-9.4-25.7-20.4-20.5-39.9c0.5,0-0.3,9.3,0.6,13.1c0.9,3.8,3.4,11.1,14.6,17c1.1-2.7,1.7-6,3.6-8.1c4.9-5.2,11.8-6.4,18.5-8
			c-1.1,1.1-2.5,1.8-3.8,2.6c-1.4,0.8-2.8,1.5-4.1,2.4c-3.9,2.7-5.1,7.3-2.7,10.6c1.8,2.4,3.9,4.6,5.9,6.9c0.4-0.3-2.9-7.3-1-10.8
			c1.7-3,6.2-7.3,8.4-10c0.3,0.2-1.7,5-2.2,6.2c-1.6,4-0.7,7.4,3.2,9.4c2.6,1.3,5.4,2.1,8.2,3c1.2,0.4,2.6,0.7,3.7,0.3
			c6.6-2.6,13-5.6,19.7-8.1c3.1-1.2,6.5-1.7,9.7-2.5c0.1,0.3,0.3,0.6,0.4,0.9c-2.6,3.7-5.3,7.3-8.1,11.3c13.1-2.4,25.5-4.7,37.8-6.9
			c0.1,0.1,0.3,0.2,0.4,0.3c-4.4,2.7-8.7,5.3-13.1,8c14.8-2.7,29.3-4.6,44.2,1.5c-8.7-1.4-12.6-1.7-19.9-1.7c-7.5,0-18.2,2-25.4,4.3
			c1.6,0.3,3.2,0.5,4.8,0.3c17.2-1.6,34-0.3,50.3,5.6c11.1,4,21.3,9.6,28.3,19.6c4.7,6.7,8.1,13.7,3.1,21.9c-0.3,0.5-0.1,1.4,0.1,2
			c1.4,4.3,6.8,7,11,5.5c1.3-0.4,2.3-1.4,4.3-2.6c-2.4,8.1-7,12.9-14,15c-10.8,3.3-21.6,3.2-32.2-1.2c-0.5-0.2-1.2-0.2-2.4-0.5
			c0.7,0.9,0.9,1.2,1.3,1.5c0.6,0.5,1.2,1,1.9,1.4c8.1,5.5,17,5.9,26.1,3.3c7.2-2,14.2-4.9,21.8-4.5c6.2,0.3,11.7,2.5,15.9,7.3
			c-1-0.1-2-0.4-2.9-0.8c-7-3.3-11.4-2.1-15.5,4.5c-1.1,1.7-2,3.6-3.1,5.3c-3.5,5.2-7,10.5-10.8,15.5c-1.5,1.9-3.9,3.1-5.9,4.6
			c12.7-2.3,24.6-5.9,31.4-18.3c-1.7,9.9-8.3,15.8-15.8,21.3c-7.7,5.6-16,8.4-25.5,8.9c0.1,0.6,0.2,1.1,0.2,1.7
			c4.5,0.1,9.1,0.5,13.6,0.1c6.3-0.5,10.5-4.3,13.1-10.1c0.2,1.5,0.1,2.8-0.4,4c-3.9,10.9-16.1,17.5-27.7,15c-2-0.4-2.7,0.3-3.9,1.6
			c-2.8,3.4-5.8,6.6-8.9,9.6c-1.8,1.7-3.9,3.1-5.9,4.6c-4.8,3.7-3,9.6,1.4,11.6c6.6,3.1,13,1.6,18.9-1.6c4.3-2.4,7.8-6,11.9-9.2
			c-2.6,11.8-12.7,15.9-22.6,21.2c1.6,0,2.3,0.2,2.9,0c13.4-4.2,27.3-6,41.3-5.1c6.9,0.5,13.7,2.6,20.3,4.8
			c7.9,2.6,14.1,8,19.9,13.9c5.3,5.4,7.2,5.9,13,1.2c6.7-5.4,13.3-11.1,19.1-17.4c9.5-10.1,19.7-19.1,33.1-23.7
			c10-3.4,20.3-5.1,30.7-2.8c14.6,3.2,21.7,13.4,20.3,28.3c-0.5,5.7-1.2,11.5-2.2,17.2c-2.1,11.2-3,22.5-2.6,33.9
			c0.2,5.9,0.9,12,2.3,17.7C512.6,311.7,519.6,315.5,528.8,313.4z M267.5,401.4c-2.8,0.4-5.6-1.7-6.8,2.9c-3.3,12.4-7,24.7-10.8,37
			c-2.5,7.9-4.9,16-8.3,23.5c-2.4,5.4-4.1,10.7-4.7,16.5c-0.8,7.8-0.2,16-4.4,23.1c-5.7,9.6-7.9,19.9-7.1,30.9c0.1,1.3,0,2.7,0,4.1
			c7.2-8.7,13.6-17.6,20-26.5c5.6-7.8,9.7-16.2,11.7-25.7c2.2-10.7,5-21.3,7.1-32.1c0.9-4.3,1-8.7,1-13.1
			C265.2,428.6,261.5,414.9,267.5,401.4z M335.2,115.6c2.4-3.3,0.6-8.9-4.7-14.9c-5.6-6.4-16.3-11.3-20.3-9.1
			C323.9,94.1,331.2,103.1,335.2,115.6z"/>
		<polyline class="st5" points="164.3,88.3 70,8 173.3,79.3 166,88.3 		"/>
	</g>
</g>
</svg>
