<?xml version="1.0" encoding="utf-8"?>
<!-- Generator: Adobe Illustrator 19.0.0, SVG Export Plug-In . SVG Version: 6.00 Build 0)  -->
<svg version="1.1" id="Layer_1" xmlns="http://www.w3.org/2000/svg" xmlns:xlink="http://www.w3.org/1999/xlink" x="0px" y="0px"
	 viewBox="0 0 1800 1800" style="enable-background:new 0 0 1800 1800;" xml:space="preserve">
<style type="text/css">
	.st0{display:none;}
	.st1{display:inline;}
	.st2{display:none;fill:none;stroke:#000000;stroke-width:9;stroke-linecap:round;stroke-linejoin:round;stroke-miterlimit:10;}
	.st3{fill:none;stroke:#000000;stroke-width:9;stroke-linecap:round;stroke-linejoin:round;stroke-miterlimit:10;}
	.st4{display:inline;fill:none;stroke:#000000;stroke-width:9;stroke-linejoin:round;stroke-miterlimit:10;}
	.st5{fill:none;stroke:#000000;stroke-width:9;stroke-linejoin:round;stroke-miterlimit:10;}
	.st6{fill:none;stroke:#000000;stroke-width:9;stroke-miterlimit:10;}
	.st7{fill:none;stroke:#000000;stroke-width:9;stroke-linecap:round;stroke-miterlimit:10;}
	.st8{fill:#000505;}
	.st9{fill:none;}
</style>
<g id="XMLID_138_" class="st0">
	<g id="XMLID_2_" class="st1">
		<path id="XMLID_398_" d="M-1400-1084.1l223.1,223.1L-1400-637.9L-1623.1-861L-1400-1084.1 M-1400-1110.9L-1649.9-861l249.9,249.9
			l249.9-249.9L-1400-1110.9L-1400-1110.9z"/>
	</g>
	<g id="XMLID_113_" class="st1">
		<path id="XMLID_84_" class="st2" d="M-1420.7-897.1v-3.7c0-4.7-4-8.6-8.8-8.6h-43.6c-4.9,0-8.8,3.9-8.8,8.6v3.7"/>
		<path id="XMLID_83_" class="st2" d="M-1388.4-915v-3.7c0-4.7-4-8.6-8.8-8.6h-43.6c-4.9,0-8.8,3.9-8.8,8.6v3.7"/>
		<line id="XMLID_86_" class="st3" x1="-1410" y1="-856.5" x2="-1333" y2="-856.5"/>
		<line id="XMLID_87_" class="st3" x1="-1448" y1="-800.5" x2="-1343" y2="-800.5"/>
		<line id="XMLID_88_" class="st2" x1="-1381.5" y1="-771" x2="-1381.5" y2="-723"/>
		<line id="XMLID_89_" class="st3" x1="-1348" y1="-785.5" x2="-1446" y2="-785.5"/>
		<line id="XMLID_90_" class="st2" x1="-1372.5" y1="-802" x2="-1372.5" y2="-846"/>
		<line id="XMLID_91_" class="st3" x1="-1403.5" y1="-840" x2="-1403.5" y2="-827"/>
		<line id="XMLID_85_" class="st3" x1="-1393.5" y1="-748" x2="-1393.5" y2="-729"/>
		<line id="XMLID_93_" class="st3" x1="-1426.5" y1="-757" x2="-1426.5" y2="-783"/>
		<line id="XMLID_94_" class="st3" x1="-1426.5" y1="-802" x2="-1426.5" y2="-824"/>
		<path id="XMLID_95_" class="st2" d="M-1299.2-882.9L-1299.2-882.9c0-2-1.7-3.7-3.7-3.7h-31.3c-2,0-3.7,1.7-3.7,3.7l0,0"/>
	</g>
	<path id="XMLID_8_" class="st4" d="M-1256.4-856.5l0.2-0.2c0-14.2-0.3-44.5-35.3-45c0-3.1,0-14.9,0-14.9
		c0-15.3-16.6-27.9-36.4-27.9h-26.6v-2.2c0-13.9-11.9-24.8-26.6-24.8h-37.8c-14.7,0-26.6,10.9-26.6,24.8v2.2h-24.9
		c-19.8,0-36.1,12.6-36.1,27.9v14.1h-2.3c-34.7,0-34.8,31-34.8,46h98.1v56h-36.8c-3.7,0-7.2,3.1-7.2,6.8v0.7c0,3.7,3.5,7.5,7.2,7.5
		h36.8v36.8l45.5,45.2l45.5-44.4v-37.5h36.8c3.7,0,7.2-3.8,7.2-7.5v-0.7c0-3.7-3.5-6.8-7.2-6.8h-36.8v-56H-1256.4z"/>
</g>
<g id="XMLID_63_" class="st0">
	<g id="XMLID_82_" class="st1">
		<path id="XMLID_382_" d="M407.7-448.7v315.5H92.3v-315.5H407.7 M426.7-467.7H73.3v353.5h353.5V-467.7L426.7-467.7z"/>
	</g>
	<g id="XMLID_69_" class="st1">
		<path id="XMLID_81_" class="st2" d="M229.3-347.1v-3.7c0-4.7-4-8.6-8.8-8.6h-43.6c-4.9,0-8.8,3.9-8.8,8.6v3.7"/>
		<path id="XMLID_80_" class="st2" d="M261.6-365v-3.7c0-4.7-4-8.6-8.8-8.6h-43.6c-4.9,0-8.8,3.9-8.8,8.6v3.7"/>
		<line id="XMLID_79_" class="st3" x1="240" y1="-306.5" x2="317" y2="-306.5"/>
		<line id="XMLID_78_" class="st3" x1="202" y1="-250.5" x2="307" y2="-250.5"/>
		<line id="XMLID_77_" class="st2" x1="268.5" y1="-221" x2="268.5" y2="-173"/>
		<line id="XMLID_76_" class="st3" x1="302" y1="-235.5" x2="204" y2="-235.5"/>
		<line id="XMLID_75_" class="st2" x1="277.5" y1="-252" x2="277.5" y2="-296"/>
		<line id="XMLID_74_" class="st3" x1="246.5" y1="-290" x2="246.5" y2="-277"/>
		<line id="XMLID_73_" class="st3" x1="256.5" y1="-198" x2="256.5" y2="-179"/>
		<line id="XMLID_72_" class="st3" x1="223.5" y1="-207" x2="223.5" y2="-233"/>
		<line id="XMLID_71_" class="st3" x1="223.5" y1="-252" x2="223.5" y2="-274"/>
		<path id="XMLID_70_" class="st2" d="M350.8-332.9L350.8-332.9c0-2-1.7-3.7-3.7-3.7h-31.3c-2,0-3.7,1.7-3.7,3.7l0,0"/>
	</g>
	<path id="XMLID_68_" class="st4" d="M393.6-306.5l0.2-0.2c0-14.2-0.3-44.5-35.3-45c0-3.1,0-14.9,0-14.9c0-15.3-16.6-27.9-36.4-27.9
		h-26.6v-2.2c0-13.9-11.9-24.8-26.6-24.8h-37.8c-14.7,0-26.6,10.9-26.6,24.8v2.2h-24.9c-19.8,0-36.1,12.6-36.1,27.9v14.1h-2.3
		c-34.7,0-34.8,31-34.8,46h98.1v56h-36.8c-3.7,0-7.2,3.1-7.2,6.8v0.7c0,3.7,3.5,7.5,7.2,7.5h36.8v36.8l45.5,45.2l45.5-44.4v-37.5
		h36.8c3.7,0,7.2-3.8,7.2-7.5v-0.7c0-3.7-3.5-6.8-7.2-6.8h-36.8v-56H393.6z"/>
</g>
<g id="XMLID_120_" class="st0">
	<g id="XMLID_22_" class="st1">
		<path id="XMLID_377_" d="M-850-1084.1L-626.9-861L-850-637.9L-1073.1-861L-850-1084.1 M-850-1110.9L-1099.9-861L-850-611.1
			L-600.1-861L-850-1110.9L-850-1110.9z"/>
	</g>
	<g id="XMLID_119_" class="st1">
		<path id="XMLID_103_" class="st5" d="M-798.8-744.6h-102.4c-14.5,0-26.4-11.9-26.4-26.4v-176.2c0-14.5,11.9-26.4,26.4-26.4h102.4
			c14.5,0,26.4,11.9,26.4,26.4V-771C-772.4-756.5-784.3-744.6-798.8-744.6z"/>
		<path id="XMLID_107_" class="st5" d="M-790.8-882.9l-6.4-6.4c-4.3-4.3-11.2-4.3-15.5,0l-58.4,58.4l-15-15
			c-4.3-4.3-11.2-4.3-15.5,0l-6.3,6.3c-4.3,4.3-4.3,11.2,0,15.5l21.6,21.6c0.3,0.4,0.6,0.8,1,1.2l6.4,6.4c2.2,2.2,5,3.2,7.8,3.2
			c2.8,0,5.7-1,7.8-3.2l6.3-6.3c0.4-0.4,0.7-0.8,1-1.2l65.1-65.1C-786.5-871.6-786.5-878.6-790.8-882.9z"/>
	</g>
	<g id="XMLID_20_" class="st1">
		<line id="XMLID_92_" class="st3" x1="-879" y1="-951.5" x2="-795" y2="-951.5"/>
		<line id="XMLID_111_" class="st3" x1="-904" y1="-935.5" x2="-795" y2="-935.5"/>
		<line id="XMLID_112_" class="st3" x1="-904" y1="-919.5" x2="-795" y2="-919.5"/>
	</g>
</g>
<g id="XMLID_163_" class="st0">
	<g id="XMLID_176_" class="st1">
		<path id="XMLID_286_" d="M-1242.3,81.3v315.5h-315.5V81.3H-1242.3 M-1223.3,62.3h-353.5v353.5h353.5V62.3L-1223.3,62.3z"/>
	</g>
	<g id="XMLID_168_" class="st1">
		<path id="XMLID_175_" class="st5" d="M-1348.8,355.4h-102.4c-14.5,0-26.4-11.9-26.4-26.4V152.8c0-14.5,11.9-26.4,26.4-26.4h102.4
			c14.5,0,26.4,11.9,26.4,26.4V329C-1322.4,343.5-1334.3,355.4-1348.8,355.4z"/>
		<path id="XMLID_174_" class="st5" d="M-1340.8,217.1l-6.4-6.4c-4.3-4.3-11.2-4.3-15.5,0l-58.4,58.4l-15-15
			c-4.3-4.3-11.2-4.3-15.5,0l-6.3,6.3c-4.3,4.3-4.3,11.2,0,15.5l21.6,21.6c0.3,0.4,0.6,0.8,1,1.2l6.4,6.4c2.2,2.2,5,3.2,7.8,3.2
			c2.8,0,5.7-1,7.8-3.2l6.3-6.3c0.4-0.4,0.7-0.8,1-1.2l65.1-65.1C-1336.5,228.4-1336.5,221.4-1340.8,217.1z"/>
	</g>
	<g id="XMLID_164_" class="st1">
		<line id="XMLID_167_" class="st3" x1="-1430" y1="148.5" x2="-1346" y2="148.5"/>
		<line id="XMLID_166_" class="st3" x1="-1455" y1="164.5" x2="-1346" y2="164.5"/>
		<line id="XMLID_165_" class="st3" x1="-1455" y1="180.5" x2="-1346" y2="180.5"/>
	</g>
</g>
<g id="XMLID_1_" class="st0">
	<g id="XMLID_121_" class="st1">
		<path id="XMLID_282_" d="M-299-1084.1L-75.9-861L-299-637.9L-522.1-861L-299-1084.1 M-299-1110.9L-548.9-861L-299-611.1L-49.1-861
			L-299-1110.9L-299-1110.9z"/>
	</g>
	<g id="XMLID_146_" class="st1">
		<path id="XMLID_142_" class="st5" d="M-226.2-899.4l-49.7-12.4l-77.9-19.5c-13.3-3.3-26.9,4.8-30.2,18.1l-2.9,11.6l-6.6,26.4
			l-17.2,68.8c-2.4,9.7,3.5,19.4,13.1,21.9l6.1,1.5c10,2.5,20.1-3.6,22.6-13.6l11-44l93.8,23.5c14.6,3.7,29.4-5.2,33.1-19.8
			l12.4-49.6C-217-892.2-220.5-898-226.2-899.4z"/>
		<polyline id="XMLID_140_" class="st5" points="-297.6,-825 -276.5,-909.4 -276,-911.3 		"/>
		<path id="XMLID_141_" class="st5" d="M-219.7-881l77.9,19.5c4.9,1.2,7.9,6.2,6.7,11.1h0c-1.2,4.9-6.2,7.9-11.1,6.7l-77.9-19.5"/>
		<line id="XMLID_143_" class="st5" x1="-200.3" y1="-876.1" x2="-188.3" y2="-854.2"/>
		<line id="XMLID_139_" class="st5" x1="-170.3" y1="-868.6" x2="-158.2" y2="-846.7"/>
		<line id="XMLID_144_" class="st3" x1="-359.4" y1="-915.9" x2="-347.4" y2="-894"/>
		<line id="XMLID_145_" class="st3" x1="-341" y1="-911.3" x2="-328.9" y2="-889.4"/>
	</g>
</g>
<g id="XMLID_253_" class="st0">
	<g id="XMLID_262_" class="st1">
		<path id="XMLID_263_" d="M-692.3,81.3v315.5h-315.5V81.3H-692.3 M-673.3,62.3h-353.5v353.5h353.5V62.3L-673.3,62.3z"/>
	</g>
	<g id="XMLID_254_" class="st1">
		<path id="XMLID_261_" class="st5" d="M-798.2,200.6l-49.7-12.4l-77.9-19.5c-13.3-3.3-26.9,4.8-30.2,18.1l-2.9,11.6l-6.6,26.4
			l-17.2,68.8c-2.4,9.7,3.5,19.4,13.1,21.9l6.1,1.5c10,2.5,20.1-3.6,22.6-13.6l11-44l93.8,23.5c14.6,3.7,29.4-5.2,33.1-19.8
			l12.4-49.6C-789,207.8-792.5,202-798.2,200.6z"/>
		<polyline id="XMLID_260_" class="st5" points="-869.6,275 -848.5,190.6 -848,188.7 		"/>
		<path id="XMLID_259_" class="st5" d="M-791.7,219l77.9,19.5c4.9,1.2,7.9,6.2,6.7,11.1v0c-1.2,4.9-6.2,7.9-11.1,6.7l-77.9-19.5"/>
		<line id="XMLID_258_" class="st5" x1="-772.3" y1="223.9" x2="-760.3" y2="245.8"/>
		<line id="XMLID_257_" class="st5" x1="-742.3" y1="231.4" x2="-730.2" y2="253.3"/>
		<line id="XMLID_256_" class="st3" x1="-931.4" y1="184.1" x2="-919.4" y2="206"/>
		<line id="XMLID_255_" class="st3" x1="-913" y1="188.7" x2="-900.9" y2="210.6"/>
	</g>
</g>
<g id="XMLID_228_" class="st0">
	<g id="XMLID_169_" class="st1">
		<path id="XMLID_181_" d="M251-1084.1L474.1-861L251-637.9L27.9-861L251-1084.1 M251-1110.9L1.1-861L251-611.1L500.9-861
			L251-1110.9L251-1110.9z"/>
	</g>
	<g id="XMLID_227_" class="st1">
		<circle id="XMLID_161_" class="st5" cx="250" cy="-861" r="126.4"/>
		<circle id="XMLID_206_" class="st5" cx="250" cy="-861" r="110.9"/>
		<g id="XMLID_226_">
			<line id="XMLID_225_" class="st5" x1="318.9" y1="-942.8" x2="167.1" y2="-791.1"/>
			<line id="XMLID_207_" class="st5" x1="332.9" y1="-934.6" x2="176.8" y2="-778.5"/>
		</g>
	</g>
</g>
<g id="XMLID_16_" class="st0">
	<g id="XMLID_208_" class="st1">
		<path id="XMLID_170_" d="M-1389.9-534l223.1,223.1l-223.1,223.1L-1613-310.9L-1389.9-534 M-1389.9-560.9l-249.9,249.9L-1389.9-61
			l249.9-249.9L-1389.9-560.9L-1389.9-560.9z"/>
	</g>
	<path id="XMLID_11_" class="st4" d="M-1376.9-267.5h-28c-13.1,0-23.8-10.7-23.8-23.8V-417c0-13.1,10.7-23.8,23.8-23.8h28
		c13.1,0,23.8,10.7,23.8,23.8v125.7C-1353.1-278.2-1363.8-267.5-1376.9-267.5z"/>
	<path id="XMLID_15_" class="st4" d="M-1382.3-164h-17.3c-16.1,0-29.2-13.1-29.2-29.2v-18.4c0-16.1,13.1-29.2,29.2-29.2h17.3
		c16.1,0,29.2,13.1,29.2,29.2v18.4C-1353.1-177.2-1366.2-164-1382.3-164z"/>
</g>
<g id="XMLID_115_" class="st0">
	<g id="XMLID_244_" class="st1">
		<path id="XMLID_122_" d="M-849-534.1L-625.9-311L-849-87.9L-1072.1-311L-849-534.1 M-849-560.9L-1098.9-311L-849-61.1L-599.1-311
			L-849-560.9L-849-560.9z"/>
	</g>
	<g id="XMLID_114_" class="st1">
		<path id="XMLID_13_" class="st6" d="M-763.3-322.4c0-13.1-8.2-24.2-18.2-24.2v0l-100-0.4v-46.6c0-17.3-14.1-30.9-31.3-30.9h-0.1
			c0,0-25.5,0.8-25.5,13.6v181.5c0,15.7,12.1,28.6,27.2,30.8l129.8,0.1v0c10-0.1,18.2-10,18.2-24.6c0-17.2-11.5-24.8-11.5-24.8
			s11.7-6.4,11.7-24.9s-11.8-24.8-11.8-24.8S-763.3-304.7-763.3-322.4z"/>
		<path id="XMLID_5_" class="st6" d="M-915.8-381.7h-7.5c-6.4,0-11.6-5.2-11.6-11.6v-6c0-6.4,5.2-11.6,11.6-11.6h7.5
			c6.4,0,11.6,5.2,11.6,11.6v6C-904.2-386.9-909.4-381.7-915.8-381.7z"/>
		<g id="XMLID_6_">
			<line id="XMLID_7_" class="st7" x1="-914" y1="-353.5" x2="-932" y2="-353.5"/>
			<line id="XMLID_9_" class="st7" x1="-914" y1="-367.5" x2="-932" y2="-367.5"/>
			<line id="XMLID_10_" class="st7" x1="-877" y1="-332.5" x2="-802" y2="-332.5"/>
		</g>
	</g>
</g>
<g id="XMLID_162_" class="st0">
	<g id="XMLID_55_" class="st1">
		<g id="XMLID_64_">
			<path id="XMLID_61_" d="M-299-534.1L-75.9-311L-299-87.9L-522.1-311L-299-534.1 M-299-560.9L-548.9-311L-299-61.1L-49.1-311
				L-299-560.9L-299-560.9z"/>
		</g>
	</g>
	<g id="XMLID_30_" class="st1">
		<path id="XMLID_37_" class="st6" d="M-393.5-289.6c0,13.1,8,24.2,18,24.2v0l100,0.4v46.6c0,17.3,14.5,30.9,31.8,30.9h0.1
			c0,0,25.1-0.8,25.1-13.6v-181.5c0-15.7-12.1-28.6-27.2-30.8l-129.8-0.1v0c-10,0.1-18,10-18,24.6c0,17.2,11.6,24.8,11.6,24.8
			s-11.6,6.4-11.6,24.9s11.7,24.8,11.7,24.8S-393.5-307.3-393.5-289.6z"/>
		<path id="XMLID_36_" class="st6" d="M-240.8-230.3h7.5c6.4,0,11.6,5.2,11.6,11.6v6c0,6.4-5.2,11.6-11.6,11.6h-7.5
			c-6.4,0-11.6-5.2-11.6-11.6v-6C-252.3-225.1-247.1-230.3-240.8-230.3z"/>
		<g id="XMLID_31_">
			<line id="XMLID_34_" class="st7" x1="-243" y1="-258.5" x2="-225" y2="-258.5"/>
			<line id="XMLID_33_" class="st7" x1="-243" y1="-244.5" x2="-225" y2="-244.5"/>
			<line id="XMLID_32_" class="st7" x1="-280" y1="-279.5" x2="-355" y2="-279.5"/>
		</g>
	</g>
</g>
<g id="XMLID_160_" class="st0">
	<g id="XMLID_371_" class="st1">
		<path id="XMLID_372_" class="st8" d="M-452.9,62.3h146.7V239h-170.5V86.1C-476.7,72.9-466.1,62.3-452.9,62.3z"/>
		<path id="XMLID_62_" class="st9" d="M-142.7,396.3h-334V86.1c0-13.2,10.7-23.9,23.9-23.9h310.1V396.3z"/>
	</g>
	<g id="XMLID_159_" class="st1">
		<g id="XMLID_39_">
			<g id="XMLID_26_">
				<path id="XMLID_151_" d="M-163.4,68.8l16.2,32.4c1.1,2.2,3.8,3.1,6,2c2.2-1.1,3.1-3.8,2-6l-16.2-32.4c-1.1-2.2-3.8-3.1-6-2
					C-163.6,63.8-164.5,66.6-163.4,68.8"/>
				<path id="XMLID_158_" d="M-181.7,68.8l16.2,32.4c1.1,2.2,3.8,3.1,6,2c2.2-1.1,3.1-3.8,2-6l-16.2-32.4c-1.1-2.2-3.8-3.1-6-2
					C-181.9,63.8-182.8,66.6-181.7,68.8"/>
				<path id="XMLID_157_" d="M-199.9,68.8l16.2,32.4c1.1,2.2,3.8,3.1,6,2c2.2-1.1,3.1-3.8,2-6l-16.2-32.4c-1.1-2.2-3.8-3.1-6-2
					C-200.1,63.8-201,66.6-199.9,68.8"/>
				<path id="XMLID_156_" d="M-218.2,68.8l16.2,32.4c1.1,2.2,3.8,3.1,6,2c2.2-1.1,3.1-3.8,2-6l-16.2-32.4c-1.1-2.2-3.8-3.1-6-2
					C-218.4,63.8-219.3,66.6-218.2,68.8"/>
				<path id="XMLID_155_" d="M-236.4,68.8l16.2,32.4c1.1,2.2,3.8,3.1,6,2c2.2-1.1,3.1-3.8,2-6l-16.2-32.4c-1.1-2.2-3.8-3.1-6-2
					C-236.6,63.8-237.5,66.6-236.4,68.8"/>
				<path id="XMLID_154_" d="M-254.7,68.8l16.2,32.4c1.1,2.2,3.8,3.1,6,2c2.2-1.1,3.1-3.8,2-6l-16.2-32.4c-1.1-2.2-3.8-3.1-6-2
					C-254.9,63.8-255.8,66.6-254.7,68.8"/>
				<path id="XMLID_153_" d="M-272.9,68.8l16.2,32.4c1.1,2.2,3.8,3.1,6,2c2.2-1.1,3.1-3.8,2-6l-16.2-32.4c-1.1-2.2-3.8-3.1-6-2
					C-273.1,63.8-274,66.6-272.9,68.8"/>
				<path id="XMLID_152_" d="M-291.2,68.8l16.2,32.4c1.1,2.2,3.8,3.1,6,2c2.2-1.1,3.1-3.8,2-6l-16.2-32.4c-1.1-2.2-3.8-3.1-6-2
					C-291.4,63.8-292.3,66.6-291.2,68.8"/>
				<path id="XMLID_150_" d="M-309.4,68.8l16.2,32.4c1.1,2.2,3.8,3.1,6,2c2.2-1.1,3.1-3.8,2-6l-16.2-32.4c-1.1-2.2-3.8-3.1-6-2
					C-309.6,63.8-310.5,66.6-309.4,68.8"/>
			</g>
		</g>
		<g id="XMLID_397_">
			<g id="XMLID_401_">
				<path id="XMLID_133_" d="M-163.4,151.8l16.2,32.4c1.1,2.2,3.8,3.1,6,2c2.2-1.1,3.1-3.8,2-6l-16.2-32.4c-1.1-2.2-3.8-3.1-6-2
					S-164.5,149.6-163.4,151.8"/>
				<path id="XMLID_149_" d="M-181.7,151.8l16.2,32.4c1.1,2.2,3.8,3.1,6,2c2.2-1.1,3.1-3.8,2-6l-16.2-32.4c-1.1-2.2-3.8-3.1-6-2
					S-182.8,149.6-181.7,151.8"/>
				<path id="XMLID_148_" d="M-199.9,151.8l16.2,32.4c1.1,2.2,3.8,3.1,6,2c2.2-1.1,3.1-3.8,2-6l-16.2-32.4c-1.1-2.2-3.8-3.1-6-2
					S-201,149.6-199.9,151.8"/>
				<path id="XMLID_147_" d="M-218.2,151.8l16.2,32.4c1.1,2.2,3.8,3.1,6,2c2.2-1.1,3.1-3.8,2-6l-16.2-32.4c-1.1-2.2-3.8-3.1-6-2
					S-219.3,149.6-218.2,151.8"/>
				<path id="XMLID_137_" d="M-236.4,151.8l16.2,32.4c1.1,2.2,3.8,3.1,6,2c2.2-1.1,3.1-3.8,2-6l-16.2-32.4c-1.1-2.2-3.8-3.1-6-2
					S-237.5,149.6-236.4,151.8"/>
				<path id="XMLID_136_" d="M-254.7,151.8l16.2,32.4c1.1,2.2,3.8,3.1,6,2c2.2-1.1,3.1-3.8,2-6l-16.2-32.4c-1.1-2.2-3.8-3.1-6-2
					S-255.8,149.6-254.7,151.8"/>
				<path id="XMLID_135_" d="M-272.9,151.8l16.2,32.4c1.1,2.2,3.8,3.1,6,2c2.2-1.1,3.1-3.8,2-6l-16.2-32.4c-1.1-2.2-3.8-3.1-6-2
					S-274,149.6-272.9,151.8"/>
				<path id="XMLID_134_" d="M-291.2,151.8l16.2,32.4c1.1,2.2,3.8,3.1,6,2c2.2-1.1,3.1-3.8,2-6l-16.2-32.4c-1.1-2.2-3.8-3.1-6-2
					S-292.3,149.6-291.2,151.8"/>
				<path id="XMLID_132_" d="M-309.4,151.8l16.2,32.4c1.1,2.2,3.8,3.1,6,2c2.2-1.1,3.1-3.8,2-6l-16.2-32.4c-1.1-2.2-3.8-3.1-6-2
					S-310.5,149.6-309.4,151.8"/>
			</g>
		</g>
		<g id="XMLID_49_">
			<g id="XMLID_415_">
				<g id="XMLID_416_">
					<path id="XMLID_117_" d="M-163.4,235.8l16.2,32.4c1.1,2.2,3.8,3.1,6,2c2.2-1.1,3.1-3.8,2-6l-16.2-32.4c-1.1-2.2-3.8-3.1-6-2
						S-164.5,233.6-163.4,235.8"/>
					<path id="XMLID_131_" d="M-181.7,235.8l16.2,32.4c1.1,2.2,3.8,3.1,6,2c2.2-1.1,3.1-3.8,2-6l-16.2-32.4c-1.1-2.2-3.8-3.1-6-2
						S-182.8,233.6-181.7,235.8"/>
					<path id="XMLID_130_" d="M-199.9,235.8l16.2,32.4c1.1,2.2,3.8,3.1,6,2c2.2-1.1,3.1-3.8,2-6l-16.2-32.4c-1.1-2.2-3.8-3.1-6-2
						S-201,233.6-199.9,235.8"/>
					<path id="XMLID_129_" d="M-218.2,235.8l16.2,32.4c1.1,2.2,3.8,3.1,6,2c2.2-1.1,3.1-3.8,2-6l-16.2-32.4c-1.1-2.2-3.8-3.1-6-2
						S-219.3,233.6-218.2,235.8"/>
					<path id="XMLID_128_" d="M-236.4,235.8l16.2,32.4c1.1,2.2,3.8,3.1,6,2c2.2-1.1,3.1-3.8,2-6l-16.2-32.4c-1.1-2.2-3.8-3.1-6-2
						S-237.5,233.6-236.4,235.8"/>
					<path id="XMLID_127_" d="M-254.7,235.8l16.2,32.4c1.1,2.2,3.8,3.1,6,2c2.2-1.1,3.1-3.8,2-6l-16.2-32.4c-1.1-2.2-3.8-3.1-6-2
						S-255.8,233.6-254.7,235.8"/>
					<path id="XMLID_126_" d="M-272.9,235.8l16.2,32.4c1.1,2.2,3.8,3.1,6,2c2.2-1.1,3.1-3.8,2-6l-16.2-32.4c-1.1-2.2-3.8-3.1-6-2
						S-274,233.6-272.9,235.8"/>
					<path id="XMLID_118_" d="M-291.2,235.8l16.2,32.4c1.1,2.2,3.8,3.1,6,2c2.2-1.1,3.1-3.8,2-6l-16.2-32.4c-1.1-2.2-3.8-3.1-6-2
						S-292.3,233.6-291.2,235.8"/>
					<path id="XMLID_116_" d="M-309.4,235.8l16.2,32.4c1.1,2.2,3.8,3.1,6,2c2.2-1.1,3.1-3.8,2-6l-16.2-32.4c-1.1-2.2-3.8-3.1-6-2
						S-310.5,233.6-309.4,235.8"/>
				</g>
			</g>
			<g id="XMLID_4_">
				<g id="XMLID_19_">
					<path id="XMLID_101_" d="M-328.4,235.8l16.2,32.4c1.1,2.2,3.8,3.1,6,2c2.2-1.1,3.1-3.8,2-6l-16.2-32.4c-1.1-2.2-3.8-3.1-6-2
						S-329.5,233.6-328.4,235.8"/>
					<path id="XMLID_110_" d="M-346.7,235.8l16.2,32.4c1.1,2.2,3.8,3.1,6,2c2.2-1.1,3.1-3.8,2-6l-16.2-32.4c-1.1-2.2-3.8-3.1-6-2
						S-347.8,233.6-346.7,235.8"/>
					<path id="XMLID_109_" d="M-364.9,235.8l16.2,32.4c1.1,2.2,3.8,3.1,6,2c2.2-1.1,3.1-3.8,2-6l-16.2-32.4c-1.1-2.2-3.8-3.1-6-2
						S-366,233.6-364.9,235.8"/>
					<path id="XMLID_108_" d="M-383.2,235.8l16.2,32.4c1.1,2.2,3.8,3.1,6,2c2.2-1.1,3.1-3.8,2-6l-16.2-32.4c-1.1-2.2-3.8-3.1-6-2
						S-384.3,233.6-383.2,235.8"/>
					<path id="XMLID_106_" d="M-401.4,235.8l16.2,32.4c1.1,2.2,3.8,3.1,6,2c2.2-1.1,3.1-3.8,2-6l-16.2-32.4c-1.1-2.2-3.8-3.1-6-2
						S-402.5,233.6-401.4,235.8"/>
					<path id="XMLID_105_" d="M-419.7,235.8l16.2,32.4c1.1,2.2,3.8,3.1,6,2c2.2-1.1,3.1-3.8,2-6l-16.2-32.4c-1.1-2.2-3.8-3.1-6-2
						S-420.8,233.6-419.7,235.8"/>
					<path id="XMLID_104_" d="M-437.9,235.8l16.2,32.4c1.1,2.2,3.8,3.1,6,2c2.2-1.1,3.1-3.8,2-6l-16.2-32.4c-1.1-2.2-3.8-3.1-6-2
						S-439,233.6-437.9,235.8"/>
					<path id="XMLID_102_" d="M-456.2,235.8l16.2,32.4c1.1,2.2,3.8,3.1,6,2c2.2-1.1,3.1-3.8,2-6l-16.2-32.4c-1.1-2.2-3.8-3.1-6-2
						S-457.3,233.6-456.2,235.8"/>
					<path id="XMLID_100_" d="M-474.4,235.8l16.2,32.4c1.1,2.2,3.8,3.1,6,2c2.2-1.1,3.1-3.8,2-6l-16.2-32.4c-1.1-2.2-3.8-3.1-6-2
						S-475.5,233.6-474.4,235.8"/>
				</g>
			</g>
		</g>
		<g id="XMLID_3_">
			<g id="XMLID_436_">
				<g id="XMLID_437_">
					<path id="XMLID_52_" d="M-163.4,318.8l16.2,32.4c1.1,2.2,3.8,3.1,6,2c2.2-1.1,3.1-3.8,2-6l-16.2-32.4c-1.1-2.2-3.8-3.1-6-2
						S-164.5,316.6-163.4,318.8"/>
					<path id="XMLID_99_" d="M-181.7,318.8l16.2,32.4c1.1,2.2,3.8,3.1,6,2c2.2-1.1,3.1-3.8,2-6l-16.2-32.4c-1.1-2.2-3.8-3.1-6-2
						S-182.8,316.6-181.7,318.8"/>
					<path id="XMLID_98_" d="M-199.9,318.8l16.2,32.4c1.1,2.2,3.8,3.1,6,2c2.2-1.1,3.1-3.8,2-6l-16.2-32.4c-1.1-2.2-3.8-3.1-6-2
						S-201,316.6-199.9,318.8"/>
					<path id="XMLID_97_" d="M-218.2,318.8l16.2,32.4c1.1,2.2,3.8,3.1,6,2c2.2-1.1,3.1-3.8,2-6l-16.2-32.4c-1.1-2.2-3.8-3.1-6-2
						S-219.3,316.6-218.2,318.8"/>
					<path id="XMLID_96_" d="M-236.4,318.8l16.2,32.4c1.1,2.2,3.8,3.1,6,2c2.2-1.1,3.1-3.8,2-6l-16.2-32.4c-1.1-2.2-3.8-3.1-6-2
						S-237.5,316.6-236.4,318.8"/>
					<path id="XMLID_60_" d="M-254.7,318.8l16.2,32.4c1.1,2.2,3.8,3.1,6,2c2.2-1.1,3.1-3.8,2-6l-16.2-32.4c-1.1-2.2-3.8-3.1-6-2
						S-255.8,316.6-254.7,318.8"/>
					<path id="XMLID_59_" d="M-272.9,318.8l16.2,32.4c1.1,2.2,3.8,3.1,6,2c2.2-1.1,3.1-3.8,2-6l-16.2-32.4c-1.1-2.2-3.8-3.1-6-2
						S-274,316.6-272.9,318.8"/>
					<path id="XMLID_58_" d="M-291.2,318.8l16.2,32.4c1.1,2.2,3.8,3.1,6,2c2.2-1.1,3.1-3.8,2-6l-16.2-32.4c-1.1-2.2-3.8-3.1-6-2
						S-292.3,316.6-291.2,318.8"/>
					<path id="XMLID_51_" d="M-309.4,318.8l16.2,32.4c1.1,2.2,3.8,3.1,6,2c2.2-1.1,3.1-3.8,2-6l-16.2-32.4c-1.1-2.2-3.8-3.1-6-2
						S-310.5,316.6-309.4,318.8"/>
				</g>
			</g>
			<g id="XMLID_21_">
				<g id="XMLID_23_">
					<path id="XMLID_25_" d="M-328.4,318.8l16.2,32.4c1.1,2.2,3.8,3.1,6,2c2.2-1.1,3.1-3.8,2-6l-16.2-32.4c-1.1-2.2-3.8-3.1-6-2
						S-329.5,316.6-328.4,318.8"/>
					<path id="XMLID_50_" d="M-346.7,318.8l16.2,32.4c1.1,2.2,3.8,3.1,6,2c2.2-1.1,3.1-3.8,2-6l-16.2-32.4c-1.1-2.2-3.8-3.1-6-2
						S-347.8,316.6-346.7,318.8"/>
					<path id="XMLID_43_" d="M-364.9,318.8l16.2,32.4c1.1,2.2,3.8,3.1,6,2c2.2-1.1,3.1-3.8,2-6l-16.2-32.4c-1.1-2.2-3.8-3.1-6-2
						S-366,316.6-364.9,318.8"/>
					<path id="XMLID_41_" d="M-383.2,318.8l16.2,32.4c1.1,2.2,3.8,3.1,6,2c2.2-1.1,3.1-3.8,2-6l-16.2-32.4c-1.1-2.2-3.8-3.1-6-2
						S-384.3,316.6-383.2,318.8"/>
					<path id="XMLID_38_" d="M-401.4,318.8l16.2,32.4c1.1,2.2,3.8,3.1,6,2c2.2-1.1,3.1-3.8,2-6l-16.2-32.4c-1.1-2.2-3.8-3.1-6-2
						S-402.5,316.6-401.4,318.8"/>
					<path id="XMLID_29_" d="M-419.7,318.8l16.2,32.4c1.1,2.2,3.8,3.1,6,2c2.2-1.1,3.1-3.8,2-6l-16.2-32.4c-1.1-2.2-3.8-3.1-6-2
						S-420.8,316.6-419.7,318.8"/>
					<path id="XMLID_28_" d="M-437.9,318.8l16.2,32.4c1.1,2.2,3.8,3.1,6,2c2.2-1.1,3.1-3.8,2-6l-16.2-32.4c-1.1-2.2-3.8-3.1-6-2
						S-439,316.6-437.9,318.8"/>
					<path id="XMLID_27_" d="M-456.2,318.8l16.2,32.4c1.1,2.2,3.8,3.1,6,2c2.2-1.1,3.1-3.8,2-6l-16.2-32.4c-1.1-2.2-3.8-3.1-6-2
						S-457.3,316.6-456.2,318.8"/>
					<path id="XMLID_24_" d="M-474.4,318.8l16.2,32.4c1.1,2.2,3.8,3.1,6,2c2.2-1.1,3.1-3.8,2-6l-16.2-32.4c-1.1-2.2-3.8-3.1-6-2
						S-475.5,316.6-474.4,318.8"/>
				</g>
			</g>
		</g>
	</g>
</g>
<g id="XMLID_177_">
	<g id="XMLID_1508_">
		<g id="XMLID_1602_">
			<path id="XMLID_1604_" class="st8" d="M754.8,118.3h146.7V295H731V142.1C731,128.9,741.7,118.3,754.8,118.3z"/>
			<path id="XMLID_1603_" class="st9" d="M1065,452.3H731V142.1c0-13.2,10.7-23.9,23.9-23.9H1065V452.3z"/>
		</g>
		<g id="XMLID_1509_">
			<g id="XMLID_1587_">
				<g id="XMLID_1588_">
					<path id="XMLID_1594_" d="M1044.3,124.8l16.2,32.4c1.1,2.2,3.8,3.1,6,2c2.2-1.1,3.1-3.8,2-6l-16.2-32.4c-1.1-2.2-3.8-3.1-6-2
						S1043.2,122.6,1044.3,124.8"/>
					<path id="XMLID_1601_" d="M1026.1,124.8l16.2,32.4c1.1,2.2,3.8,3.1,6,2c2.2-1.1,3.1-3.8,2-6l-16.2-32.4c-1.1-2.2-3.8-3.1-6-2
						S1024.9,122.6,1026.1,124.8"/>
					<path id="XMLID_1600_" d="M1007.8,124.8l16.2,32.4c1.1,2.2,3.8,3.1,6,2c2.2-1.1,3.1-3.8,2-6l-16.2-32.4c-1.1-2.2-3.8-3.1-6-2
						S1006.7,122.6,1007.8,124.8"/>
					<path id="XMLID_1599_" d="M989.6,124.8l16.2,32.4c1.1,2.2,3.8,3.1,6,2c2.2-1.1,3.1-3.8,2-6l-16.2-32.4c-1.1-2.2-3.8-3.1-6-2
						S988.4,122.6,989.6,124.8"/>
					<path id="XMLID_1598_" d="M971.3,124.8l16.2,32.4c1.1,2.2,3.8,3.1,6,2c2.2-1.1,3.1-3.8,2-6l-16.2-32.4c-1.1-2.2-3.8-3.1-6-2
						S970.2,122.6,971.3,124.8"/>
					<path id="XMLID_1597_" d="M953.1,124.8l16.2,32.4c1.1,2.2,3.8,3.1,6,2c2.2-1.1,3.1-3.8,2-6l-16.2-32.4c-1.1-2.2-3.8-3.1-6-2
						S951.9,122.6,953.1,124.8"/>
					<path id="XMLID_1596_" d="M934.8,124.8l16.2,32.4c1.1,2.2,3.8,3.1,6,2c2.2-1.1,3.1-3.8,2-6l-16.2-32.4c-1.1-2.2-3.8-3.1-6-2
						S933.7,122.6,934.8,124.8"/>
					<path id="XMLID_1595_" d="M916.6,124.8l16.2,32.4c1.1,2.2,3.8,3.1,6,2c2.2-1.1,3.1-3.8,2-6l-16.2-32.4c-1.1-2.2-3.8-3.1-6-2
						S915.4,122.6,916.6,124.8"/>
					<path id="XMLID_1593_" d="M898.3,124.8l16.2,32.4c1.1,2.2,3.8,3.1,6,2c2.2-1.1,3.1-3.8,2-6l-16.2-32.4c-1.1-2.2-3.8-3.1-6-2
						S897.2,122.6,898.3,124.8"/>
				</g>
			</g>
			<g id="XMLID_1572_">
				<g id="XMLID_1573_">
					<path id="XMLID_1579_" d="M1044.3,207.8l16.2,32.4c1.1,2.2,3.8,3.1,6,2c2.2-1.1,3.1-3.8,2-6l-16.2-32.4c-1.1-2.2-3.8-3.1-6-2
						S1043.2,205.6,1044.3,207.8"/>
					<path id="XMLID_1586_" d="M1026.1,207.8l16.2,32.4c1.1,2.2,3.8,3.1,6,2c2.2-1.1,3.1-3.8,2-6l-16.2-32.4c-1.1-2.2-3.8-3.1-6-2
						S1024.9,205.6,1026.1,207.8"/>
					<path id="XMLID_1585_" d="M1007.8,207.8l16.2,32.4c1.1,2.2,3.8,3.1,6,2c2.2-1.1,3.1-3.8,2-6l-16.2-32.4c-1.1-2.2-3.8-3.1-6-2
						S1006.7,205.6,1007.8,207.8"/>
					<path id="XMLID_1584_" d="M989.6,207.8l16.2,32.4c1.1,2.2,3.8,3.1,6,2c2.2-1.1,3.1-3.8,2-6l-16.2-32.4c-1.1-2.2-3.8-3.1-6-2
						S988.4,205.6,989.6,207.8"/>
					<path id="XMLID_1583_" d="M971.3,207.8l16.2,32.4c1.1,2.2,3.8,3.1,6,2c2.2-1.1,3.1-3.8,2-6l-16.2-32.4c-1.1-2.2-3.8-3.1-6-2
						S970.2,205.6,971.3,207.8"/>
					<path id="XMLID_1582_" d="M953.1,207.8l16.2,32.4c1.1,2.2,3.8,3.1,6,2c2.2-1.1,3.1-3.8,2-6l-16.2-32.4c-1.1-2.2-3.8-3.1-6-2
						S951.9,205.6,953.1,207.8"/>
					<path id="XMLID_1581_" d="M934.8,207.8l16.2,32.4c1.1,2.2,3.8,3.1,6,2c2.2-1.1,3.1-3.8,2-6l-16.2-32.4c-1.1-2.2-3.8-3.1-6-2
						S933.7,205.6,934.8,207.8"/>
					<path id="XMLID_1580_" d="M916.6,207.8l16.2,32.4c1.1,2.2,3.8,3.1,6,2c2.2-1.1,3.1-3.8,2-6l-16.2-32.4c-1.1-2.2-3.8-3.1-6-2
						S915.4,205.6,916.6,207.8"/>
					<path id="XMLID_1578_" d="M898.3,207.8l16.2,32.4c1.1,2.2,3.8,3.1,6,2c2.2-1.1,3.1-3.8,2-6l-16.2-32.4c-1.1-2.2-3.8-3.1-6-2
						S897.2,205.6,898.3,207.8"/>
				</g>
			</g>
			<g id="XMLID_1541_">
				<g id="XMLID_1557_">
					<g id="XMLID_1558_">
						<path id="XMLID_1564_" d="M1044.3,291.8l16.2,32.4c1.1,2.2,3.8,3.1,6,2c2.2-1.1,3.1-3.8,2-6l-16.2-32.4c-1.1-2.2-3.8-3.1-6-2
							S1043.2,289.6,1044.3,291.8"/>
						<path id="XMLID_1571_" d="M1026.1,291.8l16.2,32.4c1.1,2.2,3.8,3.1,6,2c2.2-1.1,3.1-3.8,2-6l-16.2-32.4c-1.1-2.2-3.8-3.1-6-2
							S1024.9,289.6,1026.1,291.8"/>
						<path id="XMLID_1570_" d="M1007.8,291.8l16.2,32.4c1.1,2.2,3.8,3.1,6,2c2.2-1.1,3.1-3.8,2-6l-16.2-32.4c-1.1-2.2-3.8-3.1-6-2
							S1006.7,289.6,1007.8,291.8"/>
						<path id="XMLID_1569_" d="M989.6,291.8l16.2,32.4c1.1,2.2,3.8,3.1,6,2c2.2-1.1,3.1-3.8,2-6l-16.2-32.4c-1.1-2.2-3.8-3.1-6-2
							S988.4,289.6,989.6,291.8"/>
						<path id="XMLID_1568_" d="M971.3,291.8l16.2,32.4c1.1,2.2,3.8,3.1,6,2c2.2-1.1,3.1-3.8,2-6l-16.2-32.4c-1.1-2.2-3.8-3.1-6-2
							S970.2,289.6,971.3,291.8"/>
						<path id="XMLID_1567_" d="M953.1,291.8l16.2,32.4c1.1,2.2,3.8,3.1,6,2c2.2-1.1,3.1-3.8,2-6l-16.2-32.4c-1.1-2.2-3.8-3.1-6-2
							S951.9,289.6,953.1,291.8"/>
						<path id="XMLID_1566_" d="M934.8,291.8l16.2,32.4c1.1,2.2,3.8,3.1,6,2c2.2-1.1,3.1-3.8,2-6l-16.2-32.4c-1.1-2.2-3.8-3.1-6-2
							S933.7,289.6,934.8,291.8"/>
						<path id="XMLID_1565_" d="M916.6,291.8l16.2,32.4c1.1,2.2,3.8,3.1,6,2c2.2-1.1,3.1-3.8,2-6l-16.2-32.4c-1.1-2.2-3.8-3.1-6-2
							S915.4,289.6,916.6,291.8"/>
						<path id="XMLID_1563_" d="M898.3,291.8l16.2,32.4c1.1,2.2,3.8,3.1,6,2c2.2-1.1,3.1-3.8,2-6l-16.2-32.4c-1.1-2.2-3.8-3.1-6-2
							S897.2,289.6,898.3,291.8"/>
					</g>
				</g>
				<g id="XMLID_1542_">
					<g id="XMLID_1543_">
						<path id="XMLID_1549_" d="M879.3,291.8l16.2,32.4c1.1,2.2,3.8,3.1,6,2c2.2-1.1,3.1-3.8,2-6l-16.2-32.4c-1.1-2.2-3.8-3.1-6-2
							S878.2,289.6,879.3,291.8"/>
						<path id="XMLID_1556_" d="M861.1,291.8l16.2,32.4c1.1,2.2,3.8,3.1,6,2c2.2-1.1,3.1-3.8,2-6l-16.2-32.4c-1.1-2.2-3.8-3.1-6-2
							S859.9,289.6,861.1,291.8"/>
						<path id="XMLID_1555_" d="M842.8,291.8l16.2,32.4c1.1,2.2,3.8,3.1,6,2c2.2-1.1,3.1-3.8,2-6l-16.2-32.4c-1.1-2.2-3.8-3.1-6-2
							S841.7,289.6,842.8,291.8"/>
						<path id="XMLID_1554_" d="M824.6,291.8l16.2,32.4c1.1,2.2,3.8,3.1,6,2c2.2-1.1,3.1-3.8,2-6l-16.2-32.4c-1.1-2.2-3.8-3.1-6-2
							S823.4,289.6,824.6,291.8"/>
						<path id="XMLID_1553_" d="M806.3,291.8l16.2,32.4c1.1,2.2,3.8,3.1,6,2c2.2-1.1,3.1-3.8,2-6l-16.2-32.4c-1.1-2.2-3.8-3.1-6-2
							S805.2,289.6,806.3,291.8"/>
						<path id="XMLID_1552_" d="M788.1,291.8l16.2,32.4c1.1,2.2,3.8,3.1,6,2c2.2-1.1,3.1-3.8,2-6l-16.2-32.4c-1.1-2.2-3.8-3.1-6-2
							S786.9,289.6,788.1,291.8"/>
						<path id="XMLID_1551_" d="M769.8,291.8l16.2,32.4c1.1,2.2,3.8,3.1,6,2c2.2-1.1,3.1-3.8,2-6l-16.2-32.4c-1.1-2.2-3.8-3.1-6-2
							S768.7,289.6,769.8,291.8"/>
						<path id="XMLID_1550_" d="M751.6,291.8l16.2,32.4c1.1,2.2,3.8,3.1,6,2c2.2-1.1,3.1-3.8,2-6l-16.2-32.4c-1.1-2.2-3.8-3.1-6-2
							S750.4,289.6,751.6,291.8"/>
						<path id="XMLID_1548_" d="M733.3,291.8l16.2,32.4c1.1,2.2,3.8,3.1,6,2c2.2-1.1,3.1-3.8,2-6l-16.2-32.4c-1.1-2.2-3.8-3.1-6-2
							S732.2,289.6,733.3,291.8"/>
					</g>
				</g>
			</g>
			<g id="XMLID_1510_">
				<g id="XMLID_1526_">
					<g id="XMLID_1527_">
						<path id="XMLID_1533_" d="M1044.3,374.8l16.2,32.4c1.1,2.2,3.8,3.1,6,2c2.2-1.1,3.1-3.8,2-6l-16.2-32.4c-1.1-2.2-3.8-3.1-6-2
							S1043.2,372.6,1044.3,374.8"/>
						<path id="XMLID_1540_" d="M1026.1,374.8l16.2,32.4c1.1,2.2,3.8,3.1,6,2c2.2-1.1,3.1-3.8,2-6l-16.2-32.4c-1.1-2.2-3.8-3.1-6-2
							S1024.9,372.6,1026.1,374.8"/>
						<path id="XMLID_1539_" d="M1007.8,374.8l16.2,32.4c1.1,2.2,3.8,3.1,6,2c2.2-1.1,3.1-3.8,2-6l-16.2-32.4c-1.1-2.2-3.8-3.1-6-2
							S1006.7,372.6,1007.8,374.8"/>
						<path id="XMLID_1538_" d="M989.6,374.8l16.2,32.4c1.1,2.2,3.8,3.1,6,2c2.2-1.1,3.1-3.8,2-6l-16.2-32.4c-1.1-2.2-3.8-3.1-6-2
							S988.4,372.6,989.6,374.8"/>
						<path id="XMLID_1537_" d="M971.3,374.8l16.2,32.4c1.1,2.2,3.8,3.1,6,2c2.2-1.1,3.1-3.8,2-6l-16.2-32.4c-1.1-2.2-3.8-3.1-6-2
							S970.2,372.6,971.3,374.8"/>
						<path id="XMLID_1536_" d="M953.1,374.8l16.2,32.4c1.1,2.2,3.8,3.1,6,2c2.2-1.1,3.1-3.8,2-6l-16.2-32.4c-1.1-2.2-3.8-3.1-6-2
							S951.9,372.6,953.1,374.8"/>
						<path id="XMLID_1535_" d="M934.8,374.8l16.2,32.4c1.1,2.2,3.8,3.1,6,2c2.2-1.1,3.1-3.8,2-6l-16.2-32.4c-1.1-2.2-3.8-3.1-6-2
							S933.7,372.6,934.8,374.8"/>
						<path id="XMLID_1534_" d="M916.6,374.8l16.2,32.4c1.1,2.2,3.8,3.1,6,2c2.2-1.1,3.1-3.8,2-6l-16.2-32.4c-1.1-2.2-3.8-3.1-6-2
							S915.4,372.6,916.6,374.8"/>
						<path id="XMLID_1532_" d="M898.3,374.8l16.2,32.4c1.1,2.2,3.8,3.1,6,2c2.2-1.1,3.1-3.8,2-6l-16.2-32.4c-1.1-2.2-3.8-3.1-6-2
							S897.2,372.6,898.3,374.8"/>
					</g>
				</g>
				<g id="XMLID_1511_">
					<g id="XMLID_1512_">
						<path id="XMLID_1518_" d="M879.3,374.8l16.2,32.4c1.1,2.2,3.8,3.1,6,2c2.2-1.1,3.1-3.8,2-6l-16.2-32.4c-1.1-2.2-3.8-3.1-6-2
							S878.2,372.6,879.3,374.8"/>
						<path id="XMLID_1525_" d="M861.1,374.8l16.2,32.4c1.1,2.2,3.8,3.1,6,2c2.2-1.1,3.1-3.8,2-6l-16.2-32.4c-1.1-2.2-3.8-3.1-6-2
							S859.9,372.6,861.1,374.8"/>
						<path id="XMLID_1524_" d="M842.8,374.8l16.2,32.4c1.1,2.2,3.8,3.1,6,2c2.2-1.1,3.1-3.8,2-6l-16.2-32.4c-1.1-2.2-3.8-3.1-6-2
							S841.7,372.6,842.8,374.8"/>
						<path id="XMLID_1523_" d="M824.6,374.8l16.2,32.4c1.1,2.2,3.8,3.1,6,2c2.2-1.1,3.1-3.8,2-6l-16.2-32.4c-1.1-2.2-3.8-3.1-6-2
							S823.4,372.6,824.6,374.8"/>
						<path id="XMLID_1522_" d="M806.3,374.8l16.2,32.4c1.1,2.2,3.8,3.1,6,2c2.2-1.1,3.1-3.8,2-6l-16.2-32.4c-1.1-2.2-3.8-3.1-6-2
							S805.2,372.6,806.3,374.8"/>
						<path id="XMLID_1521_" d="M788.1,374.8l16.2,32.4c1.1,2.2,3.8,3.1,6,2c2.2-1.1,3.1-3.8,2-6l-16.2-32.4c-1.1-2.2-3.8-3.1-6-2
							S786.9,372.6,788.1,374.8"/>
						<path id="XMLID_1520_" d="M769.8,374.8l16.2,32.4c1.1,2.2,3.8,3.1,6,2c2.2-1.1,3.1-3.8,2-6l-16.2-32.4c-1.1-2.2-3.8-3.1-6-2
							S768.7,372.6,769.8,374.8"/>
						<path id="XMLID_1519_" d="M751.6,374.8l16.2,32.4c1.1,2.2,3.8,3.1,6,2c2.2-1.1,3.1-3.8,2-6l-16.2-32.4c-1.1-2.2-3.8-3.1-6-2
							S750.4,372.6,751.6,374.8"/>
						<path id="XMLID_1517_" d="M733.3,374.8l16.2,32.4c1.1,2.2,3.8,3.1,6,2c2.2-1.1,3.1-3.8,2-6l-16.2-32.4c-1.1-2.2-3.8-3.1-6-2
							S732.2,372.6,733.3,374.8"/>
					</g>
				</g>
			</g>
		</g>
	</g>
	<g id="XMLID_1644_">
		<g id="XMLID_1626_">
			<path id="XMLID_2085_" d="M309.9,626.9L533,849.9L309.9,1073L86.9,849.9L309.9,626.9 M309.9,600L60,849.9l249.9,249.9
				l249.9-249.9L309.9,600L309.9,600z"/>
		</g>
		<line id="XMLID_1625_" class="st3" x1="300" y1="854.5" x2="377" y2="854.5"/>
		<line id="XMLID_1624_" class="st3" x1="262" y1="910.5" x2="367" y2="910.5"/>
		<line id="XMLID_1623_" class="st3" x1="362" y1="925.5" x2="264" y2="925.5"/>
		<line id="XMLID_1622_" class="st3" x1="306.5" y1="871" x2="306.5" y2="884"/>
		<line id="XMLID_1621_" class="st3" x1="316.5" y1="963" x2="316.5" y2="982"/>
		<line id="XMLID_1620_" class="st3" x1="283.5" y1="954" x2="283.5" y2="928"/>
		<line id="XMLID_1619_" class="st3" x1="283.5" y1="909" x2="283.5" y2="887"/>
		<path id="XMLID_1618_" class="st5" d="M453.6,854.5l0.2-0.2c0-14.2-0.3-44.5-35.3-45.1c0-3.1,0-14.9,0-14.9
			c0-15.3-16.6-27.8-36.5-27.8h-26.5v-2.3c0-13.9-12-24.7-26.6-24.7H291c-14.7,0-26.5,10.8-26.5,24.7v2.3h-25
			c-19.8,0-36,12.5-36,27.8v14.2h-2.3c-34.7,0-34.8,31-34.8,46h98.2v56h-36.9c-3.7,0-7.1,3-7.1,6.7v0.7c0,3.7,3.4,7.6,7.1,7.6h36.9
			v36.7l45.5,45.2l45.5-44.4v-37.5h36.8c3.7,0,7.2-3.8,7.2-7.6v-0.7c0-3.7-3.5-6.7-7.2-6.7h-36.8v-56H453.6z"/>
	</g>
	<g id="XMLID_1645_">
		<g id="XMLID_1653_">
			<path id="XMLID_202_" d="M306.9,1174.9L530,1398l-223.1,223.1L83.9,1398L306.9,1174.9 M306.9,1148.1L57,1398l249.9,249.9
				L556.9,1398L306.9,1148.1L306.9,1148.1z"/>
		</g>
		<g id="XMLID_1650_">
			<path id="XMLID_1652_" class="st5" d="M358.2,1514.4H255.8c-14.5,0-26.4-11.9-26.4-26.4v-176.2c0-14.5,11.9-26.4,26.4-26.4h102.4
				c14.5,0,26.4,11.9,26.4,26.4V1488C384.6,1502.5,372.7,1514.4,358.2,1514.4z"/>
			<path id="XMLID_1651_" class="st5" d="M366.2,1376.1l-6.4-6.4c-4.3-4.3-11.2-4.3-15.5,0l-58.4,58.4l-15-15
				c-4.3-4.3-11.2-4.3-15.5,0l-6.3,6.3c-4.3,4.3-4.3,11.2,0,15.5l21.6,21.6c0.3,0.4,0.6,0.8,1,1.2l6.4,6.4c2.2,2.2,5,3.2,7.8,3.2
				c2.8,0,5.7-1,7.8-3.2l6.3-6.3c0.4-0.4,0.7-0.8,1-1.2l65.1-65.1C370.5,1387.4,370.5,1380.4,366.2,1376.1z"/>
		</g>
		<g id="XMLID_1646_">
			<line id="XMLID_1649_" class="st3" x1="278" y1="1307.5" x2="362" y2="1307.5"/>
			<line id="XMLID_1648_" class="st3" x1="253" y1="1323.5" x2="362" y2="1323.5"/>
			<line id="XMLID_1647_" class="st3" x1="253" y1="1339.5" x2="362" y2="1339.5"/>
		</g>
	</g>
	<g id="XMLID_1654_">
		<g id="XMLID_1664_">
			<path id="XMLID_198_" d="M900,1174.9l223.1,223.1L900,1621.1L676.9,1398L900,1174.9 M900,1148.1L650.1,1398L900,1647.9
				l249.9-249.9L900,1148.1L900,1148.1z"/>
		</g>
		<g id="XMLID_1655_">
			<path id="XMLID_1663_" class="st5" d="M972.8,1359.6l-49.7-12.4l-77.9-19.5c-13.3-3.3-26.9,4.8-30.2,18.1l-2.9,11.6l-6.6,26.4
				l-17.2,68.8c-2.4,9.7,3.5,19.4,13.1,21.9l6.1,1.5c10,2.5,20.1-3.6,22.6-13.6l11-44l93.8,23.5c14.6,3.7,29.4-5.2,33.1-19.8
				l12.4-49.6C982,1366.8,978.5,1361,972.8,1359.6z"/>
			<polyline id="XMLID_1661_" class="st5" points="901.4,1434 922.5,1349.6 923,1347.7 			"/>
			<path id="XMLID_1660_" class="st5" d="M979.3,1378l77.9,19.5c4.9,1.2,7.9,6.2,6.7,11.1v0c-1.2,4.9-6.2,7.9-11.1,6.7l-77.9-19.5"
				/>
			<line id="XMLID_1659_" class="st5" x1="998.7" y1="1382.9" x2="1010.7" y2="1404.8"/>
			<line id="XMLID_1658_" class="st5" x1="1028.7" y1="1390.4" x2="1040.8" y2="1412.3"/>
			<line id="XMLID_1657_" class="st3" x1="839.6" y1="1343.1" x2="851.6" y2="1365"/>
			<line id="XMLID_1656_" class="st3" x1="858" y1="1347.7" x2="870.1" y2="1369.6"/>
		</g>
	</g>
	<g id="XMLID_1665_">
		<g id="XMLID_1675_">
			<path id="XMLID_211_" d="M1500.1,626.9l223.1,223.1L1500.1,1073L1277,849.9L1500.1,626.9 M1500.1,600l-249.9,249.9l249.9,249.9
				L1750,849.9L1500.1,600L1500.1,600z"/>
		</g>
		<g id="XMLID_1669_">
			<circle id="XMLID_1674_" class="st5" cx="1499.1" cy="850" r="126.4"/>
			<circle id="XMLID_1673_" class="st5" cx="1499.1" cy="850" r="110.9"/>
			<g id="XMLID_1670_">
				<line id="XMLID_1672_" class="st5" x1="1568" y1="768.2" x2="1416.2" y2="919.9"/>
				<line id="XMLID_1671_" class="st5" x1="1582" y1="776.4" x2="1425.9" y2="932.5"/>
			</g>
		</g>
	</g>
	<g id="XMLID_1677_">
		<g id="XMLID_1683_">
			<path id="XMLID_197_" d="M900,626.9l223.1,223.1L900,1073L676.9,849.9L900,626.9 M900,600L650.1,849.9L900,1099.9l249.9-249.9
				L900,600L900,600z"/>
		</g>
		<g id="XMLID_178_">
			<path id="XMLID_1679_" class="st5" d="M861.2,879.6V733.9c0-13.1,10.7-23.8,23.8-23.8h28c13.1,0,23.8,10.7,23.8,23.8v145.7H861.2
				z"/>
			<path id="XMLID_1678_" class="st5" d="M907.7,986.9h-17.3c-16.1,0-29.2-13.1-29.2-29.2v-47.6h75.7v47.6
				C936.8,973.7,923.7,986.9,907.7,986.9z"/>
		</g>
	</g>
	<g id="XMLID_1684_">
		<g id="XMLID_1697_">
			<path id="XMLID_205_" d="M1500.1,1174.9l223.1,223.1l-223.1,223.1L1277,1398L1500.1,1174.9 M1500.1,1148.1L1250.1,1398
				l249.9,249.9L1750,1398L1500.1,1148.1L1500.1,1148.1z"/>
		</g>
		<g id="XMLID_1685_">
			<path id="XMLID_1695_" class="st6" d="M1585.7,1386.6c0-13.1-8.2-24.2-18.2-24.2v0l-100-0.4v-46.6c0-17.3-14-30.9-31.3-30.9h-0.1
				c0,0-25.6,0.8-25.6,13.6v181.5c0,15.7,12.1,28.6,27.2,30.8l129.8,0.1v0c10-0.1,18.2-10,18.2-24.6c0-17.2-11.5-24.8-11.5-24.8
				s11.7-6.4,11.7-24.9s-11.8-24.8-11.8-24.8S1585.7,1404.3,1585.7,1386.6z"/>
			<path id="XMLID_1691_" class="st6" d="M1433.2,1327.3h-7.5c-6.4,0-11.6-5.2-11.6-11.6v-6c0-6.4,5.2-11.6,11.6-11.6h7.5
				c6.4,0,11.6,5.2,11.6,11.6v6C1444.8,1322.1,1439.6,1327.3,1433.2,1327.3z"/>
			<g id="XMLID_1686_">
				<line id="XMLID_1690_" class="st7" x1="1435" y1="1355.5" x2="1417" y2="1355.5"/>
				<line id="XMLID_1689_" class="st7" x1="1435" y1="1341.5" x2="1417" y2="1341.5"/>
				<line id="XMLID_1687_" class="st7" x1="1472" y1="1376.5" x2="1547" y2="1376.5"/>
			</g>
		</g>
	</g>
</g>
</svg>
