<?xml version="1.0" encoding="utf-8"?>
<!-- Generator: Adobe Illustrator 19.0.0, SVG Export Plug-In . SVG Version: 6.00 Build 0)  -->
<svg version="1.1" xmlns="http://www.w3.org/2000/svg" xmlns:xlink="http://www.w3.org/1999/xlink" x="0px" y="0px"
	 viewBox="0 0 300 300" style="enable-background:new 0 0 300 300;" xml:space="preserve">
<style type="text/css">
	.st0{display:none;}
	.st1{display:inline;fill:none;stroke:#525252;stroke-width:7;stroke-miterlimit:10;}
	.st2{display:inline;}
	.st3{fill:#525252;}
	.st4{display:inline;fill:none;stroke:#BABABA;stroke-width:7;stroke-miterlimit:10;}
	.st5{fill:#BABABA;}
	.st6{display:inline;fill:none;stroke:#F4F4F4;stroke-width:7;stroke-miterlimit:10;}
	.st7{fill:#F4F4F4;}
	.st8{fill:none;stroke:#EC411F;stroke-width:7;stroke-miterlimit:10;}
	.st9{fill:#EC411F;}
	.st10{fill:none;stroke:#525252;stroke-width:7;stroke-linecap:round;stroke-linejoin:round;stroke-miterlimit:10;}
	.st11{fill:none;stroke:#525252;stroke-width:7;stroke-miterlimit:10;}
	.st12{fill:none;stroke:#BABABA;stroke-width:7;stroke-linecap:round;stroke-linejoin:round;stroke-miterlimit:10;}
	.st13{fill:none;stroke:#BABABA;stroke-width:7;stroke-miterlimit:10;}
	.st14{fill:none;stroke:#F4F4F4;stroke-width:7;stroke-linecap:round;stroke-linejoin:round;stroke-miterlimit:10;}
	.st15{fill:none;stroke:#F4F4F4;stroke-width:7;stroke-miterlimit:10;}
	.st16{fill:none;stroke:#EC411F;stroke-width:7;stroke-linecap:round;stroke-linejoin:round;stroke-miterlimit:10;}
	.st17{fill:#EC411F;stroke:#EC411F;stroke-width:7;stroke-linecap:round;stroke-linejoin:round;stroke-miterlimit:10;}
	.st18{fill:none;stroke:#F7F7F7;stroke-width:7;stroke-linecap:round;stroke-linejoin:round;stroke-miterlimit:10;}
</style>
<g id="Salt">
	<g id="Salt_Blk" class="st0">
		<path id="XMLID_643_" class="st1" d="M-846.3,99.1c10.4,0,18.8,9.7,18.8,21.6l15.7,149.7c0,11.9-8.5,21.6-18.8,21.6h-138.7
			c-10.4,0-18.8-9.7-18.8-21.6l15.7-149.7c0-11.9,8.5-21.6,18.8-21.6"/>
		<path id="XMLID_43_" class="st1" d="M-955.1,81v12.1v8.3c0,6.3,4.5,11.5,10,11.5h90.1c5.5,0,10-5.1,10-11.5v-8.3V80.8"/>
		<path id="XMLID_42_" class="st1" d="M-825.7,65.1c0,20.1-33.3,20.1-74.3,20.1s-74.3,0-74.3-20.1c0-31.8,33.3-57.6,74.3-57.6
			S-825.7,33.3-825.7,65.1z"/>
		<line id="XMLID_44_" class="st1" x1="-821.3" y1="157.5" x2="-978.7" y2="202.3"/>
		<g id="XMLID_2_" class="st2">
			<circle id="XMLID_589_" class="st3" cx="-935" cy="29.2" r="6"/>
			<circle id="XMLID_593_" class="st3" cx="-911.6" cy="23.9" r="6"/>
			<circle id="XMLID_590_" class="st3" cx="-888.3" cy="23.9" r="6"/>
			<circle id="XMLID_588_" class="st3" cx="-865" cy="29.2" r="6"/>
		</g>
	</g>
	<g id="Salt_Gry" class="st0">
		<path id="XMLID_656_" class="st4" d="M-496.3,99.1c10.4,0,18.8,9.7,18.8,21.6l15.7,149.7c0,11.9-8.5,21.6-18.8,21.6h-138.7
			c-10.4,0-18.8-9.7-18.8-21.6l15.7-149.7c0-11.9,8.5-21.6,18.8-21.6"/>
		<path id="XMLID_107_" class="st4" d="M-605.1,81.1v12v8.3c0,6.3,4.5,11.5,10,11.5h90.1c5.5,0,10-5.1,10-11.5v-8.3V81.8"/>
		<path id="XMLID_106_" class="st4" d="M-475.7,65.1c0,20.1-33.3,20.1-74.3,20.1s-74.3,0-74.3-20.1c0-31.8,33.3-57.6,74.3-57.6
			S-475.7,33.3-475.7,65.1z"/>
		<line id="XMLID_105_" class="st4" x1="-471.3" y1="157.5" x2="-628.7" y2="202.3"/>
		<g id="XMLID_90_" class="st2">
			<circle id="XMLID_447_" class="st5" cx="-585" cy="29.2" r="6"/>
			<circle id="XMLID_587_" class="st5" cx="-561.6" cy="23.9" r="6"/>
			<circle id="XMLID_586_" class="st5" cx="-538.3" cy="23.9" r="6"/>
			<circle id="XMLID_446_" class="st5" cx="-515" cy="29.2" r="6"/>
		</g>
	</g>
	<g id="Salt_Wht" class="st0">
		<path id="XMLID_176_" class="st6" d="M-146.3,99.1c10.4,0,18.8,9.7,18.8,21.6l15.7,149.7c0,11.9-8.5,21.6-18.8,21.6h-138.7
			c-10.4,0-18.8-9.7-18.8-21.6l15.7-149.7c0-11.9,8.5-21.6,18.8-21.6"/>
		<path id="XMLID_175_" class="st6" d="M-255.1,81.1v12v8.3c0,6.3,4.5,11.5,10,11.5h90.1c5.5,0,10-5.1,10-11.5v-8.3V81.8"/>
		<path id="XMLID_174_" class="st6" d="M-125.7,65.1c0,20.1-33.3,20.1-74.3,20.1s-74.3,0-74.3-20.1c0-31.8,33.3-57.6,74.3-57.6
			S-125.7,33.3-125.7,65.1z"/>
		<line id="XMLID_173_" class="st6" x1="-121.3" y1="157.5" x2="-278.7" y2="202.3"/>
		<g id="XMLID_155_" class="st2">
			<circle id="XMLID_330_" class="st7" cx="-235" cy="29.2" r="6"/>
			<circle id="XMLID_445_" class="st7" cx="-211.6" cy="23.9" r="6"/>
			<circle id="XMLID_441_" class="st7" cx="-188.3" cy="23.9" r="6"/>
			<circle id="XMLID_329_" class="st7" cx="-165" cy="29.2" r="6"/>
		</g>
	</g>
	<g id="Salt_Red">
		<path id="XMLID_800_" class="st8" d="M203.7,99.1c10.4,0,18.8,9.7,18.8,21.6l15.7,149.7c0,11.9-8.5,21.6-18.8,21.6H80.6
			c-10.4,0-18.8-9.7-18.8-21.6l15.7-149.7c0-11.9,8.5-21.6,18.8-21.6"/>
		<path id="XMLID_799_" class="st8" d="M94.9,81.1v12v8.3c0,6.3,4.5,11.5,10,11.5h90.1c5.5,0,10-5.1,10-11.5v-8.3V81.8"/>
		<path id="XMLID_798_" class="st8" d="M224.3,65.1c0,20.1-33.3,20.1-74.3,20.1s-74.3,0-74.3-20.1C75.7,33.3,109,7.5,150,7.5
			S224.3,33.3,224.3,65.1z"/>
		<polygon id="XMLID_59_" class="st9" points="69.2,182.1 226.7,137.4 232.1,212.2 238.2,276.1 222.1,292 163,292 80.6,292.2 
			66.3,284.4 61.8,267.9 		"/>
		<g id="XMLID_782_">
			<circle id="XMLID_326_" class="st9" cx="115" cy="29.2" r="6"/>
			<circle id="XMLID_328_" class="st9" cx="138.4" cy="23.9" r="6"/>
			<circle id="XMLID_327_" class="st9" cx="161.7" cy="23.9" r="6"/>
			<circle id="XMLID_325_" class="st9" cx="185" cy="29.2" r="6"/>
		</g>
	</g>
</g>
<g id="Onion" class="st0">
	<g id="Onion_Red" class="st2">
		<g id="XMLID_2460_">
			<g id="XMLID_2467_">
				<path id="XMLID_2468_" class="st9" d="M148,603c-50.2,0-88.3-38-88.3-88.6c0-25.2,10.5-47.6,31.3-66.7
					c10.9-9.2,22.4-14.7,31.5-19.1c12.4-5.9,19.5-9.7,20.4-16.4c0.2-2.1,2.1-3.6,4.2-3.2c2.1,0.2,3.6,2.3,3.2,4.2
					c-1.5,11.1-11.7,16-24.6,22.2c-9.2,4.4-19.7,9.6-29.8,18c-18.9,17.4-28.7,37.8-28.7,60.9c0,44.9,32.7,79.1,76.8,81v-39.4
					c-7.5-1.1-37.4-7.6-37.4-41.8c0-40.7,40.5-44.9,40.9-44.9c1.1,0,2.1,0.2,2.9,1c0.8,0.8,1.3,1.7,1.3,2.9V599
					C151.8,601.3,150.1,603,148,603z M144.2,477.5c-9.2,2.1-29.8,9.7-29.8,36.5c0,27.3,22.5,33.1,29.8,34.2V477.5z"/>
			</g>
			<g id="XMLID_2465_">
				<path id="XMLID_2466_" class="st9" d="M149.3,579.1c-36.5,0-65.2-28.5-65.2-65c0-18.9,7.6-36.1,22.2-49.3
					c7.3-6.3,15.1-10.1,22-13.4c8-3.8,14.3-7.1,14.9-11.5c0.2-2.1,2.1-3.6,4.2-3.2c2.1,0.2,3.6,2.3,3.2,4.2
					c-1.1,8.6-9.6,12.6-19.1,17.4c-6.5,3.2-13.9,6.9-20.3,12.2c-13,11.8-19.7,26.6-19.7,43.6c0,32.7,24.8,57.3,57.5,57.3
					c2.1,0,3.8,1.7,3.8,3.8S151.4,579.1,149.3,579.1z"/>
			</g>
			<g id="XMLID_2463_">
				<path id="XMLID_2464_" class="st9" d="M192.3,609.9c-1.3,0-2.7-0.8-3.2-1.9c-1.1-1.9-0.4-4.2,1.3-5.2
					c52.2-30.4,52.2-65.5,52.2-65.7c0-2.1,1.7-3.8,3.8-3.8s3.8,1.7,3.8,3.8c0,1.5,0.2,39.9-56,72.6
					C193.7,609.7,192.9,609.9,192.3,609.9z"/>
			</g>
			<g id="XMLID_2461_">
				<path id="XMLID_2462_" class="st9" d="M237,473.1c-1.5,0-3.1-1-3.6-2.5c-10.5-26.7-38.8-37.1-39.2-37.1
					c-1.9-0.8-3.1-2.9-2.3-4.8c0.8-1.9,2.9-3.1,4.8-2.3c1.3,0.4,31.9,11.5,43.8,41.5c0.8,1.9-0.2,4.2-2.1,5
					C238,473.1,237.4,473.1,237,473.1z"/>
			</g>
		</g>
		<g id="XMLID_2458_">
			<path id="XMLID_2459_" class="st9" d="M254.4,452.2c-12.4-18.7-29.8-33.8-50.2-43.6l-2.1-1.3c-26-15.1-42.2-25.8-47.4-50.1v-0.2
				c-0.6-2.3-2.5-4-5-4s-4.6,1.7-5,4v0.2c-5.2,25.6-23.1,36.5-46.8,50.6l0,0c-0.4,0.2-0.6,0.2-1,0.4c-1,0.8-1.7,1.7-1.7,3.1
				c0,2.1,1.7,3.8,3.8,3.8c0.4,0,0.8,0,1-0.2c0.4-0.2,0.6-0.4,1-0.4h0.2h0.2c22.4-13.2,40.9-24.3,48.5-47.4
				c7.8,23.1,26.4,33.8,48.5,46.8l2.3,1.3c0.2,0,0.2,0.2,0.4,0.2c40.5,19.1,65.7,58.1,65.7,101.8c0,49.7-34.2,94.2-83.3,108.5
				c-1.5,0.4-2.5,1.7-2.7,3.2l-0.2,2.3c0,0.2,0,0.2,0,0.4c0,0,0,0.4-0.4,1c-0.4,0.4-0.8,1-1.3,1.3l0,0l0,0
				c-4.4,3.6-14.7,7.3-29.4,7.3c-13.2,0-23.1-2.9-28.1-6.1l0,0c-1.1-0.8-1.9-1.7-1.9-3.4c0-0.2,0-0.4,0-0.6l-0.4-2.3
				c-0.2-1.5-1.1-2.7-2.7-3.1c-49.1-14.5-83.1-59.2-83.1-108.7c0-36.1,18-69.7,47.2-90.9c0.2-0.2,0.4-0.2,0.4-0.4
				c0.8-0.8,1.3-1.7,1.3-2.9c0-2.1-1.7-3.6-3.6-3.6c-0.8,0-1.3,0.2-1.9,0.6l-0.2,0.2c-31.3,22.5-50.4,58.5-50.4,97.1
				c0,26.6,8.6,51.6,25,72.6c15.3,19.7,36.7,34.6,60.6,42c1.9,9.7,20.3,15.1,37.4,15.1c17,0,35.2-5.2,37.4-14.7
				c0.8-0.2,1.1-0.2,1.1-0.2c24.1-7.5,45.5-22.4,60.9-42c16.4-21.2,25.2-46.2,25.2-72.8C273.7,494.1,267,471.5,254.4,452.2z"/>
		</g>
	</g>
	<g id="Onion_Wht" class="st2">
		<g id="XMLID_2729_">
			<g id="XMLID_2736_">
				<path id="XMLID_2737_" class="st7" d="M-202,603c-50.2,0-88.3-38-88.3-88.6c0-25.2,10.5-47.6,31.3-66.7
					c10.9-9.2,22.4-14.7,31.5-19.1c12.4-5.9,19.5-9.7,20.4-16.4c0.2-2.1,2.1-3.6,4.2-3.2c2.1,0.2,3.6,2.3,3.2,4.2
					c-1.5,11.1-11.7,16-24.6,22.2c-9.2,4.4-19.7,9.6-29.8,18c-18.9,17.4-28.7,37.8-28.7,60.9c0,44.9,32.7,79.1,76.8,81v-39.4
					c-7.5-1.1-37.4-7.6-37.4-41.8c0-40.7,40.5-44.9,40.9-44.9c1.1,0,2.1,0.2,2.9,1c0.8,0.8,1.3,1.7,1.3,2.9V599
					C-198.2,601.3-199.9,603-202,603z M-205.8,477.5c-9.2,2.1-29.8,9.7-29.8,36.5c0,27.3,22.5,33.1,29.8,34.2V477.5z"/>
			</g>
			<g id="XMLID_2734_">
				<path id="XMLID_2735_" class="st7" d="M-200.7,579.1c-36.5,0-65.2-28.5-65.2-65c0-18.9,7.6-36.1,22.2-49.3
					c7.3-6.3,15.1-10.1,22-13.4c8-3.8,14.3-7.1,14.9-11.5c0.2-2.1,2.1-3.6,4.2-3.2c2.1,0.2,3.6,2.3,3.2,4.2
					c-1.1,8.6-9.6,12.6-19.1,17.4c-6.5,3.2-13.9,6.9-20.3,12.2c-13,11.8-19.7,26.6-19.7,43.6c0,32.7,24.8,57.3,57.5,57.3
					c2.1,0,3.8,1.7,3.8,3.8S-198.6,579.1-200.7,579.1z"/>
			</g>
			<g id="XMLID_2732_">
				<path id="XMLID_2733_" class="st7" d="M-157.7,609.9c-1.3,0-2.7-0.8-3.2-1.9c-1.1-1.9-0.4-4.2,1.3-5.2
					c52.2-30.4,52.2-65.5,52.2-65.7c0-2.1,1.7-3.8,3.8-3.8c2.1,0,3.8,1.7,3.8,3.8c0,1.5,0.2,39.9-56,72.6
					C-156.3,609.7-157.1,609.9-157.7,609.9z"/>
			</g>
			<g id="XMLID_2730_">
				<path id="XMLID_2731_" class="st7" d="M-113,473.1c-1.5,0-3.1-1-3.6-2.5c-10.5-26.7-38.8-37.1-39.2-37.1
					c-1.9-0.8-3.1-2.9-2.3-4.8c0.8-1.9,2.9-3.1,4.8-2.3c1.3,0.4,31.9,11.5,43.8,41.5c0.8,1.9-0.2,4.2-2.1,5
					C-112,473.1-112.6,473.1-113,473.1z"/>
			</g>
		</g>
		<g id="XMLID_2727_">
			<path id="XMLID_2728_" class="st7" d="M-95.6,452.2c-12.4-18.7-29.8-33.8-50.2-43.6l-2.1-1.3c-26-15.1-42.2-25.8-47.4-50.1v-0.2
				c-0.6-2.3-2.5-4-5-4s-4.6,1.7-5,4v0.2c-5.2,25.6-23.1,36.5-46.8,50.6l0,0c-0.4,0.2-0.6,0.2-1,0.4c-1,0.8-1.7,1.7-1.7,3.1
				c0,2.1,1.7,3.8,3.8,3.8c0.4,0,0.8,0,1-0.2c0.4-0.2,0.6-0.4,1-0.4h0.2h0.2c22.4-13.2,40.9-24.3,48.5-47.4
				c7.8,23.1,26.4,33.8,48.5,46.8l2.3,1.3c0.2,0,0.2,0.2,0.4,0.2c40.5,19.1,65.7,58.1,65.7,101.8c0,49.7-34.2,94.2-83.3,108.5
				c-1.5,0.4-2.5,1.7-2.7,3.2l-0.2,2.3c0,0.2,0,0.2,0,0.4c0,0,0,0.4-0.4,1c-0.4,0.4-0.8,1-1.3,1.3l0,0l0,0
				c-4.4,3.6-14.7,7.3-29.4,7.3c-13.2,0-23.1-2.9-28.1-6.1l0,0c-1.1-0.8-1.9-1.7-1.9-3.4c0-0.2,0-0.4,0-0.6l-0.4-2.3
				c-0.2-1.5-1.1-2.7-2.7-3.1c-49.1-14.5-83.1-59.2-83.1-108.7c0-36.1,18-69.7,47.2-90.9c0.2-0.2,0.4-0.2,0.4-0.4
				c0.8-0.8,1.3-1.7,1.3-2.9c0-2.1-1.7-3.6-3.6-3.6c-0.8,0-1.3,0.2-1.9,0.6l-0.2,0.2c-31.3,22.5-50.4,58.5-50.4,97.1
				c0,26.6,8.6,51.6,25,72.6c15.3,19.7,36.7,34.6,60.6,42c1.9,9.7,20.3,15.1,37.4,15.1c17,0,35.2-5.2,37.4-14.7
				c0.8-0.2,1.1-0.2,1.1-0.2c24.1-7.5,45.5-22.4,60.9-42c16.4-21.2,25.2-46.2,25.2-72.8C-76.3,494.1-83,471.5-95.6,452.2z"/>
		</g>
	</g>
	<g id="Onion_Gry" class="st2">
		<g id="XMLID_2650_">
			<g id="XMLID_2657_">
				<path id="XMLID_2658_" class="st5" d="M-552,603c-50.2,0-88.3-38-88.3-88.6c0-25.2,10.5-47.6,31.3-66.7
					c10.9-9.2,22.4-14.7,31.5-19.1c12.4-5.9,19.5-9.7,20.4-16.4c0.2-2.1,2.1-3.6,4.2-3.2c2.1,0.2,3.6,2.3,3.2,4.2
					c-1.5,11.1-11.7,16-24.6,22.2c-9.2,4.4-19.7,9.6-29.8,18c-18.9,17.4-28.7,37.8-28.7,60.9c0,44.9,32.7,79.1,76.8,81v-39.4
					c-7.5-1.1-37.4-7.6-37.4-41.8c0-40.7,40.5-44.9,40.9-44.9c1.1,0,2.1,0.2,2.9,1c0.8,0.8,1.3,1.7,1.3,2.9V599
					C-548.2,601.3-549.9,603-552,603z M-555.8,477.5c-9.2,2.1-29.8,9.7-29.8,36.5c0,27.3,22.5,33.1,29.8,34.2V477.5z"/>
			</g>
			<g id="XMLID_2655_">
				<path id="XMLID_2656_" class="st5" d="M-550.7,579.1c-36.5,0-65.2-28.5-65.2-65c0-18.9,7.6-36.1,22.2-49.3
					c7.3-6.3,15.1-10.1,22-13.4c8-3.8,14.3-7.1,14.9-11.5c0.2-2.1,2.1-3.6,4.2-3.2c2.1,0.2,3.6,2.3,3.2,4.2
					c-1.1,8.6-9.6,12.6-19.1,17.4c-6.5,3.2-13.9,6.9-20.3,12.2c-13,11.8-19.7,26.6-19.7,43.6c0,32.7,24.8,57.3,57.5,57.3
					c2.1,0,3.8,1.7,3.8,3.8S-548.6,579.1-550.7,579.1z"/>
			</g>
			<g id="XMLID_2653_">
				<path id="XMLID_2654_" class="st5" d="M-507.7,609.9c-1.3,0-2.7-0.8-3.2-1.9c-1.1-1.9-0.4-4.2,1.3-5.2
					c52.2-30.4,52.2-65.5,52.2-65.7c0-2.1,1.7-3.8,3.8-3.8s3.8,1.7,3.8,3.8c0,1.5,0.2,39.9-56,72.6
					C-506.3,609.7-507.1,609.9-507.7,609.9z"/>
			</g>
			<g id="XMLID_2651_">
				<path id="XMLID_2652_" class="st5" d="M-463,473.1c-1.5,0-3.1-1-3.6-2.5c-10.5-26.7-38.8-37.1-39.2-37.1
					c-1.9-0.8-3.1-2.9-2.3-4.8c0.8-1.9,2.9-3.1,4.8-2.3c1.3,0.4,31.9,11.5,43.8,41.5c0.8,1.9-0.2,4.2-2.1,5
					C-462,473.1-462.6,473.1-463,473.1z"/>
			</g>
		</g>
		<g id="XMLID_2648_">
			<path id="XMLID_2649_" class="st5" d="M-445.6,452.2c-12.4-18.7-29.8-33.8-50.2-43.6l-2.1-1.3c-26-15.1-42.2-25.8-47.4-50.1v-0.2
				c-0.6-2.3-2.5-4-5-4c-2.5,0-4.6,1.7-5,4v0.2c-5.2,25.6-23.1,36.5-46.8,50.6l0,0c-0.4,0.2-0.6,0.2-1,0.4c-1,0.8-1.7,1.7-1.7,3.1
				c0,2.1,1.7,3.8,3.8,3.8c0.4,0,0.8,0,1-0.2c0.4-0.2,0.6-0.4,1-0.4h0.2h0.2c22.4-13.2,40.9-24.3,48.5-47.4
				c7.8,23.1,26.4,33.8,48.5,46.8l2.3,1.3c0.2,0,0.2,0.2,0.4,0.2c40.5,19.1,65.7,58.1,65.7,101.8c0,49.7-34.2,94.2-83.3,108.5
				c-1.5,0.4-2.5,1.7-2.7,3.2l-0.2,2.3c0,0.2,0,0.2,0,0.4c0,0,0,0.4-0.4,1c-0.4,0.4-0.8,1-1.3,1.3l0,0l0,0
				c-4.4,3.6-14.7,7.3-29.4,7.3c-13.2,0-23.1-2.9-28.1-6.1l0,0c-1.1-0.8-1.9-1.7-1.9-3.4c0-0.2,0-0.4,0-0.6l-0.4-2.3
				c-0.2-1.5-1.1-2.7-2.7-3.1c-49.1-14.5-83.1-59.2-83.1-108.7c0-36.1,18-69.7,47.2-90.9c0.2-0.2,0.4-0.2,0.4-0.4
				c0.8-0.8,1.3-1.7,1.3-2.9c0-2.1-1.7-3.6-3.6-3.6c-0.8,0-1.3,0.2-1.9,0.6l-0.2,0.2c-31.3,22.5-50.4,58.5-50.4,97.1
				c0,26.6,8.6,51.6,25,72.6c15.3,19.7,36.7,34.6,60.6,42c1.9,9.7,20.3,15.1,37.4,15.1c17,0,35.2-5.2,37.4-14.7
				c0.8-0.2,1.1-0.2,1.1-0.2c24.1-7.5,45.5-22.4,60.9-42c16.4-21.2,25.2-46.2,25.2-72.8C-426.3,494.1-433,471.5-445.6,452.2z"/>
		</g>
	</g>
	<g id="Onion_Blk" class="st2">
		<g id="XMLID_2886_">
			<g id="XMLID_2893_">
				<path id="XMLID_2894_" class="st3" d="M-902,603c-50.2,0-88.3-38-88.3-88.6c0-25.2,10.5-47.6,31.3-66.7
					c10.9-9.2,22.4-14.7,31.5-19.1c12.4-5.9,19.5-9.7,20.4-16.4c0.2-2.1,2.1-3.6,4.2-3.2c2.1,0.2,3.6,2.3,3.2,4.2
					c-1.5,11.1-11.7,16-24.6,22.2c-9.2,4.4-19.7,9.6-29.8,18c-18.9,17.4-28.7,37.8-28.7,60.9c0,44.9,32.7,79.1,76.8,81v-39.4
					c-7.5-1.1-37.4-7.6-37.4-41.8c0-40.7,40.5-44.9,40.9-44.9c1.1,0,2.1,0.2,2.9,1c0.8,0.8,1.3,1.7,1.3,2.9V599
					C-898.2,601.3-899.9,603-902,603z M-905.8,477.5c-9.2,2.1-29.8,9.7-29.8,36.5c0,27.3,22.5,33.1,29.8,34.2V477.5z"/>
			</g>
			<g id="XMLID_2891_">
				<path id="XMLID_2892_" class="st3" d="M-900.7,579.1c-36.5,0-65.2-28.5-65.2-65c0-18.9,7.6-36.1,22.2-49.3
					c7.3-6.3,15.1-10.1,22-13.4c8-3.8,14.3-7.1,14.9-11.5c0.2-2.1,2.1-3.6,4.2-3.2c2.1,0.2,3.6,2.3,3.2,4.2
					c-1.1,8.6-9.6,12.6-19.1,17.4c-6.5,3.2-13.9,6.9-20.3,12.2c-13,11.8-19.7,26.6-19.7,43.6c0,32.7,24.8,57.3,57.5,57.3
					c2.1,0,3.8,1.7,3.8,3.8S-898.6,579.1-900.7,579.1z"/>
			</g>
			<g id="XMLID_2889_">
				<path id="XMLID_2890_" class="st3" d="M-857.7,609.9c-1.3,0-2.7-0.8-3.2-1.9c-1.1-1.9-0.4-4.2,1.3-5.2
					c52.2-30.4,52.2-65.5,52.2-65.7c0-2.1,1.7-3.8,3.8-3.8s3.8,1.7,3.8,3.8c0,1.5,0.2,39.9-56,72.6
					C-856.3,609.7-857.1,609.9-857.7,609.9z"/>
			</g>
			<g id="XMLID_2887_">
				<path id="XMLID_2888_" class="st3" d="M-813,473.1c-1.5,0-3.1-1-3.6-2.5c-10.5-26.7-38.8-37.1-39.2-37.1
					c-1.9-0.8-3.1-2.9-2.3-4.8c0.8-1.9,2.9-3.1,4.8-2.3c1.3,0.4,31.9,11.5,43.8,41.5c0.8,1.9-0.2,4.2-2.1,5
					C-812,473.1-812.6,473.1-813,473.1z"/>
			</g>
		</g>
		<g id="XMLID_2884_">
			<path id="XMLID_2885_" class="st3" d="M-795.6,452.2c-12.4-18.7-29.8-33.8-50.2-43.6l-2.1-1.3c-26-15.1-42.2-25.8-47.4-50.1v-0.2
				c-0.6-2.3-2.5-4-5-4c-2.5,0-4.6,1.7-5,4v0.2c-5.2,25.6-23.1,36.5-46.8,50.6l0,0c-0.4,0.2-0.6,0.2-1,0.4c-1,0.8-1.7,1.7-1.7,3.1
				c0,2.1,1.7,3.8,3.8,3.8c0.4,0,0.8,0,1-0.2c0.4-0.2,0.6-0.4,1-0.4h0.2h0.2c22.4-13.2,40.9-24.3,48.5-47.4
				c7.8,23.1,26.4,33.8,48.5,46.8l2.3,1.3c0.2,0,0.2,0.2,0.4,0.2c40.5,19.1,65.7,58.1,65.7,101.8c0,49.7-34.2,94.2-83.3,108.5
				c-1.5,0.4-2.5,1.7-2.7,3.2l-0.2,2.3c0,0.2,0,0.2,0,0.4c0,0,0,0.4-0.4,1c-0.4,0.4-0.8,1-1.3,1.3l0,0l0,0
				c-4.4,3.6-14.7,7.3-29.4,7.3c-13.2,0-23.1-2.9-28.1-6.1l0,0c-1.1-0.8-1.9-1.7-1.9-3.4c0-0.2,0-0.4,0-0.6l-0.4-2.3
				c-0.2-1.5-1.1-2.7-2.7-3.1c-49.1-14.5-83.1-59.2-83.1-108.7c0-36.1,18-69.7,47.2-90.9c0.2-0.2,0.4-0.2,0.4-0.4
				c0.8-0.8,1.3-1.7,1.3-2.9c0-2.1-1.7-3.6-3.6-3.6c-0.8,0-1.3,0.2-1.9,0.6l-0.2,0.2c-31.3,22.5-50.4,58.5-50.4,97.1
				c0,26.6,8.6,51.6,25,72.6c15.3,19.7,36.7,34.6,60.6,42c1.9,9.7,20.3,15.1,37.4,15.1c17,0,35.2-5.2,37.4-14.7
				c0.8-0.2,1.1-0.2,1.1-0.2c24.1-7.5,45.5-22.4,60.9-42c16.4-21.2,25.2-46.2,25.2-72.8C-776.3,494.1-783,471.5-795.6,452.2z"/>
		</g>
	</g>
</g>
<g id="Cookbook" class="st0">
	<g id="Cookbook_Blk" class="st2">
		<g id="XMLID_53_">
			<g id="XMLID_8_">
				<polyline id="XMLID_10_" class="st10" points="-941.3,954.4 -941.3,991.6 -941.3,991.6 -916.3,966.6 				"/>
				<polyline id="XMLID_9_" class="st10" points="-891.3,954.4 -891.3,991.6 -891.3,991.6 -916.3,966.6 				"/>
			</g>
			<g id="XMLID_7_">
				<path id="XMLID_184_" class="st11" d="M-812.4,954h-161.4c-6.6,0-12-5.4-12-12V723.6c0-6.6,5.4-12,12-12h156.5h4.9
					c6.6,0,12,5.4,12,12V942C-800.4,948.6-805.8,954-812.4,954z"/>
				<line id="XMLID_11_" class="st10" x1="-941.3" y1="711.6" x2="-941.3" y2="954"/>
				<g id="XMLID_36_">
					<g id="XMLID_215_">
						<path id="XMLID_216_" class="st3" d="M-974,737.2h-23.2c-1.3,0-2.4-1.6-2.4-3.5s1.1-3.5,2.4-3.5h23.2c1.3,0,2.4,1.6,2.4,3.5
							S-972.7,737.2-974,737.2z"/>
					</g>
					<path id="XMLID_324_" class="st3" d="M-974,765.5h-23.2c-1.3,0-2.4-1.6-2.4-3.5s1.1-3.5,2.4-3.5h23.2c1.3,0,2.4,1.6,2.4,3.5
						S-972.7,765.5-974,765.5z"/>
					<path id="XMLID_323_" class="st3" d="M-974,793.8h-23.2c-1.3,0-2.4-1.6-2.4-3.5c0-1.9,1.1-3.5,2.4-3.5h23.2
						c1.3,0,2.4,1.6,2.4,3.5C-971.7,792.2-972.7,793.8-974,793.8z"/>
					<path id="XMLID_322_" class="st3" d="M-974,822.1h-23.2c-1.3,0-2.4-1.6-2.4-3.5c0-1.9,1.1-3.5,2.4-3.5h23.2
						c1.3,0,2.4,1.6,2.4,3.5C-971.7,820.5-972.7,822.1-974,822.1z"/>
					<path id="XMLID_321_" class="st3" d="M-974,850.4h-23.2c-1.3,0-2.4-1.6-2.4-3.5c0-1.9,1.1-3.5,2.4-3.5h23.2
						c1.3,0,2.4,1.6,2.4,3.5C-971.7,848.8-972.7,850.4-974,850.4z"/>
					<path id="XMLID_218_" class="st3" d="M-974,878.7h-23.2c-1.3,0-2.4-1.6-2.4-3.5c0-1.9,1.1-3.5,2.4-3.5h23.2
						c1.3,0,2.4,1.6,2.4,3.5C-971.7,877.1-972.7,878.7-974,878.7z"/>
					<path id="XMLID_217_" class="st3" d="M-974,906.9h-23.2c-1.3,0-2.4-1.6-2.4-3.5s1.1-3.5,2.4-3.5h23.2c1.3,0,2.4,1.6,2.4,3.5
						S-972.7,906.9-974,906.9z"/>
					<g id="XMLID_213_">
						<path id="XMLID_214_" class="st3" d="M-974,935.2h-23.2c-1.3,0-2.4-1.6-2.4-3.5s1.1-3.5,2.4-3.5h23.2c1.3,0,2.4,1.6,2.4,3.5
							S-972.7,935.2-974,935.2z"/>
					</g>
				</g>
			</g>
			<g id="XMLID_37_">
				<g id="XMLID_38_">
					<path id="XMLID_39_" class="st10" d="M-884.1,799.4c3.4-2.4,7.5-3.8,12-3.8c4.5,0,8.6,1.4,12,3.8c5.4,3.8,8.9,10.1,8.9,17.1
						c0,7.1-3.5,13.4-8.9,17.1c-3.4,2.4-7.5,3.8-12,3.8c-4.6,0-8.8-1.5-12.3-4"/>
					<path id="XMLID_40_" class="st10" d="M-884.1,833.7c-3.4,2.4-7.5,3.8-12,3.8c-11.5,0-20.9-9.4-20.9-20.9
						c0-11.5,9.4-20.9,20.9-20.9c4.5,0,8.6,1.4,12,3.8"/>
					<path id="XMLID_41_" class="st10" d="M-860.1,799.4c3.4-2.4,7.5-3.8,12-3.8c11.5,0,20.9,9.4,20.9,20.9
						c0,11.5-9.4,20.9-20.9,20.9c-4.5,0-8.6-1.4-12-3.8"/>
					<path id="XMLID_45_" class="st10" d="M-890,811.3c-1.9,3.9-1.9,7.7,0,11.6"/>
				</g>
				<path id="XMLID_46_" class="st10" d="M-844.4,837.2v22.1c0,5.9-4.8,10.6-10.6,10.6h-35.3c-5.9,0-10.6-4.8-10.6-10.6v-22.1"/>
			</g>
		</g>
		<line id="XMLID_82_" class="st10" x1="-898.6" y1="857.2" x2="-846.3" y2="857.2"/>
	</g>
	<g id="Cookbook_Gry" class="st2">
		<g id="XMLID_192_">
			<g id="XMLID_221_">
				<polyline id="XMLID_223_" class="st12" points="-591.3,954.4 -591.3,991.6 -591.3,991.6 -566.3,966.6 				"/>
				<polyline id="XMLID_222_" class="st12" points="-541.3,954.4 -541.3,991.6 -541.3,991.6 -566.3,966.6 				"/>
			</g>
			<g id="XMLID_200_">
				<path id="XMLID_220_" class="st13" d="M-462.4,954h-161.4c-6.6,0-12-5.4-12-12V723.6c0-6.6,5.4-12,12-12h156.5h4.9
					c6.6,0,12,5.4,12,12V942C-450.4,948.6-455.8,954-462.4,954z"/>
				<line id="XMLID_219_" class="st12" x1="-591.3" y1="711.6" x2="-591.3" y2="954"/>
				<g id="XMLID_201_">
					<g id="XMLID_164_">
						<path id="XMLID_165_" class="st5" d="M-624,737.2h-23.2c-1.3,0-2.4-1.6-2.4-3.5s1.1-3.5,2.4-3.5h23.2c1.3,0,2.4,1.6,2.4,3.5
							S-622.7,737.2-624,737.2z"/>
					</g>
					<path id="XMLID_212_" class="st5" d="M-624,765.5h-23.2c-1.3,0-2.4-1.6-2.4-3.5s1.1-3.5,2.4-3.5h23.2c1.3,0,2.4,1.6,2.4,3.5
						S-622.7,765.5-624,765.5z"/>
					<path id="XMLID_211_" class="st5" d="M-624,793.8h-23.2c-1.3,0-2.4-1.6-2.4-3.5c0-1.9,1.1-3.5,2.4-3.5h23.2
						c1.3,0,2.4,1.6,2.4,3.5C-621.7,792.2-622.7,793.8-624,793.8z"/>
					<path id="XMLID_210_" class="st5" d="M-624,822.1h-23.2c-1.3,0-2.4-1.6-2.4-3.5c0-1.9,1.1-3.5,2.4-3.5h23.2
						c1.3,0,2.4,1.6,2.4,3.5C-621.7,820.5-622.7,822.1-624,822.1z"/>
					<path id="XMLID_209_" class="st5" d="M-624,850.4h-23.2c-1.3,0-2.4-1.6-2.4-3.5c0-1.9,1.1-3.5,2.4-3.5h23.2
						c1.3,0,2.4,1.6,2.4,3.5C-621.7,848.8-622.7,850.4-624,850.4z"/>
					<path id="XMLID_167_" class="st5" d="M-624,878.7h-23.2c-1.3,0-2.4-1.6-2.4-3.5c0-1.9,1.1-3.5,2.4-3.5h23.2
						c1.3,0,2.4,1.6,2.4,3.5C-621.7,877.1-622.7,878.7-624,878.7z"/>
					<path id="XMLID_166_" class="st5" d="M-624,906.9h-23.2c-1.3,0-2.4-1.6-2.4-3.5s1.1-3.5,2.4-3.5h23.2c1.3,0,2.4,1.6,2.4,3.5
						S-622.7,906.9-624,906.9z"/>
					<g id="XMLID_127_">
						<path id="XMLID_128_" class="st5" d="M-624,935.2h-23.2c-1.3,0-2.4-1.6-2.4-3.5s1.1-3.5,2.4-3.5h23.2c1.3,0,2.4,1.6,2.4,3.5
							S-622.7,935.2-624,935.2z"/>
					</g>
				</g>
			</g>
			<g id="XMLID_193_">
				<g id="XMLID_195_">
					<path id="XMLID_199_" class="st12" d="M-534.1,799.4c3.4-2.4,7.5-3.8,12-3.8c4.5,0,8.6,1.4,12,3.8c5.4,3.8,8.9,10.1,8.9,17.1
						c0,7.1-3.5,13.4-8.9,17.1c-3.4,2.4-7.5,3.8-12,3.8c-4.6,0-8.8-1.5-12.3-4"/>
					<path id="XMLID_198_" class="st12" d="M-534.1,833.7c-3.4,2.4-7.5,3.8-12,3.8c-11.5,0-20.9-9.4-20.9-20.9
						c0-11.5,9.4-20.9,20.9-20.9c4.5,0,8.6,1.4,12,3.8"/>
					<path id="XMLID_197_" class="st12" d="M-510.1,799.4c3.4-2.4,7.5-3.8,12-3.8c11.5,0,20.9,9.4,20.9,20.9
						c0,11.5-9.4,20.9-20.9,20.9c-4.5,0-8.6-1.4-12-3.8"/>
					<path id="XMLID_196_" class="st12" d="M-540,811.3c-1.9,3.9-1.9,7.7,0,11.6"/>
				</g>
				<path id="XMLID_194_" class="st12" d="M-494.4,837.2v22.1c0,5.9-4.8,10.6-10.6,10.6h-35.3c-5.9,0-10.6-4.8-10.6-10.6v-22.1"/>
			</g>
		</g>
		<line id="XMLID_191_" class="st12" x1="-548.6" y1="857.2" x2="-496.3" y2="857.2"/>
	</g>
	<g id="Cookbook_Wht" class="st2">
		<g id="XMLID_304_">
			<g id="XMLID_333_">
				<polyline id="XMLID_335_" class="st14" points="-241.3,954.4 -241.3,991.6 -241.3,991.6 -216.3,966.6 				"/>
				<polyline id="XMLID_334_" class="st14" points="-191.3,954.4 -191.3,991.6 -191.3,991.6 -216.3,966.6 				"/>
			</g>
			<g id="XMLID_312_">
				<path id="XMLID_332_" class="st15" d="M-112.4,954h-161.4c-6.6,0-12-5.4-12-12V723.6c0-6.6,5.4-12,12-12h156.5h4.9
					c6.6,0,12,5.4,12,12V942C-100.4,948.6-105.8,954-112.4,954z"/>
				<line id="XMLID_331_" class="st14" x1="-241.3" y1="711.6" x2="-241.3" y2="954"/>
				<g id="XMLID_313_">
					<g id="XMLID_71_">
						<path id="XMLID_72_" class="st7" d="M-274,737.2h-23.2c-1.3,0-2.4-1.6-2.4-3.5s1.1-3.5,2.4-3.5h23.2c1.3,0,2.4,1.6,2.4,3.5
							S-272.7,737.2-274,737.2z"/>
					</g>
					<path id="XMLID_126_" class="st7" d="M-274,765.5h-23.2c-1.3,0-2.4-1.6-2.4-3.5s1.1-3.5,2.4-3.5h23.2c1.3,0,2.4,1.6,2.4,3.5
						S-272.7,765.5-274,765.5z"/>
					<path id="XMLID_125_" class="st7" d="M-274,793.8h-23.2c-1.3,0-2.4-1.6-2.4-3.5c0-1.9,1.1-3.5,2.4-3.5h23.2
						c1.3,0,2.4,1.6,2.4,3.5C-271.7,792.2-272.7,793.8-274,793.8z"/>
					<path id="XMLID_99_" class="st7" d="M-274,822.1h-23.2c-1.3,0-2.4-1.6-2.4-3.5c0-1.9,1.1-3.5,2.4-3.5h23.2
						c1.3,0,2.4,1.6,2.4,3.5C-271.7,820.5-272.7,822.1-274,822.1z"/>
					<path id="XMLID_98_" class="st7" d="M-274,850.4h-23.2c-1.3,0-2.4-1.6-2.4-3.5c0-1.9,1.1-3.5,2.4-3.5h23.2
						c1.3,0,2.4,1.6,2.4,3.5C-271.7,848.8-272.7,850.4-274,850.4z"/>
					<path id="XMLID_97_" class="st7" d="M-274,878.7h-23.2c-1.3,0-2.4-1.6-2.4-3.5c0-1.9,1.1-3.5,2.4-3.5h23.2
						c1.3,0,2.4,1.6,2.4,3.5C-271.7,877.1-272.7,878.7-274,878.7z"/>
					<path id="XMLID_96_" class="st7" d="M-274,906.9h-23.2c-1.3,0-2.4-1.6-2.4-3.5s1.1-3.5,2.4-3.5h23.2c1.3,0,2.4,1.6,2.4,3.5
						S-272.7,906.9-274,906.9z"/>
					<g id="XMLID_66_">
						<path id="XMLID_70_" class="st7" d="M-274,935.2h-23.2c-1.3,0-2.4-1.6-2.4-3.5s1.1-3.5,2.4-3.5h23.2c1.3,0,2.4,1.6,2.4,3.5
							S-272.7,935.2-274,935.2z"/>
					</g>
				</g>
			</g>
			<g id="XMLID_305_">
				<g id="XMLID_307_">
					<path id="XMLID_311_" class="st14" d="M-184.1,799.4c3.4-2.4,7.5-3.8,12-3.8c4.5,0,8.6,1.4,12,3.8c5.4,3.8,8.9,10.1,8.9,17.1
						c0,7.1-3.5,13.4-8.9,17.1c-3.4,2.4-7.5,3.8-12,3.8c-4.6,0-8.8-1.5-12.3-4"/>
					<path id="XMLID_310_" class="st14" d="M-184.1,833.7c-3.4,2.4-7.5,3.8-12,3.8c-11.5,0-20.9-9.4-20.9-20.9
						c0-11.5,9.4-20.9,20.9-20.9c4.5,0,8.6,1.4,12,3.8"/>
					<path id="XMLID_309_" class="st14" d="M-160.1,799.4c3.4-2.4,7.5-3.8,12-3.8c11.5,0,20.9,9.4,20.9,20.9
						c0,11.5-9.4,20.9-20.9,20.9c-4.5,0-8.6-1.4-12-3.8"/>
					<path id="XMLID_308_" class="st14" d="M-190,811.3c-1.9,3.9-1.9,7.7,0,11.6"/>
				</g>
				<path id="XMLID_306_" class="st14" d="M-144.4,837.2v22.1c0,5.9-4.8,10.6-10.6,10.6h-35.3c-5.9,0-10.6-4.8-10.6-10.6v-22.1"/>
			</g>
		</g>
		<line id="XMLID_303_" class="st14" x1="-198.6" y1="857.2" x2="-146.3" y2="857.2"/>
	</g>
	<g id="Cookbook_Red" class="st2">
		<g id="XMLID_862_">
			<g id="XMLID_891_">
				<polyline id="XMLID_893_" class="st16" points="108.7,954.4 108.7,991.6 108.7,991.6 133.7,966.6 				"/>
				<polyline id="XMLID_892_" class="st16" points="158.7,954.4 158.7,991.6 158.7,991.6 133.7,966.6 				"/>
			</g>
			<g id="XMLID_870_">
				<path id="XMLID_890_" class="st8" d="M237.6,954H76.2c-6.6,0-12-5.4-12-12V723.6c0-6.6,5.4-12,12-12h156.5h4.9
					c6.6,0,12,5.4,12,12V942C249.6,948.6,244.2,954,237.6,954z"/>
				<line id="XMLID_889_" class="st16" x1="108.7" y1="711.6" x2="108.7" y2="954"/>
				<g id="XMLID_871_">
					<g id="XMLID_26_">
						<path id="XMLID_27_" class="st9" d="M76,737.2H52.8c-1.3,0-2.4-1.6-2.4-3.5s1.1-3.5,2.4-3.5H76c1.3,0,2.4,1.6,2.4,3.5
							S77.3,737.2,76,737.2z"/>
					</g>
					<path id="XMLID_35_" class="st9" d="M76,765.5H52.8c-1.3,0-2.4-1.6-2.4-3.5s1.1-3.5,2.4-3.5H76c1.3,0,2.4,1.6,2.4,3.5
						S77.3,765.5,76,765.5z"/>
					<path id="XMLID_32_" class="st9" d="M76,793.8H52.8c-1.3,0-2.4-1.6-2.4-3.5c0-1.9,1.1-3.5,2.4-3.5H76c1.3,0,2.4,1.6,2.4,3.5
						C78.3,792.2,77.3,793.8,76,793.8z"/>
					<path id="XMLID_31_" class="st9" d="M76,822.1H52.8c-1.3,0-2.4-1.6-2.4-3.5c0-1.9,1.1-3.5,2.4-3.5H76c1.3,0,2.4,1.6,2.4,3.5
						C78.3,820.5,77.3,822.1,76,822.1z"/>
					<path id="XMLID_30_" class="st9" d="M76,850.4H52.8c-1.3,0-2.4-1.6-2.4-3.5c0-1.9,1.1-3.5,2.4-3.5H76c1.3,0,2.4,1.6,2.4,3.5
						C78.3,848.8,77.3,850.4,76,850.4z"/>
					<path id="XMLID_29_" class="st9" d="M76,878.7H52.8c-1.3,0-2.4-1.6-2.4-3.5c0-1.9,1.1-3.5,2.4-3.5H76c1.3,0,2.4,1.6,2.4,3.5
						C78.3,877.1,77.3,878.7,76,878.7z"/>
					<path id="XMLID_28_" class="st9" d="M76,906.9H52.8c-1.3,0-2.4-1.6-2.4-3.5s1.1-3.5,2.4-3.5H76c1.3,0,2.4,1.6,2.4,3.5
						S77.3,906.9,76,906.9z"/>
					<g id="XMLID_21_">
						<path id="XMLID_25_" class="st9" d="M76,935.2H52.8c-1.3,0-2.4-1.6-2.4-3.5s1.1-3.5,2.4-3.5H76c1.3,0,2.4,1.6,2.4,3.5
							S77.3,935.2,76,935.2z"/>
					</g>
				</g>
			</g>
			<g id="XMLID_863_">
				<g id="XMLID_865_">
					<path id="XMLID_869_" class="st16" d="M165.9,799.4c3.4-2.4,7.5-3.8,12-3.8c4.5,0,8.6,1.4,12,3.8c5.4,3.8,8.9,10.1,8.9,17.1
						c0,7.1-3.5,13.4-8.9,17.1c-3.4,2.4-7.5,3.8-12,3.8c-4.6,0-8.8-1.5-12.3-4"/>
					<path id="XMLID_868_" class="st16" d="M165.9,833.7c-3.4,2.4-7.5,3.8-12,3.8c-11.5,0-20.9-9.4-20.9-20.9
						c0-11.5,9.4-20.9,20.9-20.9c4.5,0,8.6,1.4,12,3.8"/>
					<path id="XMLID_867_" class="st16" d="M189.9,799.4c3.4-2.4,7.5-3.8,12-3.8c11.5,0,20.9,9.4,20.9,20.9
						c0,11.5-9.4,20.9-20.9,20.9c-4.5,0-8.6-1.4-12-3.8"/>
					<path id="XMLID_866_" class="st16" d="M160,811.3c-1.9,3.9-1.9,7.7,0,11.6"/>
				</g>
				<path id="XMLID_864_" class="st16" d="M205.6,837.2v22.1c0,5.9-4.8,10.6-10.6,10.6h-35.3c-5.9,0-10.6-4.8-10.6-10.6v-22.1"/>
			</g>
		</g>
		<line id="XMLID_861_" class="st16" x1="151.4" y1="857.2" x2="203.7" y2="857.2"/>
	</g>
</g>
<g id="Meat_1_" class="st0">
	<g id="Meat_Blk" class="st2">
		<g id="XMLID_161_">
			<path id="XMLID_3064_" class="st3" d="M-943.5,1229.1l-6,26.3l26.1-6.3l-7.3,7.8l-46.3,49.1c1.4,2.4,2.2,5.1,2.2,8
				c0.3,9.5-7.2,17.4-16.7,17.7c-0.3,0-0.6,0-0.9,0c-7.8,0-14.3-3.2-16.3-13.1c-7.8-2.2-12.4-8.3-12.6-16.1
				c-0.3-9.5,7.2-17.4,16.7-17.7c0.2,0,0.4,0,0.7,0c1.9,0,4.7,0.2,6.2,0.6l45.8-48.6L-943.5,1229.1 M-943.5,1222.1
				c-1.7,0-3.4,0.6-4.7,1.8l-8.5,7.8c-0.1,0.1-0.3,0.2-0.4,0.4l-43.3,45.9c-1.7-0.1-3.1-0.2-3.6-0.2c-0.3,0-0.6,0-0.9,0
				c-13.3,0.4-23.9,11.6-23.5,24.9c0.3,9.6,5.5,17.4,13.8,21.2c3.3,9.6,11,14.8,22.1,14.8c0.4,0,0.7,0,1.1,0
				c6.5-0.2,12.5-2.9,16.9-7.6c4.4-4.7,6.8-10.9,6.6-17.3c-0.1-2.1-0.4-4.3-1-6.3l43.1-45.8l7.3-7.8c2.1-2.3,2.5-5.6,1-8.3
				c-1.3-2.2-3.6-3.5-6.1-3.5c-0.5,0-1.1,0.1-1.6,0.2l-15.1,3.6l3.5-15.3c0.7-3-0.6-6.1-3.3-7.6
				C-941.1,1222.4-942.3,1222.1-943.5,1222.1L-943.5,1222.1z"/>
		</g>
		<path id="XMLID_162_" class="st10" d="M-989.3,1298.9c0,0-9.8,0.3-13.1,6.7"/>
		<path id="XMLID_163_" class="st10" d="M-955.1,1234.6c-8-37.2,22.7-103.4,50.5-133c33.3-35.3,84.2-41.4,113.8-13.5
			c29.6,27.9,26.6,79.1-6.6,114.4c-28.5,30.2-95,65.7-132.2,57.9"/>
		<circle id="XMLID_54_" class="st3" cx="-892.9" cy="1237.4" r="3.7"/>
		<circle id="XMLID_55_" class="st3" cx="-849.3" cy="1111.4" r="3.7"/>
		<circle id="XMLID_56_" class="st3" cx="-867.3" cy="1116" r="3.7"/>
		<circle id="XMLID_57_" class="st3" cx="-868.6" cy="1137.8" r="3.7"/>
	</g>
	<g id="Meat_Gry_1_" class="st2">
		<g id="XMLID_256_">
			<path id="XMLID_3060_" class="st5" d="M-593.5,1229.1l-6,26.3l26.1-6.3l-7.3,7.8l-46.3,49.1c1.4,2.4,2.2,5.1,2.2,8
				c0.3,9.5-7.2,17.4-16.7,17.7c-0.3,0-0.6,0-0.9,0c-7.8,0-14.3-3.2-16.3-13.1c-7.8-2.2-12.4-8.3-12.6-16.1
				c-0.3-9.5,7.2-17.4,16.7-17.7c0.2,0,0.4,0,0.7,0c1.9,0,4.7,0.2,6.2,0.6l45.8-48.6L-593.5,1229.1 M-593.5,1222.1
				c-1.7,0-3.4,0.6-4.7,1.8l-8.5,7.8c-0.1,0.1-0.3,0.2-0.4,0.4l-43.3,45.9c-1.7-0.1-3.1-0.2-3.6-0.2c-0.3,0-0.6,0-0.9,0
				c-6.5,0.2-12.5,2.9-16.9,7.6s-6.8,10.9-6.6,17.3c0.3,9.6,5.5,17.4,13.8,21.2c3.3,9.6,11,14.8,22.1,14.8c0.4,0,0.7,0,1.1,0
				c6.5-0.2,12.5-2.9,16.9-7.6c4.4-4.7,6.8-10.9,6.6-17.3c-0.1-2.1-0.4-4.3-1-6.3l43.1-45.8l7.3-7.8c2.1-2.3,2.5-5.6,1-8.3
				c-1.3-2.2-3.6-3.5-6.1-3.5c-0.5,0-1.1,0.1-1.6,0.2l-15.1,3.6l3.5-15.3c0.7-3-0.6-6.1-3.3-7.6
				C-591.1,1222.4-592.3,1222.1-593.5,1222.1L-593.5,1222.1z"/>
		</g>
		<path id="XMLID_255_" class="st12" d="M-639.3,1298.9c0,0-9.8,0.3-13.1,6.7"/>
		<path id="XMLID_254_" class="st12" d="M-605.1,1234.6c-8-37.2,22.7-103.4,50.5-133c33.3-35.3,84.2-41.4,113.8-13.5
			c29.6,27.9,26.6,79.1-6.6,114.4c-28.5,30.2-95,65.7-132.2,57.9"/>
		<circle id="XMLID_253_" class="st5" cx="-542.9" cy="1237.4" r="3.7"/>
		<circle id="XMLID_252_" class="st5" cx="-499.3" cy="1111.4" r="3.7"/>
		<circle id="XMLID_251_" class="st5" cx="-517.3" cy="1116" r="3.7"/>
		<circle id="XMLID_250_" class="st5" cx="-518.6" cy="1137.8" r="3.7"/>
	</g>
	<g id="Meat_Wht" class="st2">
		<g id="XMLID_368_">
			<path id="XMLID_3056_" class="st7" d="M-243.5,1229.1l-6,26.3l26.1-6.3l-7.3,7.8l-46.3,49.1c1.4,2.4,2.2,5.1,2.2,8
				c0.3,9.5-7.2,17.4-16.7,17.7c-0.3,0-0.6,0-0.9,0c-7.8,0-14.3-3.2-16.3-13.1c-7.8-2.2-12.4-8.3-12.6-16.1
				c-0.3-9.5,7.2-17.4,16.7-17.7c0.2,0,0.4,0,0.7,0c1.9,0,4.7,0.2,6.2,0.6l45.8-48.6L-243.5,1229.1 M-243.5,1222.1
				c-1.7,0-3.4,0.6-4.7,1.8l-8.5,7.8c-0.1,0.1-0.3,0.2-0.4,0.4l-43.3,45.9c-1.7-0.1-3.1-0.2-3.6-0.2c-0.3,0-0.6,0-0.9,0
				c-6.5,0.2-12.5,2.9-16.9,7.6c-4.4,4.7-6.8,10.9-6.6,17.3c0.3,9.6,5.5,17.4,13.8,21.2c3.3,9.6,11,14.8,22.1,14.8
				c0.4,0,0.7,0,1.1,0c6.5-0.2,12.5-2.9,16.9-7.6c4.4-4.7,6.8-10.9,6.6-17.3c-0.1-2.1-0.4-4.3-1-6.3l43.1-45.8l7.3-7.8
				c2.1-2.3,2.5-5.6,1-8.3c-1.3-2.2-3.6-3.5-6.1-3.5c-0.5,0-1.1,0.1-1.6,0.2l-15.1,3.6l3.5-15.3c0.7-3-0.6-6.1-3.3-7.6
				C-241.1,1222.4-242.3,1222.1-243.5,1222.1L-243.5,1222.1z"/>
		</g>
		<path id="XMLID_367_" class="st14" d="M-289.3,1298.9c0,0-9.8,0.3-13.1,6.7"/>
		<path id="XMLID_366_" class="st14" d="M-255.1,1234.6c-8-37.2,22.7-103.4,50.5-133c33.3-35.3,84.2-41.4,113.8-13.5
			c29.6,27.9,26.6,79.1-6.6,114.4c-28.5,30.2-95,65.7-132.2,57.9"/>
		<circle id="XMLID_365_" class="st7" cx="-192.9" cy="1237.4" r="3.7"/>
		<circle id="XMLID_364_" class="st7" cx="-149.3" cy="1111.4" r="3.7"/>
		<circle id="XMLID_363_" class="st7" cx="-167.3" cy="1116" r="3.7"/>
		<circle id="XMLID_362_" class="st7" cx="-168.6" cy="1137.8" r="3.7"/>
	</g>
	<g id="Meat_Red" class="st2">
		<g id="XMLID_926_">
			<path id="XMLID_2984_" class="st9" d="M106.5,1229.1l-6,26.3l26.1-6.3l-7.3,7.8L72.9,1306c1.4,2.4,2.2,5.1,2.2,8
				c0.3,9.5-7.2,17.4-16.7,17.7c-0.3,0-0.6,0-0.9,0c-7.8,0-14.3-3.2-16.3-13.1c-7.8-2.2-12.4-8.3-12.6-16.1
				c-0.3-9.5,7.2-17.4,16.7-17.7c0.2,0,0.4,0,0.7,0c1.9,0,4.7,0.2,6.2,0.6l45.8-48.6L106.5,1229.1 M106.5,1222.1
				c-1.7,0-3.4,0.6-4.7,1.8l-8.5,7.8c-0.1,0.1-0.3,0.2-0.4,0.4L49.6,1278c-1.7-0.1-3.1-0.2-3.6-0.2c-0.3,0-0.6,0-0.9,0
				c-6.5,0.2-12.5,2.9-16.9,7.6s-6.8,10.9-6.6,17.3c0.3,9.6,5.5,17.4,13.8,21.2c3.3,9.6,11,14.8,22.1,14.8c0.4,0,0.7,0,1.1,0
				c6.5-0.2,12.5-2.9,16.9-7.6c4.4-4.7,6.8-10.9,6.6-17.3c-0.1-2.1-0.4-4.3-1-6.3l43.1-45.8l7.3-7.8c2.1-2.3,2.5-5.6,1-8.3
				c-1.3-2.2-3.6-3.5-6.1-3.5c-0.5,0-1.1,0.1-1.6,0.2l-15.1,3.6l3.5-15.3c0.7-3-0.6-6.1-3.3-7.6
				C108.9,1222.4,107.7,1222.1,106.5,1222.1L106.5,1222.1z"/>
		</g>
		<path id="XMLID_925_" class="st16" d="M60.7,1298.9c0,0-9.8,0.3-13.1,6.7"/>
		<path id="XMLID_924_" class="st16" d="M94.9,1234.6c-8-37.2,22.7-103.4,50.5-133c33.3-35.3,84.2-41.4,113.8-13.5
			c29.6,27.9,26.6,79.1-6.6,114.4c-28.5,30.2-95,65.7-132.2,57.9"/>
		<g id="XMLID_2936_">
			<circle id="XMLID_923_" class="st9" cx="157.1" cy="1237.4" r="3.7"/>
			<circle id="XMLID_922_" class="st9" cx="200.7" cy="1111.4" r="3.7"/>
			<circle id="XMLID_921_" class="st9" cx="182.7" cy="1116" r="3.7"/>
			<circle id="XMLID_920_" class="st9" cx="181.4" cy="1137.8" r="3.7"/>
		</g>
	</g>
</g>
<g id="Clock_1_" class="st0">
	<g id="Clock_Blk" class="st2">
		<circle id="XMLID_77_" class="st10" cx="500" cy="855" r="138.3"/>
		<polyline id="XMLID_123_" class="st10" points="500,736.5 500,855 430.5,893 		"/>
	</g>
</g>
<g id="Heart_1_" class="st0">
	<g id="Heart" class="st2">
		<path id="XMLID_78_" class="st16" d="M618.3,43.7L618.3,43.7c-26.2-30.8-69.2-30.8-95.4,0L501,69.4l-21.9-25.7
			c-26.2-30.8-69.2-30.8-95.4,0l0,0c-26.2,30.8-26.2,71,0,101.8l117.2,137.4l0,0.3l117.4-137.7C644.6,114.7,644.6,74.5,618.3,43.7z"
			/>
		<path id="XMLID_58_" class="st16" d="M558,38.3c38.1-11.9,71.1,28.1,63.9,66.5"/>
	</g>
	<g id="Heart_x28_Filled_x29_" class="st2">
		<path id="XMLID_79_" class="st17" d="M618.3,393.7L618.3,393.7c-26.2-30.8-69.2-30.8-95.4,0L501,419.4l-21.9-25.7
			c-26.2-30.8-69.2-30.8-95.4,0l0,0c-26.2,30.8-26.2,71,0,101.8l117.2,137.4l0,0.3l117.4-137.7C644.6,464.7,644.6,424.5,618.3,393.7
			z"/>
		<path id="XMLID_76_" class="st18" d="M558,388.3c38.1-11.9,71.1,28.1,63.9,66.5"/>
	</g>
</g>
</svg>
