<?xml version="1.0" encoding="utf-8"?>
<!-- Generator: Adobe Illustrator 19.0.0, SVG Export Plug-In . SVG Version: 6.00 Build 0)  -->
<svg version="1.1" id="Layer_1" xmlns="http://www.w3.org/2000/svg" xmlns:xlink="http://www.w3.org/1999/xlink" x="0px" y="0px"
	 viewBox="-329 131 300 300" style="enable-background:new -329 131 300 300;" xml:space="preserve">
<style type="text/css">
	.st0{display:none;}
	.st1{display:inline;fill:none;stroke:#525252;stroke-width:7;stroke-miterlimit:10;}
	.st2{display:inline;}
	.st3{fill:#525252;}
	.st4{display:inline;fill:none;stroke:#BABABA;stroke-width:7;stroke-miterlimit:10;}
	.st5{fill:#BABABA;}
	.st6{display:inline;fill:none;stroke:#F4F4F4;stroke-width:7;stroke-miterlimit:10;}
	.st7{fill:#F4F4F4;}
	.st8{fill:none;stroke:#EC411F;stroke-width:7;stroke-miterlimit:10;}
	.st9{fill:#EC411F;}
	.st10{fill:none;stroke:#525252;stroke-width:7;stroke-linecap:round;stroke-linejoin:round;stroke-miterlimit:10;}
	.st11{fill:none;stroke:#525252;stroke-width:7;stroke-miterlimit:10;}
	.st12{fill:none;stroke:#BABABA;stroke-width:7;stroke-linecap:round;stroke-linejoin:round;stroke-miterlimit:10;}
	.st13{fill:none;stroke:#BABABA;stroke-width:7;stroke-miterlimit:10;}
	.st14{fill:none;stroke:#F4F4F4;stroke-width:7;stroke-linecap:round;stroke-linejoin:round;stroke-miterlimit:10;}
	.st15{fill:none;stroke:#F4F4F4;stroke-width:7;stroke-miterlimit:10;}
	.st16{fill:none;stroke:#EC411F;stroke-width:7;stroke-linecap:round;stroke-linejoin:round;stroke-miterlimit:10;}
	.st17{fill:#EC411F;stroke:#EC411F;stroke-width:7;stroke-linecap:round;stroke-linejoin:round;stroke-miterlimit:10;}
	.st18{fill:none;stroke:#F7F7F7;stroke-width:7;stroke-linecap:round;stroke-linejoin:round;stroke-miterlimit:10;}
</style>
<g id="Salt">
	<g id="Salt_Blk" class="st0">
		<path id="XMLID_643_" class="st1" d="M-1175.3,230.1c10.4,0,18.8,9.7,18.8,21.6l15.7,149.7c0,11.9-8.5,21.6-18.8,21.6h-138.7
			c-10.4,0-18.8-9.7-18.8-21.6l15.7-149.7c0-11.9,8.5-21.6,18.8-21.6"/>
		<path id="XMLID_43_" class="st1" d="M-1284.1,212v12.1v8.3c0,6.3,4.5,11.5,10,11.5h90.1c5.5,0,10-5.1,10-11.5v-8.3v-12.3"/>
		<path id="XMLID_42_" class="st1" d="M-1154.7,196.1c0,20.1-33.3,20.1-74.3,20.1s-74.3,0-74.3-20.1c0-31.8,33.3-57.6,74.3-57.6
			S-1154.7,164.3-1154.7,196.1z"/>
		<line id="XMLID_44_" class="st1" x1="-1150.3" y1="288.5" x2="-1307.7" y2="333.3"/>
		<g id="XMLID_2_" class="st2">
			<circle id="XMLID_589_" class="st3" cx="-1264" cy="160.2" r="6"/>
			<circle id="XMLID_593_" class="st3" cx="-1240.6" cy="154.9" r="6"/>
			<circle id="XMLID_590_" class="st3" cx="-1217.3" cy="154.9" r="6"/>
			<circle id="XMLID_588_" class="st3" cx="-1194" cy="160.2" r="6"/>
		</g>
	</g>
	<g id="Salt_Gry" class="st0">
		<path id="XMLID_656_" class="st4" d="M-825.3,230.1c10.4,0,18.8,9.7,18.8,21.6l15.7,149.7c0,11.9-8.5,21.6-18.8,21.6h-138.7
			c-10.4,0-18.8-9.7-18.8-21.6l15.7-149.7c0-11.9,8.5-21.6,18.8-21.6"/>
		<path id="XMLID_107_" class="st4" d="M-934.1,212.1v12v8.3c0,6.3,4.5,11.5,10,11.5h90.1c5.5,0,10-5.1,10-11.5v-8.3v-11.3"/>
		<path id="XMLID_106_" class="st4" d="M-804.7,196.1c0,20.1-33.3,20.1-74.3,20.1s-74.3,0-74.3-20.1c0-31.8,33.3-57.6,74.3-57.6
			S-804.7,164.3-804.7,196.1z"/>
		<line id="XMLID_105_" class="st4" x1="-800.3" y1="288.5" x2="-957.7" y2="333.3"/>
		<g id="XMLID_90_" class="st2">
			<circle id="XMLID_447_" class="st5" cx="-914" cy="160.2" r="6"/>
			<circle id="XMLID_587_" class="st5" cx="-890.6" cy="154.9" r="6"/>
			<circle id="XMLID_586_" class="st5" cx="-867.3" cy="154.9" r="6"/>
			<circle id="XMLID_446_" class="st5" cx="-844" cy="160.2" r="6"/>
		</g>
	</g>
	<g id="Salt_Wht" class="st0">
		<path id="XMLID_176_" class="st6" d="M-475.3,230.1c10.4,0,18.8,9.7,18.8,21.6l15.7,149.7c0,11.9-8.5,21.6-18.8,21.6h-138.7
			c-10.4,0-18.8-9.7-18.8-21.6l15.7-149.7c0-11.9,8.5-21.6,18.8-21.6"/>
		<path id="XMLID_175_" class="st6" d="M-584.1,212.1v12v8.3c0,6.3,4.5,11.5,10,11.5h90.1c5.5,0,10-5.1,10-11.5v-8.3v-11.3"/>
		<path id="XMLID_174_" class="st6" d="M-454.7,196.1c0,20.1-33.3,20.1-74.3,20.1s-74.3,0-74.3-20.1c0-31.8,33.3-57.6,74.3-57.6
			S-454.7,164.3-454.7,196.1z"/>
		<line id="XMLID_173_" class="st6" x1="-450.3" y1="288.5" x2="-607.7" y2="333.3"/>
		<g id="XMLID_155_" class="st2">
			<circle id="XMLID_330_" class="st7" cx="-564" cy="160.2" r="6"/>
			<circle id="XMLID_445_" class="st7" cx="-540.6" cy="154.9" r="6"/>
			<circle id="XMLID_441_" class="st7" cx="-517.3" cy="154.9" r="6"/>
			<circle id="XMLID_329_" class="st7" cx="-494" cy="160.2" r="6"/>
		</g>
	</g>
	<g id="Salt_Red">
		<path id="XMLID_800_" class="st8" d="M-125.3,230.1c10.4,0,18.8,9.7,18.8,21.6l15.7,149.7c0,11.9-8.5,21.6-18.8,21.6h-138.8
			c-10.4,0-18.8-9.7-18.8-21.6l15.7-149.7c0-11.9,8.5-21.6,18.8-21.6"/>
		<path id="XMLID_799_" class="st8" d="M-234.1,212.1v12v8.3c0,6.3,4.5,11.5,10,11.5h90.1c5.5,0,10-5.1,10-11.5v-8.3v-11.3"/>
		<path id="XMLID_798_" class="st8" d="M-104.7,196.1c0,20.1-33.3,20.1-74.3,20.1s-74.3,0-74.3-20.1c0-31.8,33.3-57.6,74.3-57.6
			S-104.7,164.3-104.7,196.1z"/>
		<path id="XMLID_59_" class="st9" d="M-257.3,301.6l152.6-48.1l7.8,82.2l2.7,57.7c2.7,14.1-2.6,23.3-12.6,29.5H-166l-82.4,0.2
			c-6.2-2-11.9-6.5-17-13.8l1-22.3L-257.3,301.6z"/>
		<g id="XMLID_782_">
			<circle id="XMLID_326_" class="st9" cx="-214" cy="160.2" r="6"/>
			<circle id="XMLID_328_" class="st9" cx="-190.6" cy="154.9" r="6"/>
			<circle id="XMLID_327_" class="st9" cx="-167.3" cy="154.9" r="6"/>
			<circle id="XMLID_325_" class="st9" cx="-144" cy="160.2" r="6"/>
		</g>
	</g>
</g>
<g id="Onion" class="st0">
	<g id="Onion_Red" class="st2">
		<g id="XMLID_2460_">
			<g id="XMLID_2467_">
				<path id="XMLID_2468_" class="st9" d="M-181,734c-50.2,0-88.3-38-88.3-88.6c0-25.2,10.5-47.6,31.3-66.7
					c10.9-9.2,22.4-14.7,31.5-19.1c12.4-5.9,19.5-9.7,20.4-16.4c0.2-2.1,2.1-3.6,4.2-3.2c2.1,0.2,3.6,2.3,3.2,4.2
					c-1.5,11.1-11.7,16-24.6,22.2c-9.2,4.4-19.7,9.6-29.8,18c-18.9,17.4-28.7,37.8-28.7,60.9c0,44.9,32.7,79.1,76.8,81v-39.4
					c-7.5-1.1-37.4-7.6-37.4-41.8c0-40.7,40.5-44.9,40.9-44.9c1.1,0,2.1,0.2,2.9,1c0.8,0.8,1.3,1.7,1.3,2.9V730
					C-177.2,732.3-178.9,734-181,734z M-184.8,608.5c-9.2,2.1-29.8,9.7-29.8,36.5c0,27.3,22.5,33.1,29.8,34.2V608.5z"/>
			</g>
			<g id="XMLID_2465_">
				<path id="XMLID_2466_" class="st9" d="M-179.7,710.1c-36.5,0-65.2-28.5-65.2-65c0-18.9,7.6-36.1,22.2-49.3
					c7.3-6.3,15.1-10.1,22-13.4c8-3.8,14.3-7.1,14.9-11.5c0.2-2.1,2.1-3.6,4.2-3.2c2.1,0.2,3.6,2.3,3.2,4.2
					c-1.1,8.6-9.6,12.6-19.1,17.4c-6.5,3.2-13.9,6.9-20.3,12.2c-13,11.8-19.7,26.6-19.7,43.6c0,32.7,24.8,57.3,57.5,57.3
					c2.1,0,3.8,1.7,3.8,3.8S-177.6,710.1-179.7,710.1z"/>
			</g>
			<g id="XMLID_2463_">
				<path id="XMLID_2464_" class="st9" d="M-136.7,740.9c-1.3,0-2.7-0.8-3.2-1.9c-1.1-1.9-0.4-4.2,1.3-5.2
					c52.2-30.4,52.2-65.5,52.2-65.7c0-2.1,1.7-3.8,3.8-3.8s3.8,1.7,3.8,3.8c0,1.5,0.2,39.9-56,72.6
					C-135.3,740.7-136.1,740.9-136.7,740.9z"/>
			</g>
			<g id="XMLID_2461_">
				<path id="XMLID_2462_" class="st9" d="M-92,604.1c-1.5,0-3.1-1-3.6-2.5c-10.5-26.7-38.8-37.1-39.2-37.1
					c-1.9-0.8-3.1-2.9-2.3-4.8s2.9-3.1,4.8-2.3c1.3,0.4,31.9,11.5,43.8,41.5c0.8,1.9-0.2,4.2-2.1,5C-91,604.1-91.6,604.1-92,604.1z"
					/>
			</g>
		</g>
		<g id="XMLID_2458_">
			<path id="XMLID_2459_" class="st9" d="M-74.6,583.2c-12.4-18.7-29.8-33.8-50.2-43.6l-2.1-1.3c-26-15.1-42.2-25.8-47.4-50.1V488
				c-0.6-2.3-2.5-4-5-4s-4.6,1.7-5,4v0.2c-5.2,25.6-23.1,36.5-46.8,50.6l0,0c-0.4,0.2-0.6,0.2-1,0.4c-1,0.8-1.7,1.7-1.7,3.1
				c0,2.1,1.7,3.8,3.8,3.8c0.4,0,0.8,0,1-0.2c0.4-0.2,0.6-0.4,1-0.4h0.2h0.2c22.4-13.2,40.9-24.3,48.5-47.4
				c7.8,23.1,26.4,33.8,48.5,46.8l2.3,1.3c0.2,0,0.2,0.2,0.4,0.2c40.5,19.1,65.7,58.1,65.7,101.8c0,49.7-34.2,94.2-83.3,108.5
				c-1.5,0.4-2.5,1.7-2.7,3.2l-0.2,2.3c0,0.2,0,0.2,0,0.4c0,0,0,0.4-0.4,1c-0.4,0.4-0.8,1-1.3,1.3l0,0l0,0
				c-4.4,3.6-14.7,7.3-29.4,7.3c-13.2,0-23.1-2.9-28.1-6.1l0,0c-1.1-0.8-1.9-1.7-1.9-3.4c0-0.2,0-0.4,0-0.6l-0.4-2.3
				c-0.2-1.5-1.1-2.7-2.7-3.1c-49.1-14.5-83.1-59.2-83.1-108.7c0-36.1,18-69.7,47.2-90.9c0.2-0.2,0.4-0.2,0.4-0.4
				c0.8-0.8,1.3-1.7,1.3-2.9c0-2.1-1.7-3.6-3.6-3.6c-0.8,0-1.3,0.2-1.9,0.6l-0.2,0.2c-31.3,22.5-50.4,58.5-50.4,97.1
				c0,26.6,8.6,51.6,25,72.6c15.3,19.7,36.7,34.6,60.6,42c1.9,9.7,20.3,15.1,37.4,15.1c17,0,35.2-5.2,37.4-14.7
				c0.8-0.2,1.1-0.2,1.1-0.2c24.1-7.5,45.5-22.4,60.9-42c16.4-21.2,25.2-46.2,25.2-72.8C-55.3,625.1-62,602.5-74.6,583.2z"/>
		</g>
	</g>
	<g id="Onion_Wht" class="st2">
		<g id="XMLID_2729_">
			<g id="XMLID_2736_">
				<path id="XMLID_2737_" class="st7" d="M-531,734c-50.2,0-88.3-38-88.3-88.6c0-25.2,10.5-47.6,31.3-66.7
					c10.9-9.2,22.4-14.7,31.5-19.1c12.4-5.9,19.5-9.7,20.4-16.4c0.2-2.1,2.1-3.6,4.2-3.2c2.1,0.2,3.6,2.3,3.2,4.2
					c-1.5,11.1-11.7,16-24.6,22.2c-9.2,4.4-19.7,9.6-29.8,18c-18.9,17.4-28.7,37.8-28.7,60.9c0,44.9,32.7,79.1,76.8,81v-39.4
					c-7.5-1.1-37.4-7.6-37.4-41.8c0-40.7,40.5-44.9,40.9-44.9c1.1,0,2.1,0.2,2.9,1c0.8,0.8,1.3,1.7,1.3,2.9V730
					C-527.2,732.3-528.9,734-531,734z M-534.8,608.5c-9.2,2.1-29.8,9.7-29.8,36.5c0,27.3,22.5,33.1,29.8,34.2V608.5z"/>
			</g>
			<g id="XMLID_2734_">
				<path id="XMLID_2735_" class="st7" d="M-529.7,710.1c-36.5,0-65.2-28.5-65.2-65c0-18.9,7.6-36.1,22.2-49.3
					c7.3-6.3,15.1-10.1,22-13.4c8-3.8,14.3-7.1,14.9-11.5c0.2-2.1,2.1-3.6,4.2-3.2c2.1,0.2,3.6,2.3,3.2,4.2
					c-1.1,8.6-9.6,12.6-19.1,17.4c-6.5,3.2-13.9,6.9-20.3,12.2c-13,11.8-19.7,26.6-19.7,43.6c0,32.7,24.8,57.3,57.5,57.3
					c2.1,0,3.8,1.7,3.8,3.8S-527.6,710.1-529.7,710.1z"/>
			</g>
			<g id="XMLID_2732_">
				<path id="XMLID_2733_" class="st7" d="M-486.7,740.9c-1.3,0-2.7-0.8-3.2-1.9c-1.1-1.9-0.4-4.2,1.3-5.2
					c52.2-30.4,52.2-65.5,52.2-65.7c0-2.1,1.7-3.8,3.8-3.8c2.1,0,3.8,1.7,3.8,3.8c0,1.5,0.2,39.9-56,72.6
					C-485.3,740.7-486.1,740.9-486.7,740.9z"/>
			</g>
			<g id="XMLID_2730_">
				<path id="XMLID_2731_" class="st7" d="M-442,604.1c-1.5,0-3.1-1-3.6-2.5c-10.5-26.7-38.8-37.1-39.2-37.1
					c-1.9-0.8-3.1-2.9-2.3-4.8s2.9-3.1,4.8-2.3c1.3,0.4,31.9,11.5,43.8,41.5c0.8,1.9-0.2,4.2-2.1,5
					C-441,604.1-441.6,604.1-442,604.1z"/>
			</g>
		</g>
		<g id="XMLID_2727_">
			<path id="XMLID_2728_" class="st7" d="M-424.6,583.2c-12.4-18.7-29.8-33.8-50.2-43.6l-2.1-1.3c-26-15.1-42.2-25.8-47.4-50.1V488
				c-0.6-2.3-2.5-4-5-4s-4.6,1.7-5,4v0.2c-5.2,25.6-23.1,36.5-46.8,50.6l0,0c-0.4,0.2-0.6,0.2-1,0.4c-1,0.8-1.7,1.7-1.7,3.1
				c0,2.1,1.7,3.8,3.8,3.8c0.4,0,0.8,0,1-0.2c0.4-0.2,0.6-0.4,1-0.4h0.2h0.2c22.4-13.2,40.9-24.3,48.5-47.4
				c7.8,23.1,26.4,33.8,48.5,46.8l2.3,1.3c0.2,0,0.2,0.2,0.4,0.2c40.5,19.1,65.7,58.1,65.7,101.8c0,49.7-34.2,94.2-83.3,108.5
				c-1.5,0.4-2.5,1.7-2.7,3.2l-0.2,2.3c0,0.2,0,0.2,0,0.4c0,0,0,0.4-0.4,1c-0.4,0.4-0.8,1-1.3,1.3l0,0l0,0
				c-4.4,3.6-14.7,7.3-29.4,7.3c-13.2,0-23.1-2.9-28.1-6.1l0,0c-1.1-0.8-1.9-1.7-1.9-3.4c0-0.2,0-0.4,0-0.6l-0.4-2.3
				c-0.2-1.5-1.1-2.7-2.7-3.1c-49.1-14.5-83.1-59.2-83.1-108.7c0-36.1,18-69.7,47.2-90.9c0.2-0.2,0.4-0.2,0.4-0.4
				c0.8-0.8,1.3-1.7,1.3-2.9c0-2.1-1.7-3.6-3.6-3.6c-0.8,0-1.3,0.2-1.9,0.6l-0.2,0.2c-31.3,22.5-50.4,58.5-50.4,97.1
				c0,26.6,8.6,51.6,25,72.6c15.3,19.7,36.7,34.6,60.6,42c1.9,9.7,20.3,15.1,37.4,15.1c17,0,35.2-5.2,37.4-14.7
				c0.8-0.2,1.1-0.2,1.1-0.2c24.1-7.5,45.5-22.4,60.9-42c16.4-21.2,25.2-46.2,25.2-72.8C-405.3,625.1-412,602.5-424.6,583.2z"/>
		</g>
	</g>
	<g id="Onion_Gry" class="st2">
		<g id="XMLID_2650_">
			<g id="XMLID_2657_">
				<path id="XMLID_2658_" class="st5" d="M-881,734c-50.2,0-88.3-38-88.3-88.6c0-25.2,10.5-47.6,31.3-66.7
					c10.9-9.2,22.4-14.7,31.5-19.1c12.4-5.9,19.5-9.7,20.4-16.4c0.2-2.1,2.1-3.6,4.2-3.2c2.1,0.2,3.6,2.3,3.2,4.2
					c-1.5,11.1-11.7,16-24.6,22.2c-9.2,4.4-19.7,9.6-29.8,18c-18.9,17.4-28.7,37.8-28.7,60.9c0,44.9,32.7,79.1,76.8,81v-39.4
					c-7.5-1.1-37.4-7.6-37.4-41.8c0-40.7,40.5-44.9,40.9-44.9c1.1,0,2.1,0.2,2.9,1c0.8,0.8,1.3,1.7,1.3,2.9V730
					C-877.2,732.3-878.9,734-881,734z M-884.8,608.5c-9.2,2.1-29.8,9.7-29.8,36.5c0,27.3,22.5,33.1,29.8,34.2V608.5z"/>
			</g>
			<g id="XMLID_2655_">
				<path id="XMLID_2656_" class="st5" d="M-879.7,710.1c-36.5,0-65.2-28.5-65.2-65c0-18.9,7.6-36.1,22.2-49.3
					c7.3-6.3,15.1-10.1,22-13.4c8-3.8,14.3-7.1,14.9-11.5c0.2-2.1,2.1-3.6,4.2-3.2c2.1,0.2,3.6,2.3,3.2,4.2
					c-1.1,8.6-9.6,12.6-19.1,17.4c-6.5,3.2-13.9,6.9-20.3,12.2c-13,11.8-19.7,26.6-19.7,43.6c0,32.7,24.8,57.3,57.5,57.3
					c2.1,0,3.8,1.7,3.8,3.8S-877.6,710.1-879.7,710.1z"/>
			</g>
			<g id="XMLID_2653_">
				<path id="XMLID_2654_" class="st5" d="M-836.7,740.9c-1.3,0-2.7-0.8-3.2-1.9c-1.1-1.9-0.4-4.2,1.3-5.2
					c52.2-30.4,52.2-65.5,52.2-65.7c0-2.1,1.7-3.8,3.8-3.8s3.8,1.7,3.8,3.8c0,1.5,0.2,39.9-56,72.6
					C-835.3,740.7-836.1,740.9-836.7,740.9z"/>
			</g>
			<g id="XMLID_2651_">
				<path id="XMLID_2652_" class="st5" d="M-792,604.1c-1.5,0-3.1-1-3.6-2.5c-10.5-26.7-38.8-37.1-39.2-37.1
					c-1.9-0.8-3.1-2.9-2.3-4.8c0.8-1.9,2.9-3.1,4.8-2.3c1.3,0.4,31.9,11.5,43.8,41.5c0.8,1.9-0.2,4.2-2.1,5
					C-791,604.1-791.6,604.1-792,604.1z"/>
			</g>
		</g>
		<g id="XMLID_2648_">
			<path id="XMLID_2649_" class="st5" d="M-774.6,583.2c-12.4-18.7-29.8-33.8-50.2-43.6l-2.1-1.3c-26-15.1-42.2-25.8-47.4-50.1V488
				c-0.6-2.3-2.5-4-5-4s-4.6,1.7-5,4v0.2c-5.2,25.6-23.1,36.5-46.8,50.6l0,0c-0.4,0.2-0.6,0.2-1,0.4c-1,0.8-1.7,1.7-1.7,3.1
				c0,2.1,1.7,3.8,3.8,3.8c0.4,0,0.8,0,1-0.2c0.4-0.2,0.6-0.4,1-0.4h0.2h0.2c22.4-13.2,40.9-24.3,48.5-47.4
				c7.8,23.1,26.4,33.8,48.5,46.8l2.3,1.3c0.2,0,0.2,0.2,0.4,0.2c40.5,19.1,65.7,58.1,65.7,101.8c0,49.7-34.2,94.2-83.3,108.5
				c-1.5,0.4-2.5,1.7-2.7,3.2l-0.2,2.3c0,0.2,0,0.2,0,0.4c0,0,0,0.4-0.4,1c-0.4,0.4-0.8,1-1.3,1.3l0,0l0,0
				c-4.4,3.6-14.7,7.3-29.4,7.3c-13.2,0-23.1-2.9-28.1-6.1l0,0c-1.1-0.8-1.9-1.7-1.9-3.4c0-0.2,0-0.4,0-0.6l-0.4-2.3
				c-0.2-1.5-1.1-2.7-2.7-3.1c-49.1-14.5-83.1-59.2-83.1-108.7c0-36.1,18-69.7,47.2-90.9c0.2-0.2,0.4-0.2,0.4-0.4
				c0.8-0.8,1.3-1.7,1.3-2.9c0-2.1-1.7-3.6-3.6-3.6c-0.8,0-1.3,0.2-1.9,0.6l-0.2,0.2c-31.3,22.5-50.4,58.5-50.4,97.1
				c0,26.6,8.6,51.6,25,72.6c15.3,19.7,36.7,34.6,60.6,42c1.9,9.7,20.3,15.1,37.4,15.1c17,0,35.2-5.2,37.4-14.7
				c0.8-0.2,1.1-0.2,1.1-0.2c24.1-7.5,45.5-22.4,60.9-42c16.4-21.2,25.2-46.2,25.2-72.8C-755.3,625.1-762,602.5-774.6,583.2z"/>
		</g>
	</g>
	<g id="Onion_Blk" class="st2">
		<g id="XMLID_2886_">
			<g id="XMLID_2893_">
				<path id="XMLID_2894_" class="st3" d="M-1231,734c-50.2,0-88.3-38-88.3-88.6c0-25.2,10.5-47.6,31.3-66.7
					c10.9-9.2,22.4-14.7,31.5-19.1c12.4-5.9,19.5-9.7,20.4-16.4c0.2-2.1,2.1-3.6,4.2-3.2c2.1,0.2,3.6,2.3,3.2,4.2
					c-1.5,11.1-11.7,16-24.6,22.2c-9.2,4.4-19.7,9.6-29.8,18c-18.9,17.4-28.7,37.8-28.7,60.9c0,44.9,32.7,79.1,76.8,81v-39.4
					c-7.5-1.1-37.4-7.6-37.4-41.8c0-40.7,40.5-44.9,40.9-44.9c1.1,0,2.1,0.2,2.9,1c0.8,0.8,1.3,1.7,1.3,2.9V730
					C-1227.2,732.3-1228.9,734-1231,734z M-1234.8,608.5c-9.2,2.1-29.8,9.7-29.8,36.5c0,27.3,22.5,33.1,29.8,34.2V608.5z"/>
			</g>
			<g id="XMLID_2891_">
				<path id="XMLID_2892_" class="st3" d="M-1229.7,710.1c-36.5,0-65.2-28.5-65.2-65c0-18.9,7.6-36.1,22.2-49.3
					c7.3-6.3,15.1-10.1,22-13.4c8-3.8,14.3-7.1,14.9-11.5c0.2-2.1,2.1-3.6,4.2-3.2c2.1,0.2,3.6,2.3,3.2,4.2
					c-1.1,8.6-9.6,12.6-19.1,17.4c-6.5,3.2-13.9,6.9-20.3,12.2c-13,11.8-19.7,26.6-19.7,43.6c0,32.7,24.8,57.3,57.5,57.3
					c2.1,0,3.8,1.7,3.8,3.8S-1227.6,710.1-1229.7,710.1z"/>
			</g>
			<g id="XMLID_2889_">
				<path id="XMLID_2890_" class="st3" d="M-1186.7,740.9c-1.3,0-2.7-0.8-3.2-1.9c-1.1-1.9-0.4-4.2,1.3-5.2
					c52.2-30.4,52.2-65.5,52.2-65.7c0-2.1,1.7-3.8,3.8-3.8c2.1,0,3.8,1.7,3.8,3.8c0,1.5,0.2,39.9-56,72.6
					C-1185.3,740.7-1186.1,740.9-1186.7,740.9z"/>
			</g>
			<g id="XMLID_2887_">
				<path id="XMLID_2888_" class="st3" d="M-1142,604.1c-1.5,0-3.1-1-3.6-2.5c-10.5-26.7-38.8-37.1-39.2-37.1
					c-1.9-0.8-3.1-2.9-2.3-4.8s2.9-3.1,4.8-2.3c1.3,0.4,31.9,11.5,43.8,41.5c0.8,1.9-0.2,4.2-2.1,5
					C-1141,604.1-1141.6,604.1-1142,604.1z"/>
			</g>
		</g>
		<g id="XMLID_2884_">
			<path id="XMLID_2885_" class="st3" d="M-1124.6,583.2c-12.4-18.7-29.8-33.8-50.2-43.6l-2.1-1.3c-26-15.1-42.2-25.8-47.4-50.1V488
				c-0.6-2.3-2.5-4-5-4s-4.6,1.7-5,4v0.2c-5.2,25.6-23.1,36.5-46.8,50.6l0,0c-0.4,0.2-0.6,0.2-1,0.4c-1,0.8-1.7,1.7-1.7,3.1
				c0,2.1,1.7,3.8,3.8,3.8c0.4,0,0.8,0,1-0.2c0.4-0.2,0.6-0.4,1-0.4h0.2h0.2c22.4-13.2,40.9-24.3,48.5-47.4
				c7.8,23.1,26.4,33.8,48.5,46.8l2.3,1.3c0.2,0,0.2,0.2,0.4,0.2c40.5,19.1,65.7,58.1,65.7,101.8c0,49.7-34.2,94.2-83.3,108.5
				c-1.5,0.4-2.5,1.7-2.7,3.2l-0.2,2.3c0,0.2,0,0.2,0,0.4c0,0,0,0.4-0.4,1c-0.4,0.4-0.8,1-1.3,1.3l0,0l0,0
				c-4.4,3.6-14.7,7.3-29.4,7.3c-13.2,0-23.1-2.9-28.1-6.1l0,0c-1.1-0.8-1.9-1.7-1.9-3.4c0-0.2,0-0.4,0-0.6l-0.4-2.3
				c-0.2-1.5-1.1-2.7-2.7-3.1c-49.1-14.5-83.1-59.2-83.1-108.7c0-36.1,18-69.7,47.2-90.9c0.2-0.2,0.4-0.2,0.4-0.4
				c0.8-0.8,1.3-1.7,1.3-2.9c0-2.1-1.7-3.6-3.6-3.6c-0.8,0-1.3,0.2-1.9,0.6l-0.2,0.2c-31.3,22.5-50.4,58.5-50.4,97.1
				c0,26.6,8.6,51.6,25,72.6c15.3,19.7,36.7,34.6,60.6,42c1.9,9.7,20.3,15.1,37.4,15.1c17,0,35.2-5.2,37.4-14.7
				c0.8-0.2,1.1-0.2,1.1-0.2c24.1-7.5,45.5-22.4,60.9-42c16.4-21.2,25.2-46.2,25.2-72.8C-1105.3,625.1-1112,602.5-1124.6,583.2z"/>
		</g>
	</g>
</g>
<g id="Cookbook" class="st0">
	<g id="Cookbook_Blk" class="st2">
		<g id="XMLID_53_">
			<g id="XMLID_8_">
				<polyline id="XMLID_10_" class="st10" points="-1270.3,1085.4 -1270.3,1122.6 -1270.3,1122.6 -1245.3,1097.6 				"/>
				<polyline id="XMLID_9_" class="st10" points="-1220.3,1085.4 -1220.3,1122.6 -1220.3,1122.6 -1245.3,1097.6 				"/>
			</g>
			<g id="XMLID_7_">
				<path id="XMLID_184_" class="st11" d="M-1141.4,1085h-161.4c-6.6,0-12-5.4-12-12V854.6c0-6.6,5.4-12,12-12h156.5h4.9
					c6.6,0,12,5.4,12,12V1073C-1129.4,1079.6-1134.8,1085-1141.4,1085z"/>
				<line id="XMLID_11_" class="st10" x1="-1270.3" y1="842.6" x2="-1270.3" y2="1085"/>
				<g id="XMLID_36_">
					<g id="XMLID_215_">
						<path id="XMLID_216_" class="st3" d="M-1303,868.2h-23.2c-1.3,0-2.4-1.6-2.4-3.5s1.1-3.5,2.4-3.5h23.2c1.3,0,2.4,1.6,2.4,3.5
							S-1301.7,868.2-1303,868.2z"/>
					</g>
					<path id="XMLID_324_" class="st3" d="M-1303,896.5h-23.2c-1.3,0-2.4-1.6-2.4-3.5s1.1-3.5,2.4-3.5h23.2c1.3,0,2.4,1.6,2.4,3.5
						S-1301.7,896.5-1303,896.5z"/>
					<path id="XMLID_323_" class="st3" d="M-1303,924.8h-23.2c-1.3,0-2.4-1.6-2.4-3.5s1.1-3.5,2.4-3.5h23.2c1.3,0,2.4,1.6,2.4,3.5
						C-1300.7,923.2-1301.7,924.8-1303,924.8z"/>
					<path id="XMLID_322_" class="st3" d="M-1303,953.1h-23.2c-1.3,0-2.4-1.6-2.4-3.5s1.1-3.5,2.4-3.5h23.2c1.3,0,2.4,1.6,2.4,3.5
						C-1300.7,951.5-1301.7,953.1-1303,953.1z"/>
					<path id="XMLID_321_" class="st3" d="M-1303,981.4h-23.2c-1.3,0-2.4-1.6-2.4-3.5s1.1-3.5,2.4-3.5h23.2c1.3,0,2.4,1.6,2.4,3.5
						C-1300.7,979.8-1301.7,981.4-1303,981.4z"/>
					<path id="XMLID_218_" class="st3" d="M-1303,1009.7h-23.2c-1.3,0-2.4-1.6-2.4-3.5s1.1-3.5,2.4-3.5h23.2c1.3,0,2.4,1.6,2.4,3.5
						C-1300.7,1008.1-1301.7,1009.7-1303,1009.7z"/>
					<path id="XMLID_217_" class="st3" d="M-1303,1037.9h-23.2c-1.3,0-2.4-1.6-2.4-3.5s1.1-3.5,2.4-3.5h23.2c1.3,0,2.4,1.6,2.4,3.5
						S-1301.7,1037.9-1303,1037.9z"/>
					<g id="XMLID_213_">
						<path id="XMLID_214_" class="st3" d="M-1303,1066.2h-23.2c-1.3,0-2.4-1.6-2.4-3.5c0-1.9,1.1-3.5,2.4-3.5h23.2
							c1.3,0,2.4,1.6,2.4,3.5C-1300.6,1064.6-1301.7,1066.2-1303,1066.2z"/>
					</g>
				</g>
			</g>
			<g id="XMLID_37_">
				<g id="XMLID_38_">
					<path id="XMLID_39_" class="st10" d="M-1213.1,930.4c3.4-2.4,7.5-3.8,12-3.8s8.6,1.4,12,3.8c5.4,3.8,8.9,10.1,8.9,17.1
						c0,7.1-3.5,13.4-8.9,17.1c-3.4,2.4-7.5,3.8-12,3.8c-4.6,0-8.8-1.5-12.3-4"/>
					<path id="XMLID_40_" class="st10" d="M-1213.1,964.7c-3.4,2.4-7.5,3.8-12,3.8c-11.5,0-20.9-9.4-20.9-20.9s9.4-20.9,20.9-20.9
						c4.5,0,8.6,1.4,12,3.8"/>
					<path id="XMLID_41_" class="st10" d="M-1189.1,930.4c3.4-2.4,7.5-3.8,12-3.8c11.5,0,20.9,9.4,20.9,20.9s-9.4,20.9-20.9,20.9
						c-4.5,0-8.6-1.4-12-3.8"/>
					<path id="XMLID_45_" class="st10" d="M-1219,942.3c-1.9,3.9-1.9,7.7,0,11.6"/>
				</g>
				<path id="XMLID_46_" class="st10" d="M-1173.4,968.2v22.1c0,5.9-4.8,10.6-10.6,10.6h-35.3c-5.9,0-10.6-4.8-10.6-10.6v-22.1"/>
			</g>
		</g>
		<line id="XMLID_82_" class="st10" x1="-1227.6" y1="988.2" x2="-1175.3" y2="988.2"/>
	</g>
	<g id="Cookbook_Gry" class="st2">
		<g id="XMLID_192_">
			<g id="XMLID_221_">
				<polyline id="XMLID_223_" class="st12" points="-920.3,1085.4 -920.3,1122.6 -920.3,1122.6 -895.3,1097.6 				"/>
				<polyline id="XMLID_222_" class="st12" points="-870.3,1085.4 -870.3,1122.6 -870.3,1122.6 -895.3,1097.6 				"/>
			</g>
			<g id="XMLID_200_">
				<path id="XMLID_220_" class="st13" d="M-791.4,1085h-161.4c-6.6,0-12-5.4-12-12V854.6c0-6.6,5.4-12,12-12h156.5h4.9
					c6.6,0,12,5.4,12,12V1073C-779.4,1079.6-784.8,1085-791.4,1085z"/>
				<line id="XMLID_219_" class="st12" x1="-920.3" y1="842.6" x2="-920.3" y2="1085"/>
				<g id="XMLID_201_">
					<g id="XMLID_164_">
						<path id="XMLID_165_" class="st5" d="M-953,868.2h-23.2c-1.3,0-2.4-1.6-2.4-3.5s1.1-3.5,2.4-3.5h23.2c1.3,0,2.4,1.6,2.4,3.5
							S-951.7,868.2-953,868.2z"/>
					</g>
					<path id="XMLID_212_" class="st5" d="M-953,896.5h-23.2c-1.3,0-2.4-1.6-2.4-3.5s1.1-3.5,2.4-3.5h23.2c1.3,0,2.4,1.6,2.4,3.5
						S-951.7,896.5-953,896.5z"/>
					<path id="XMLID_211_" class="st5" d="M-953,924.8h-23.2c-1.3,0-2.4-1.6-2.4-3.5s1.1-3.5,2.4-3.5h23.2c1.3,0,2.4,1.6,2.4,3.5
						C-950.7,923.2-951.7,924.8-953,924.8z"/>
					<path id="XMLID_210_" class="st5" d="M-953,953.1h-23.2c-1.3,0-2.4-1.6-2.4-3.5s1.1-3.5,2.4-3.5h23.2c1.3,0,2.4,1.6,2.4,3.5
						C-950.7,951.5-951.7,953.1-953,953.1z"/>
					<path id="XMLID_209_" class="st5" d="M-953,981.4h-23.2c-1.3,0-2.4-1.6-2.4-3.5s1.1-3.5,2.4-3.5h23.2c1.3,0,2.4,1.6,2.4,3.5
						C-950.7,979.8-951.7,981.4-953,981.4z"/>
					<path id="XMLID_167_" class="st5" d="M-953,1009.7h-23.2c-1.3,0-2.4-1.6-2.4-3.5s1.1-3.5,2.4-3.5h23.2c1.3,0,2.4,1.6,2.4,3.5
						C-950.7,1008.1-951.7,1009.7-953,1009.7z"/>
					<path id="XMLID_166_" class="st5" d="M-953,1037.9h-23.2c-1.3,0-2.4-1.6-2.4-3.5s1.1-3.5,2.4-3.5h23.2c1.3,0,2.4,1.6,2.4,3.5
						S-951.7,1037.9-953,1037.9z"/>
					<g id="XMLID_127_">
						<path id="XMLID_128_" class="st5" d="M-953,1066.2h-23.2c-1.3,0-2.4-1.6-2.4-3.5c0-1.9,1.1-3.5,2.4-3.5h23.2
							c1.3,0,2.4,1.6,2.4,3.5C-950.6,1064.6-951.7,1066.2-953,1066.2z"/>
					</g>
				</g>
			</g>
			<g id="XMLID_193_">
				<g id="XMLID_195_">
					<path id="XMLID_199_" class="st12" d="M-863.1,930.4c3.4-2.4,7.5-3.8,12-3.8s8.6,1.4,12,3.8c5.4,3.8,8.9,10.1,8.9,17.1
						c0,7.1-3.5,13.4-8.9,17.1c-3.4,2.4-7.5,3.8-12,3.8c-4.6,0-8.8-1.5-12.3-4"/>
					<path id="XMLID_198_" class="st12" d="M-863.1,964.7c-3.4,2.4-7.5,3.8-12,3.8c-11.5,0-20.9-9.4-20.9-20.9s9.4-20.9,20.9-20.9
						c4.5,0,8.6,1.4,12,3.8"/>
					<path id="XMLID_197_" class="st12" d="M-839.1,930.4c3.4-2.4,7.5-3.8,12-3.8c11.5,0,20.9,9.4,20.9,20.9s-9.4,20.9-20.9,20.9
						c-4.5,0-8.6-1.4-12-3.8"/>
					<path id="XMLID_196_" class="st12" d="M-869,942.3c-1.9,3.9-1.9,7.7,0,11.6"/>
				</g>
				<path id="XMLID_194_" class="st12" d="M-823.4,968.2v22.1c0,5.9-4.8,10.6-10.6,10.6h-35.3c-5.9,0-10.6-4.8-10.6-10.6v-22.1"/>
			</g>
		</g>
		<line id="XMLID_191_" class="st12" x1="-877.6" y1="988.2" x2="-825.3" y2="988.2"/>
	</g>
	<g id="Cookbook_Wht" class="st2">
		<g id="XMLID_304_">
			<g id="XMLID_333_">
				<polyline id="XMLID_335_" class="st14" points="-570.3,1085.4 -570.3,1122.6 -570.3,1122.6 -545.3,1097.6 				"/>
				<polyline id="XMLID_334_" class="st14" points="-520.3,1085.4 -520.3,1122.6 -520.3,1122.6 -545.3,1097.6 				"/>
			</g>
			<g id="XMLID_312_">
				<path id="XMLID_332_" class="st15" d="M-441.4,1085h-161.4c-6.6,0-12-5.4-12-12V854.6c0-6.6,5.4-12,12-12h156.5h4.9
					c6.6,0,12,5.4,12,12V1073C-429.4,1079.6-434.8,1085-441.4,1085z"/>
				<line id="XMLID_331_" class="st14" x1="-570.3" y1="842.6" x2="-570.3" y2="1085"/>
				<g id="XMLID_313_">
					<g id="XMLID_71_">
						<path id="XMLID_72_" class="st7" d="M-603,868.2h-23.2c-1.3,0-2.4-1.6-2.4-3.5s1.1-3.5,2.4-3.5h23.2c1.3,0,2.4,1.6,2.4,3.5
							S-601.7,868.2-603,868.2z"/>
					</g>
					<path id="XMLID_126_" class="st7" d="M-603,896.5h-23.2c-1.3,0-2.4-1.6-2.4-3.5s1.1-3.5,2.4-3.5h23.2c1.3,0,2.4,1.6,2.4,3.5
						S-601.7,896.5-603,896.5z"/>
					<path id="XMLID_125_" class="st7" d="M-603,924.8h-23.2c-1.3,0-2.4-1.6-2.4-3.5s1.1-3.5,2.4-3.5h23.2c1.3,0,2.4,1.6,2.4,3.5
						C-600.7,923.2-601.7,924.8-603,924.8z"/>
					<path id="XMLID_99_" class="st7" d="M-603,953.1h-23.2c-1.3,0-2.4-1.6-2.4-3.5s1.1-3.5,2.4-3.5h23.2c1.3,0,2.4,1.6,2.4,3.5
						C-600.7,951.5-601.7,953.1-603,953.1z"/>
					<path id="XMLID_98_" class="st7" d="M-603,981.4h-23.2c-1.3,0-2.4-1.6-2.4-3.5s1.1-3.5,2.4-3.5h23.2c1.3,0,2.4,1.6,2.4,3.5
						C-600.7,979.8-601.7,981.4-603,981.4z"/>
					<path id="XMLID_97_" class="st7" d="M-603,1009.7h-23.2c-1.3,0-2.4-1.6-2.4-3.5s1.1-3.5,2.4-3.5h23.2c1.3,0,2.4,1.6,2.4,3.5
						C-600.7,1008.1-601.7,1009.7-603,1009.7z"/>
					<path id="XMLID_96_" class="st7" d="M-603,1037.9h-23.2c-1.3,0-2.4-1.6-2.4-3.5s1.1-3.5,2.4-3.5h23.2c1.3,0,2.4,1.6,2.4,3.5
						S-601.7,1037.9-603,1037.9z"/>
					<g id="XMLID_66_">
						<path id="XMLID_70_" class="st7" d="M-603,1066.2h-23.2c-1.3,0-2.4-1.6-2.4-3.5c0-1.9,1.1-3.5,2.4-3.5h23.2
							c1.3,0,2.4,1.6,2.4,3.5C-600.6,1064.6-601.7,1066.2-603,1066.2z"/>
					</g>
				</g>
			</g>
			<g id="XMLID_305_">
				<g id="XMLID_307_">
					<path id="XMLID_311_" class="st14" d="M-513.1,930.4c3.4-2.4,7.5-3.8,12-3.8s8.6,1.4,12,3.8c5.4,3.8,8.9,10.1,8.9,17.1
						c0,7.1-3.5,13.4-8.9,17.1c-3.4,2.4-7.5,3.8-12,3.8c-4.6,0-8.8-1.5-12.3-4"/>
					<path id="XMLID_310_" class="st14" d="M-513.1,964.7c-3.4,2.4-7.5,3.8-12,3.8c-11.5,0-20.9-9.4-20.9-20.9s9.4-20.9,20.9-20.9
						c4.5,0,8.6,1.4,12,3.8"/>
					<path id="XMLID_309_" class="st14" d="M-489.1,930.4c3.4-2.4,7.5-3.8,12-3.8c11.5,0,20.9,9.4,20.9,20.9s-9.4,20.9-20.9,20.9
						c-4.5,0-8.6-1.4-12-3.8"/>
					<path id="XMLID_308_" class="st14" d="M-519,942.3c-1.9,3.9-1.9,7.7,0,11.6"/>
				</g>
				<path id="XMLID_306_" class="st14" d="M-473.4,968.2v22.1c0,5.9-4.8,10.6-10.6,10.6h-35.3c-5.9,0-10.6-4.8-10.6-10.6v-22.1"/>
			</g>
		</g>
		<line id="XMLID_303_" class="st14" x1="-527.6" y1="988.2" x2="-475.3" y2="988.2"/>
	</g>
	<g id="Cookbook_Red" class="st2">
		<g id="XMLID_862_">
			<g id="XMLID_891_">
				<polyline id="XMLID_893_" class="st16" points="-220.3,1085.4 -220.3,1122.6 -220.3,1122.6 -195.3,1097.6 				"/>
				<polyline id="XMLID_892_" class="st16" points="-170.3,1085.4 -170.3,1122.6 -170.3,1122.6 -195.3,1097.6 				"/>
			</g>
			<g id="XMLID_870_">
				<path id="XMLID_890_" class="st8" d="M-91.4,1085h-161.4c-6.6,0-12-5.4-12-12V854.6c0-6.6,5.4-12,12-12h156.5h4.9
					c6.6,0,12,5.4,12,12V1073C-79.4,1079.6-84.8,1085-91.4,1085z"/>
				<line id="XMLID_889_" class="st16" x1="-220.3" y1="842.6" x2="-220.3" y2="1085"/>
				<g id="XMLID_871_">
					<g id="XMLID_26_">
						<path id="XMLID_27_" class="st9" d="M-253,868.2h-23.2c-1.3,0-2.4-1.6-2.4-3.5s1.1-3.5,2.4-3.5h23.2c1.3,0,2.4,1.6,2.4,3.5
							S-251.7,868.2-253,868.2z"/>
					</g>
					<path id="XMLID_35_" class="st9" d="M-253,896.5h-23.2c-1.3,0-2.4-1.6-2.4-3.5s1.1-3.5,2.4-3.5h23.2c1.3,0,2.4,1.6,2.4,3.5
						S-251.7,896.5-253,896.5z"/>
					<path id="XMLID_32_" class="st9" d="M-253,924.8h-23.2c-1.3,0-2.4-1.6-2.4-3.5s1.1-3.5,2.4-3.5h23.2c1.3,0,2.4,1.6,2.4,3.5
						C-250.7,923.2-251.7,924.8-253,924.8z"/>
					<path id="XMLID_31_" class="st9" d="M-253,953.1h-23.2c-1.3,0-2.4-1.6-2.4-3.5s1.1-3.5,2.4-3.5h23.2c1.3,0,2.4,1.6,2.4,3.5
						C-250.7,951.5-251.7,953.1-253,953.1z"/>
					<path id="XMLID_30_" class="st9" d="M-253,981.4h-23.2c-1.3,0-2.4-1.6-2.4-3.5s1.1-3.5,2.4-3.5h23.2c1.3,0,2.4,1.6,2.4,3.5
						C-250.7,979.8-251.7,981.4-253,981.4z"/>
					<path id="XMLID_29_" class="st9" d="M-253,1009.7h-23.2c-1.3,0-2.4-1.6-2.4-3.5s1.1-3.5,2.4-3.5h23.2c1.3,0,2.4,1.6,2.4,3.5
						C-250.7,1008.1-251.7,1009.7-253,1009.7z"/>
					<path id="XMLID_28_" class="st9" d="M-253,1037.9h-23.2c-1.3,0-2.4-1.6-2.4-3.5s1.1-3.5,2.4-3.5h23.2c1.3,0,2.4,1.6,2.4,3.5
						S-251.7,1037.9-253,1037.9z"/>
					<g id="XMLID_21_">
						<path id="XMLID_25_" class="st9" d="M-253,1066.2h-23.2c-1.3,0-2.4-1.6-2.4-3.5c0-1.9,1.1-3.5,2.4-3.5h23.2
							c1.3,0,2.4,1.6,2.4,3.5C-250.6,1064.6-251.7,1066.2-253,1066.2z"/>
					</g>
				</g>
			</g>
			<g id="XMLID_863_">
				<g id="XMLID_865_">
					<path id="XMLID_869_" class="st16" d="M-163.1,930.4c3.4-2.4,7.5-3.8,12-3.8s8.6,1.4,12,3.8c5.4,3.8,8.9,10.1,8.9,17.1
						c0,7.1-3.5,13.4-8.9,17.1c-3.4,2.4-7.5,3.8-12,3.8c-4.6,0-8.8-1.5-12.3-4"/>
					<path id="XMLID_868_" class="st16" d="M-163.1,964.7c-3.4,2.4-7.5,3.8-12,3.8c-11.5,0-20.9-9.4-20.9-20.9s9.4-20.9,20.9-20.9
						c4.5,0,8.6,1.4,12,3.8"/>
					<path id="XMLID_867_" class="st16" d="M-139.1,930.4c3.4-2.4,7.5-3.8,12-3.8c11.5,0,20.9,9.4,20.9,20.9s-9.4,20.9-20.9,20.9
						c-4.5,0-8.6-1.4-12-3.8"/>
					<path id="XMLID_866_" class="st16" d="M-169,942.3c-1.9,3.9-1.9,7.7,0,11.6"/>
				</g>
				<path id="XMLID_864_" class="st16" d="M-123.4,968.2v22.1c0,5.9-4.8,10.6-10.6,10.6h-35.3c-5.9,0-10.6-4.8-10.6-10.6v-22.1"/>
			</g>
		</g>
		<line id="XMLID_861_" class="st16" x1="-177.6" y1="988.2" x2="-125.3" y2="988.2"/>
	</g>
</g>
<g id="Meat_1_" class="st0">
	<g id="Meat_Blk" class="st2">
		<g id="XMLID_161_">
			<path id="XMLID_3064_" class="st3" d="M-1272.5,1360.1l-6,26.3l26.1-6.3l-7.3,7.8l-46.3,49.1c1.4,2.4,2.2,5.1,2.2,8
				c0.3,9.5-7.2,17.4-16.7,17.7c-0.3,0-0.6,0-0.9,0c-7.8,0-14.3-3.2-16.3-13.1c-7.8-2.2-12.4-8.3-12.6-16.1
				c-0.3-9.5,7.2-17.4,16.7-17.7c0.2,0,0.4,0,0.7,0c1.9,0,4.7,0.2,6.2,0.6l45.8-48.6L-1272.5,1360.1 M-1272.5,1353.1
				c-1.7,0-3.4,0.6-4.7,1.8l-8.5,7.8c-0.1,0.1-0.3,0.2-0.4,0.4l-43.3,45.9c-1.7-0.1-3.1-0.2-3.6-0.2c-0.3,0-0.6,0-0.9,0
				c-13.3,0.4-23.9,11.6-23.5,24.9c0.3,9.6,5.5,17.4,13.8,21.2c3.3,9.6,11,14.8,22.1,14.8c0.4,0,0.7,0,1.1,0
				c6.5-0.2,12.5-2.9,16.9-7.6c4.4-4.7,6.8-10.9,6.6-17.3c-0.1-2.1-0.4-4.3-1-6.3l43.1-45.8l7.3-7.8c2.1-2.3,2.5-5.6,1-8.3
				c-1.3-2.2-3.6-3.5-6.1-3.5c-0.5,0-1.1,0.1-1.6,0.2l-15.1,3.6l3.5-15.3c0.7-3-0.6-6.1-3.3-7.6
				C-1270.1,1353.4-1271.3,1353.1-1272.5,1353.1L-1272.5,1353.1z"/>
		</g>
		<path id="XMLID_162_" class="st10" d="M-1318.3,1429.9c0,0-9.8,0.3-13.1,6.7"/>
		<path id="XMLID_163_" class="st10" d="M-1284.1,1365.6c-8-37.2,22.7-103.4,50.5-133c33.3-35.3,84.2-41.4,113.8-13.5
			c29.6,27.9,26.6,79.1-6.6,114.4c-28.5,30.2-95,65.7-132.2,57.9"/>
		<circle id="XMLID_54_" class="st3" cx="-1221.9" cy="1368.4" r="3.7"/>
		<circle id="XMLID_55_" class="st3" cx="-1178.3" cy="1242.4" r="3.7"/>
		<circle id="XMLID_56_" class="st3" cx="-1196.3" cy="1247" r="3.7"/>
		<circle id="XMLID_57_" class="st3" cx="-1197.6" cy="1268.8" r="3.7"/>
	</g>
	<g id="Meat_Gry_1_" class="st2">
		<g id="XMLID_256_">
			<path id="XMLID_3060_" class="st5" d="M-922.5,1360.1l-6,26.3l26.1-6.3l-7.3,7.8L-956,1437c1.4,2.4,2.2,5.1,2.2,8
				c0.3,9.5-7.2,17.4-16.7,17.7c-0.3,0-0.6,0-0.9,0c-7.8,0-14.3-3.2-16.3-13.1c-7.8-2.2-12.4-8.3-12.6-16.1
				c-0.3-9.5,7.2-17.4,16.7-17.7c0.2,0,0.4,0,0.7,0c1.9,0,4.7,0.2,6.2,0.6l45.8-48.6L-922.5,1360.1 M-922.5,1353.1
				c-1.7,0-3.4,0.6-4.7,1.8l-8.5,7.8c-0.1,0.1-0.3,0.2-0.4,0.4l-43.3,45.9c-1.7-0.1-3.1-0.2-3.6-0.2c-0.3,0-0.6,0-0.9,0
				c-6.5,0.2-12.5,2.9-16.9,7.6s-6.8,10.9-6.6,17.3c0.3,9.6,5.5,17.4,13.8,21.2c3.3,9.6,11,14.8,22.1,14.8c0.4,0,0.7,0,1.1,0
				c6.5-0.2,12.5-2.9,16.9-7.6s6.8-10.9,6.6-17.3c-0.1-2.1-0.4-4.3-1-6.3l43.1-45.8l7.3-7.8c2.1-2.3,2.5-5.6,1-8.3
				c-1.3-2.2-3.6-3.5-6.1-3.5c-0.5,0-1.1,0.1-1.6,0.2l-15.1,3.6l3.5-15.3c0.7-3-0.6-6.1-3.3-7.6
				C-920.1,1353.4-921.3,1353.1-922.5,1353.1L-922.5,1353.1z"/>
		</g>
		<path id="XMLID_255_" class="st12" d="M-968.3,1429.9c0,0-9.8,0.3-13.1,6.7"/>
		<path id="XMLID_254_" class="st12" d="M-934.1,1365.6c-8-37.2,22.7-103.4,50.5-133c33.3-35.3,84.2-41.4,113.8-13.5
			c29.6,27.9,26.6,79.1-6.6,114.4c-28.5,30.2-95,65.7-132.2,57.9"/>
		<circle id="XMLID_253_" class="st5" cx="-871.9" cy="1368.4" r="3.7"/>
		<circle id="XMLID_252_" class="st5" cx="-828.3" cy="1242.4" r="3.7"/>
		<circle id="XMLID_251_" class="st5" cx="-846.3" cy="1247" r="3.7"/>
		<circle id="XMLID_250_" class="st5" cx="-847.6" cy="1268.8" r="3.7"/>
	</g>
	<g id="Meat_Wht" class="st2">
		<g id="XMLID_368_">
			<path id="XMLID_3056_" class="st7" d="M-572.5,1360.1l-6,26.3l26.1-6.3l-7.3,7.8L-606,1437c1.4,2.4,2.2,5.1,2.2,8
				c0.3,9.5-7.2,17.4-16.7,17.7c-0.3,0-0.6,0-0.9,0c-7.8,0-14.3-3.2-16.3-13.1c-7.8-2.2-12.4-8.3-12.6-16.1
				c-0.3-9.5,7.2-17.4,16.7-17.7c0.2,0,0.4,0,0.7,0c1.9,0,4.7,0.2,6.2,0.6l45.8-48.6L-572.5,1360.1 M-572.5,1353.1
				c-1.7,0-3.4,0.6-4.7,1.8l-8.5,7.8c-0.1,0.1-0.3,0.2-0.4,0.4l-43.3,45.9c-1.7-0.1-3.1-0.2-3.6-0.2c-0.3,0-0.6,0-0.9,0
				c-6.5,0.2-12.5,2.9-16.9,7.6s-6.8,10.9-6.6,17.3c0.3,9.6,5.5,17.4,13.8,21.2c3.3,9.6,11,14.8,22.1,14.8c0.4,0,0.7,0,1.1,0
				c6.5-0.2,12.5-2.9,16.9-7.6s6.8-10.9,6.6-17.3c-0.1-2.1-0.4-4.3-1-6.3l43.1-45.8l7.3-7.8c2.1-2.3,2.5-5.6,1-8.3
				c-1.3-2.2-3.6-3.5-6.1-3.5c-0.5,0-1.1,0.1-1.6,0.2l-15.1,3.6l3.5-15.3c0.7-3-0.6-6.1-3.3-7.6
				C-570.1,1353.4-571.3,1353.1-572.5,1353.1L-572.5,1353.1z"/>
		</g>
		<path id="XMLID_367_" class="st14" d="M-618.3,1429.9c0,0-9.8,0.3-13.1,6.7"/>
		<path id="XMLID_366_" class="st14" d="M-584.1,1365.6c-8-37.2,22.7-103.4,50.5-133c33.3-35.3,84.2-41.4,113.8-13.5
			c29.6,27.9,26.6,79.1-6.6,114.4c-28.5,30.2-95,65.7-132.2,57.9"/>
		<circle id="XMLID_365_" class="st7" cx="-521.9" cy="1368.4" r="3.7"/>
		<circle id="XMLID_364_" class="st7" cx="-478.3" cy="1242.4" r="3.7"/>
		<circle id="XMLID_363_" class="st7" cx="-496.3" cy="1247" r="3.7"/>
		<circle id="XMLID_362_" class="st7" cx="-497.6" cy="1268.8" r="3.7"/>
	</g>
	<g id="Meat_Red" class="st2">
		<g id="XMLID_926_">
			<path id="XMLID_2984_" class="st9" d="M-222.5,1360.1l-6,26.3l26.1-6.3l-7.3,7.8l-46.4,49.1c1.4,2.4,2.2,5.1,2.2,8
				c0.3,9.5-7.2,17.4-16.7,17.7c-0.3,0-0.6,0-0.9,0c-7.8,0-14.3-3.2-16.3-13.1c-7.8-2.2-12.4-8.3-12.6-16.1
				c-0.3-9.5,7.2-17.4,16.7-17.7c0.2,0,0.4,0,0.7,0c1.9,0,4.7,0.2,6.2,0.6l45.8-48.6L-222.5,1360.1 M-222.5,1353.1
				c-1.7,0-3.4,0.6-4.7,1.8l-8.5,7.8c-0.1,0.1-0.3,0.2-0.4,0.4l-43.3,45.9c-1.7-0.1-3.1-0.2-3.6-0.2c-0.3,0-0.6,0-0.9,0
				c-6.5,0.2-12.5,2.9-16.9,7.6c-4.4,4.7-6.8,10.9-6.6,17.3c0.3,9.6,5.5,17.4,13.8,21.2c3.3,9.6,11,14.8,22.1,14.8
				c0.4,0,0.7,0,1.1,0c6.5-0.2,12.5-2.9,16.9-7.6s6.8-10.9,6.6-17.3c-0.1-2.1-0.4-4.3-1-6.3l43.1-45.8l7.3-7.8
				c2.1-2.3,2.5-5.6,1-8.3c-1.3-2.2-3.6-3.5-6.1-3.5c-0.5,0-1.1,0.1-1.6,0.2l-15.1,3.6l3.5-15.3c0.7-3-0.6-6.1-3.3-7.6
				C-220.1,1353.4-221.3,1353.1-222.5,1353.1L-222.5,1353.1z"/>
		</g>
		<path id="XMLID_925_" class="st16" d="M-268.3,1429.9c0,0-9.8,0.3-13.1,6.7"/>
		<path id="XMLID_924_" class="st16" d="M-234.1,1365.6c-8-37.2,22.7-103.4,50.5-133c33.3-35.3,84.2-41.4,113.8-13.5
			s26.6,79.1-6.6,114.4c-28.5,30.2-95,65.7-132.2,57.9"/>
		<g id="XMLID_2936_">
			<circle id="XMLID_923_" class="st9" cx="-171.9" cy="1368.4" r="3.7"/>
			<circle id="XMLID_922_" class="st9" cx="-128.3" cy="1242.4" r="3.7"/>
			<circle id="XMLID_921_" class="st9" cx="-146.3" cy="1247" r="3.7"/>
			<circle id="XMLID_920_" class="st9" cx="-147.6" cy="1268.8" r="3.7"/>
		</g>
	</g>
</g>
<g id="Clock_1_" class="st0">
	<g id="Clock_Blk" class="st2">
		<circle id="XMLID_77_" class="st10" cx="171" cy="986" r="138.3"/>
		<polyline id="XMLID_123_" class="st10" points="171,867.5 171,986 101.5,1024 		"/>
	</g>
</g>
<g id="Heart_1_" class="st0">
	<g id="Heart" class="st2">
		<path id="XMLID_78_" class="st16" d="M289.3,174.7L289.3,174.7c-26.2-30.8-69.2-30.8-95.4,0L172,200.4l-21.9-25.7
			c-26.2-30.8-69.2-30.8-95.4,0l0,0c-26.2,30.8-26.2,71,0,101.8l117.2,137.4v0.3l117.4-137.7C315.6,245.7,315.6,205.5,289.3,174.7z"
			/>
		<path id="XMLID_58_" class="st16" d="M229,169.3c38.1-11.9,71.1,28.1,63.9,66.5"/>
	</g>
	<g id="Heart_x28_Filled_x29_" class="st2">
		<path id="XMLID_79_" class="st17" d="M289.3,524.7L289.3,524.7c-26.2-30.8-69.2-30.8-95.4,0L172,550.4l-21.9-25.7
			c-26.2-30.8-69.2-30.8-95.4,0l0,0c-26.2,30.8-26.2,71,0,101.8l117.2,137.4v0.3l117.4-137.7C315.6,595.7,315.6,555.5,289.3,524.7z"
			/>
		<path id="XMLID_76_" class="st18" d="M229,519.3c38.1-11.9,71.1,28.1,63.9,66.5"/>
	</g>
</g>
</svg>
