<?xml version="1.0" encoding="utf-8"?>
<!-- Generator: Adobe Illustrator 19.0.0, SVG Export Plug-In . SVG Version: 6.00 Build 0)  -->
<svg version="1.1" id="Layer_1" xmlns="http://www.w3.org/2000/svg" xmlns:xlink="http://www.w3.org/1999/xlink" x="0px" y="0px"
	 viewBox="0 0 207.1 181.9" style="enable-background:new 0 0 207.1 181.9;" xml:space="preserve">
<style type="text/css">
	.st0{fill:#4B33C2;}
	.st1{fill:#8080F1;}
</style>
<g>
	<path class="st0" d="M103.7,181.8c-15,0-30-0.1-45,0c-5.3,0-9.1-1.9-11.8-6.6C32.1,149.5,17.1,123.7,2,98.1
		c-2.6-4.5-2.7-8.5-0.1-13.1C17.3,58.8,32.5,32.4,47.7,6.1C50.1,1.9,53.5,0,58.3,0c30.1,0,60.3,0,90.4,0c4.7,0,8.4,2,10.8,6.3
		c15.2,26.4,30.3,52.7,45.6,79c2.5,4.4,2.5,8.2,0,12.6c-15.1,25.8-30.2,51.7-45.1,77.6c-2.7,4.7-6.3,6.4-11.4,6.4
		C133.6,181.8,118.7,181.8,103.7,181.8z M167.2,91.7c0-10.5-0.1-21,0.1-31.5c0.1-3.7-1.3-5.7-4.4-7.5
		c-18.2-10.3-36.4-20.7-54.5-31.3c-3.7-2.2-6.4-2-9.9,0.1c-17.9,10.5-35.9,20.9-54,31.1c-3.3,1.9-4.6,4.1-4.6,7.9
		c0.2,19.3,0.3,38.6,0,58c-0.1,6.7,1.4,10.8,8,14.3c17.4,9.1,34.3,19.3,51.3,29.2c3.1,1.8,5.4,2.1,8.7,0.2
		c18.3-10.8,36.8-21.3,55.3-31.8c3-1.7,4.2-3.7,4.2-7.2C167.1,112.7,167.2,102.2,167.2,91.7z"/>
	<path class="st1" d="M146.3,91.9c0,6.3-0.1,12.7,0.1,19c0.1,3.6-1.1,5.8-4.3,7.6c-11.8,6.5-23.4,13.3-35,20.1
		c-2.4,1.4-4.5,1.5-6.9,0.1c-11.6-6.8-23.3-13.5-35-20.1c-3.1-1.7-4.5-3.9-4.4-7.6c0.2-12.8,0.2-25.6,0-38.4c0-3.7,1.2-6.2,4.5-8
		c11.8-6.6,23.4-13.3,35-20.1c2.3-1.3,4.1-1.4,6.4-0.1c11.8,6.9,23.5,13.7,35.4,20.4c3.2,1.8,4.3,4.2,4.2,7.7
		C146.2,79,146.3,85.5,146.3,91.9z"/>
</g>
</svg>
