<?xml version="1.0" encoding="utf-8"?>
<!-- Generator: Adobe Illustrator 19.0.0, SVG Export Plug-In . SVG Version: 6.00 Build 0)  -->
<svg version="1.1" id="Layer_1" xmlns="http://www.w3.org/2000/svg" xmlns:xlink="http://www.w3.org/1999/xlink" x="0px" y="0px"
	 viewBox="0 0 960 560" style="enable-background:new 0 0 960 560;" xml:space="preserve">
<style type="text/css">
	.st0{display:none;}
	.st1{display:inline;fill:#F9F9F9;}
	.st2{fill:#F9F9F9;}
</style>
<g id="XMLID_1_" class="st0">
	<path id="XMLID_51_" class="st1" d="M378.6,461.8c0,14.8,0,29,0,43.1c0,3.7,0.1,7.3,0.1,11c-0.2,12.3-9.1,18.9-20.9,15.1
		c-28.1-9-54-22.4-77.8-39.6c-57.7-41.6-96.3-96.6-115.2-165.2c-8.5-30.8-11.7-62.2-9.9-94.3c3.8-64.6,25.7-122.2,66.7-172.1
		C267.5,3.8,326.4-31.2,397.7-45c23.3-4.5,46.9-6.1,70.5-4.8c69,4,129.8,28.5,181.8,74.3c47.9,42.2,78.8,94.6,93.6,156.6
		c7.2,30.2,9,60.8,6.4,91.7c-4.8,58.9-25.4,111.7-61.5,158.3c-36.2,46.7-82.5,79.6-138.3,99.2c-11.4,4-20.2,0.4-22.7-9
		c-0.5-2-0.5-4.3-0.5-6.4c0-26.2,0-52.3,0.2-78.5c0.1-20.7-4-40-19-55.8c11.6-2.2,22.8-3.9,33.8-6.5c27.9-6.6,52.9-18.5,71.7-41.1
		c14.4-17.3,22.3-37.6,26.2-59.5c4-22.7,5.4-45.6,0.4-68.5c-4-18.4-12.3-34.7-24.6-48.9c-2.3-2.6-2.6-4.8-1.6-8
		c7.5-24.4,5.2-48.5-3.6-72.1c-0.6-1.5-3.4-3-5.3-3.1c-14.3-0.8-27.6,3.7-40.2,9.8c-11.6,5.7-22.6,12.6-34,18.7
		c-2.1,1.1-5,1.8-7.2,1.3c-34.7-8.7-69.9-11.2-105.4-6.7c-12.1,1.5-24.1,4.3-36.1,6.9c-3.3,0.7-5.6,0.2-8.3-1.5
		c-16.8-11.1-34.3-21.1-54-26c-6.7-1.7-13.8-2-20.7-2.4c-1.5-0.1-4,1.8-4.5,3.3c-8.9,24-11.2,48.3-3.2,73.1c0.5,1.6-0.1,4.2-1.2,5.5
		c-22.8,26.9-30.7,58.2-28,92.9c1.8,22.2,5.5,43.8,15.5,63.9c15.3,30.8,40.9,49.3,73.1,59c14.9,4.5,30.3,7,45.6,10.5
		c-1.1,1.3-2.9,3.1-4.4,5.1c-6.7,8.7-10.3,18.8-12.5,29.5c-0.4,1.8-1.3,4.3-2.6,4.8c-19.6,8.1-39.3,10.8-59,0.5
		c-10.5-5.5-18.2-13.9-24.2-23.9c-8.1-13.4-18.5-24.6-33.7-29.7c-6.3-2.1-13.3-2.2-20-2.4c-2.3-0.1-5.7,2-6.7,4.1
		c-0.7,1.5,1.3,4.8,2.8,6.7c1.7,2.2,4,4.1,6.4,5.5c16.8,10,26.8,25.5,34,43c9.6,23.3,27.9,35.2,51.8,39.4
		C344.9,466.8,361.1,465.4,378.6,461.8z"/>
	<path id="XMLID_50_" class="st1" d="M369.6,440.6c-2.4-2.6-3.9-4.2-5.5-5.8c2.2-1.6,4.3-4,6.7-4.5c1.6-0.3,3.8,2.1,5.7,3.3
		C374.5,435.7,372.5,437.7,369.6,440.6z"/>
	<path id="XMLID_49_" class="st1" d="M347.7,431.2c2.6,2.6,4.4,4.4,6.1,6.2c-2.2,1.4-4.4,3.8-6.6,3.9c-2,0.1-4-2.5-6-3.9
		C343.1,435.6,344.9,433.9,347.7,431.2z"/>
	<path id="XMLID_48_" class="st1" d="M299.5,416.2c4.6-0.1,8.5,3.3,8.2,6.4c-0.2,1.5-1.8,3.5-3.2,3.9c-2.6,0.7-7.6-3.9-7.2-6.8
		C297.5,418.2,299,416.9,299.5,416.2z"/>
	<path id="XMLID_47_" class="st1" d="M324.2,439.8c-2.9-3-4.9-5.2-7-7.3c1.6-1.1,3.1-3,4.8-3.2c3.6-0.5,6.8,1.3,7.3,5
		C329.4,435.6,326.7,437.2,324.2,439.8z"/>
	<path id="XMLID_46_" class="st1" d="M294.2,405.4c-2.7,2-4.7,3.9-5,3.7c-2.2-1.9-4.2-4.1-5.8-6.4c-0.2-0.3,2.7-3.5,2.9-3.3
		C288.8,400.8,290.9,402.7,294.2,405.4z"/>
	<path id="XMLID_45_" class="st1" d="M281.7,388.9c-2.4,1.8-4,3.4-4.2,3.2c-2-1.6-3.8-3.4-5.4-5.4c-0.1-0.1,2.1-2.7,2.4-2.6
		C276.6,385.3,278.6,386.8,281.7,388.9z"/>
	<path id="XMLID_44_" class="st1" d="M263.3,372.9c1.3,1.5,2.5,3,3.8,4.5c-1,0.8-2.5,2.4-3,2.2c-1.7-0.9-3.5-2.2-4.4-3.9
		c-0.5-0.8,0.9-2.6,1.4-4C261.8,372.1,262.6,372.5,263.3,372.9z"/>
</g>
<g id="XMLID_2_" class="st0">
	<path id="XMLID_28_" class="st1" d="M709,497c-170.6,0-341.2,0-511.9,0c0-170.5,0-341.1,0-511.8c170.6,0,341.2,0,511.9,0
		C709,155.7,709,326.3,709,497z M469.4,385.2c0-2.7,0-4.9,0-7c0-39.2,0-78.3,0-117.5c0-4.3,0.4-8.7,1.1-12.9
		c1.9-11.3,10.4-19.8,21.6-21.2c5.7-0.7,11.7-0.8,17.3,0c10.8,1.6,18.3,7.8,21.2,18.6c1.2,4.6,1.9,9.5,1.9,14.3
		c0.1,39.8,0.1,79.6,0.1,119.5c0,2.1,0,4.2,0,6.1c22.1,0,43.3,0,64.6,0c0.1-1.4,0.2-2.4,0.2-3.4c0-43.6,0.4-87.3-0.4-130.9
		c-0.3-14.3-2.7-28.8-6.1-42.8c-5.5-22.7-19.1-38.9-42.8-44.9c-12.4-3.2-25.2-3.2-37.7-1.9c-17.6,1.7-34,6.3-41.4,25.6
		c0-8.5,0-17.1,0-25.6c-21.7,0-42.9,0-64.2,0c0,74.9,0,149.5,0,224.2C426.5,385.2,447.6,385.2,469.4,385.2z M308.9,160.9
		c0,74.9,0,149.4,0,224.2c21.5,0,42.7,0,64.2,0c0-74.9,0-149.4,0-224.2C351.7,160.9,330.6,160.9,308.9,160.9z M340.9,145.4
		c18.5,0,32.5-14,32.5-32.4c0-18.2-14-32.4-32.1-32.4c-18.7,0-32.8,13.8-32.8,32.2C308.6,131.3,322.5,145.4,340.9,145.4z"/>
</g>
<g id="XMLID_3_">
	<path id="XMLID_35_" class="st2" d="M264.8,173.5c0-20.3,0.2-40.7-0.1-61c-0.1-11.7,2.7-22.7,6.1-33.6c3.2-10.6,6.5-21.2,10.6-31.5
		c3.5-8.7,7.8-17.2,12.4-25.4c10.8-19.3,24.1-36.9,40.5-51.8c11.6-10.6,23.8-20.4,38-27.4c9-4.5,17.8-9.6,26.9-13.7
		c6-2.7,12.4-4.2,18.7-6.1c4.6-1.4,9.2-2.7,13.8-3.9c18-4.5,36.2-7.3,54.8-6.3c18.9,1,37.7,3.1,55.7,9.8c10.9,4.1,22.2,7.3,32.8,12
		c17.4,7.8,33.2,18.4,47.7,30.8c15.4,13.1,28.5,28.3,38.9,45.6c6.7,11.2,13.5,22.5,18.4,34.5c5.7,14,9.3,28.9,14.1,43.2
		c4.1,12.1,3.6,24.6,3.6,37.1c0,36.3-0.3,72.6,0.2,109c0.1,9.1-3.1,16.1-8.7,22.5c-12.3,14.1-27.2,25.1-42.3,35.8
		c-8,5.6-15.5,11.9-23.4,17.6c-19.8,14.4-39.5,28.8-59.6,42.8c-16.3,11.3-32.7,22.4-49.7,32.6c-9.2,5.6-19.4,10.1-29.8,13
		c-5.2,1.4-12.2-1-17.6-3.5c-11-5.2-21.9-10.9-32.1-17.5c-21.3-14-42.3-28.4-63.1-43.2c-21.4-15.2-42.4-30.9-63.4-46.8
		c-10.5-8-20.6-16.5-30.4-25.4c-4.6-4.2-8.2-9.6-11.4-14.9c-1.5-2.5-1.6-6.1-1.7-9.2C264.7,216.8,264.8,195.2,264.8,173.5z
		 M481,179.4C481,179.4,481,179.4,481,179.4c38.3,0,76.6,0,114.9,0.1c4.3,0,5.4-1.8,5.4-5.8c-0.1-17.3,0.1-34.6-0.1-52
		c-0.1-10.7,0-21.1-4.4-31.7c-5.9-13.9-12.4-27.2-22.7-38c-8-8.4-17.3-15.8-26.6-22.8c-5.2-3.9-11.6-6.4-17.5-9.2
		c-9.1-4.4-18.8-7.2-28.8-9c-5.7-1-11.4-2.3-17.1-2.8c-14.7-1.2-28.5,3.5-42.1,7.9c-15.6,5-29.6,13.1-42.1,23.8
		c-12.1,10.5-22.1,22.8-28.9,37.3c-4.5,9.7-10.1,19.2-10.2,30.4c-0.2,22.2,0,44.3-0.1,66.5c0,3.8,1.4,5.3,5.3,5.3
		C404.4,179.4,442.7,179.4,481,179.4z"/>
	<path id="XMLID_34_" class="st2" d="M696.2,291.3c0.7,3.5,1.5,5.8,1.5,8.1c0.1,65.8,0,131.6,0.1,197.4c0,11.5-10.2,23.5-20.9,24.5
		c-3.3,0.3-6.6,0.8-9.9,0.8c-123.5,0-246.9,0-370.4,0c-7,0-14-0.1-20.1-4.3c-8.1-5.5-11.8-13-11.8-22.8c0.1-57,0.1-114,0.1-170.9
		c0-7.8-0.1-15.7,0.1-23.5c0-2.6,0.5-5.2,1-9c5.3,3.5,9.7,6.3,13.9,9.3c20.1,14.3,40.2,28.5,60.2,42.9c21.8,15.6,43.3,31.6,65.2,47
		c13.1,9.2,26.1,18.8,40.3,26c10.6,5.4,22.8,7.7,34.5,10.6c3.4,0.8,7.5-0.9,11.2-1.7c19.2-4,35.7-13,51.3-24.8
		c17.5-13.3,36-25.3,53.9-38c16.9-12,33.5-24.2,50.3-36.3c9.1-6.5,18.5-12.8,27.6-19.4C681.3,302.3,688.1,297.2,696.2,291.3z"/>
</g>
</svg>
