<?xml version="1.0" encoding="utf-8"?>
<!-- Generator: Adobe Illustrator 19.0.0, SVG Export Plug-In . SVG Version: 6.00 Build 0)  -->
<svg version="1.1" id="Layer_1" xmlns="http://www.w3.org/2000/svg" xmlns:xlink="http://www.w3.org/1999/xlink" x="0px" y="0px"
	 viewBox="0 0 500 500" style="enable-background:new 0 0 500 500;" xml:space="preserve">
<style type="text/css">
	.st0{display:none;fill:#333333;}
	.st1{fill:url(#XMLID_11_);}
	.st2{fill:url(#XMLID_12_);}
	.st3{fill:url(#XMLID_13_);}
</style>
<g id="XMLID_1_">
	<polyline id="XMLID_6_" class="st0" points="269.7,249 272.3,347 322.3,299 321,252 269.7,249 	"/>
	<polygon id="XMLID_9_" class="st0" points="169.7,252 121.5,299 122.7,347 169.7,303.4 172.3,348.7 224.1,300.3 221.7,199 	"/>
	<polygon id="XMLID_8_" class="st0" points="72,252 72,298 119.3,252 	"/>
	<polygon id="XMLID_3_" class="st0" points="121,151 121,199 72,247 72,201 	"/>
	<linearGradient id="XMLID_11_" gradientUnits="userSpaceOnUse" x1="98" y1="150.4095" x2="98" y2="360.8569">
		<stop  offset="1.076729e-007" style="stop-color:#3FC1FF"/>
		<stop  offset="1" style="stop-color:#2A7BFF"/>
	</linearGradient>
	<path id="XMLID_87_" class="st1" d="M175.5,203c1-1,1.3-2.5,0.8-3.8c-0.5-1.3-1.8-2.2-3.2-2.2h-48v-48c0-1.4-0.9-2.7-2.2-3.2
		c-1.3-0.5-2.8-0.2-3.8,0.8l-49.9,49.9l0,0l-48.7,51.7c-1,1-1.2,2.5-0.7,3.8c0.6,1.3,1.8,2.1,3.2,2.1h45v45c0.2,0.6,0.6,1.2,1,1.6
		c0.2,0.2,0.4,0.5,0.8,0.8l49.3,50c0,0,0.1,0,0.1,0.1c0.1,0.1,0.2,0.2,0.4,0.3c0,0,0.1,0.1,0.1,0.1c0.2,0.1,0.3,0.2,0.5,0.3
		c0.2,0.1,0.4,0.2,0.7,0.2c0.2,0,0.5,0.1,0.7,0.1c0,0,0,0,0,0s0,0,0,0c0.2,0,0.5,0,0.7-0.1c0.2,0,0.5-0.1,0.7-0.2
		c0.2-0.1,0.4-0.2,0.5-0.3c0.1,0,0.1-0.1,0.1-0.1c0.1-0.1,0.3-0.2,0.4-0.3c0,0,0.1,0,0.1-0.1l50-50c0.7-0.7,1-1.5,1-2.5v-50
		c0-1.4-0.9-2.7-2.2-3.2c-1.3-0.5-2.8-0.2-3.8,0.8l-22,22l-19-18.6L175.5,203z M121.5,204h43l-43.2,42.8c-0.1,0.1-0.2,0.1-0.3,0.2
		H78.4L121.5,204z M75,200.4l43-43v40.1l-43,43V200.4z M68,207.8V247H31.1L68,207.8z M113.7,254l-18,17.4L75,290.9V254H113.7z
		 M168,297.5l-43,43v-40.1l24.7-24.4c0.3-0.3,0.6-0.7,0.7-1.1l17.6-17.6V297.5z M119,296.5c-0.1,0.1-0.2,0.2-0.3,0.3
		c-0.1,0.1-0.1,0.1-0.2,0.2c-0.1,0.1-0.1,0.2-0.2,0.4c0,0.1-0.1,0.2-0.1,0.2c-0.1,0.1-0.1,0.3-0.1,0.4c0,0.1-0.1,0.1-0.1,0.2
		c0,0.2-0.1,0.5-0.1,0.7v41.5l-40.8-41.4l23.3-22.6l22.8-21.4l18.8,18.4L119,296.5z"/>
	<linearGradient id="XMLID_12_" gradientUnits="userSpaceOnUse" x1="246.7501" y1="150.4095" x2="246.7501" y2="360.8569">
		<stop  offset="1.076729e-007" style="stop-color:#3FC1FF"/>
		<stop  offset="1" style="stop-color:#2A7BFF"/>
	</linearGradient>
	<path id="XMLID_17_" class="st2" d="M325,249l-7,0.1l0.5,49L275,342v-41.5V249h-7v48l-42,0l-1-98c0-1.4-0.9-2.7-2.2-3.2
		c-1.3-0.5-2.8-0.2-3.8,0.8l-50,50c-0.7,0.7-1,1.5-1,2.5l0.1,101.2c0,0,0,0.1,0,0.1c0,0.1,0,0.2,0,0.3c0,0.1,0,0.2,0,0.3
		c0,0.1,0,0.2,0.1,0.2c0,0.1,0.1,0.2,0.1,0.3c0,0,0,0.1,0,0.1c0,0,0,0.1,0,0.1c0,0.1,0.1,0.2,0.1,0.2c0,0.1,0.1,0.1,0.1,0.2
		c0,0.1,0.1,0.1,0.1,0.2c0.1,0.1,0.1,0.1,0.2,0.2c0.1,0.1,0.1,0.1,0.2,0.2c0.1,0.1,0.1,0.1,0.2,0.2c0.1,0.1,0.1,0.1,0.2,0.2
		c0.1,0.1,0.1,0.1,0.2,0.1c0.1,0,0.1,0.1,0.2,0.1c0.1,0,0.2,0.1,0.2,0.1c0,0,0.1,0,0.1,0c0,0,0.1,0,0.1,0c0.1,0.1,0.3,0.1,0.5,0.1
		c0.1,0,0.1,0,0.2,0c0.2,0,0.4,0.1,0.6,0.1l99.4,0.3c0.2,0,0.4,0.1,0.6,0.1c0.9,0,1.8-0.4,2.5-1l50.5-51.1c0.7-0.7,1-1.6,1-2.5
		L325,249z M218.1,207.4l1,91.2l-44,43.3l-0.1-91.4L218.1,207.4z M223.7,303.9L268,304v43l-87.9-0.3L223.7,303.9z"/>
	<linearGradient id="XMLID_13_" gradientUnits="userSpaceOnUse" x1="372.14" y1="150.4095" x2="372.14" y2="360.8569">
		<stop  offset="1.076729e-007" style="stop-color:#3FC1FF"/>
		<stop  offset="1" style="stop-color:#2A7BFF"/>
	</linearGradient>
	<path id="XMLID_58_" class="st3" d="M473,297h-47.8l-21.3-43H423c0.9,0,1.8-0.4,2.5-1l50-50c1-1,1.3-2.5,0.8-3.8
		c-0.5-1.3-1.8-2.2-3.2-2.2h-50c-0.9,0-1.8,0.4-2.5,1L391,227.6l-14.8-28.7c-0.6-1.2-1.8-1.9-3.1-1.9h-50c-0.9,0-1.8,0.3-2.4,1
		l-51.5,48.5c-1,1-1.4,2.5-0.9,3.8c0.5,1.3,1.8,2.2,3.2,2.3l49.4,1.4l21.5,42.9l-19.9-0.5c-0.9,0-1.9,0.3-2.6,1l-51,50.7
		c-1,1-1.3,2.5-0.8,3.8c0.5,1.3,1.8,2.2,3.2,2.2H323c0.9,0,1.8-0.4,2.5-1l29.9-29.9l14.5,29c0.6,1.2,1.8,1.9,3.1,1.9h50
		c0.9,0,1.8-0.4,2.5-1l50-50c1-1,1.3-2.5,0.8-3.8C475.7,297.9,474.4,297,473,297z M321.5,347h-41.8l43.9-43.6l22,0.6l6.1,12.8
		L321.5,347z M424.5,204h40.1l-43,43h-40.1L424.5,204z M421.5,347h-46.4l-49-98.1c-0.6-1.2-1.7-1.9-3-1.9l-43-1.3l44.3-41.7h46.5
		l14.9,28.8L370.5,248c-1,1-1.3,2.5-0.8,3.8c0.5,1.3,1.8,2.2,3.2,2.2h23l23.8,48.1c0.6,1.2,1.8,1.9,3.1,1.9h41.5L421.5,347z"/>
</g>
</svg>
