<?xml version="1.0" encoding="utf-8"?>
<!-- Generator: Adobe Illustrator 19.0.0, SVG Export Plug-In . SVG Version: 6.00 Build 0)  -->
<svg version="1.1" id="Layer_1" xmlns="http://www.w3.org/2000/svg" xmlns:xlink="http://www.w3.org/1999/xlink" x="0px" y="0px"
	 viewBox="0 0 500 210" style="enable-background:new 0 0 500 500;" xml:space="preserve">
<style type="text/css">
	.st0{fill:url(#XMLID_63_);}
	.st1{fill:url(#XMLID_64_);}
	.st2{fill:url(#XMLID_65_);}
	.st3{fill:url(#XMLID_66_);}
	.st4{fill:url(#XMLID_67_);}
	.st5{fill:url(#XMLID_68_);}
	.st6{fill:url(#XMLID_69_);}
	.st7{fill:url(#XMLID_70_);stroke:url(#XMLID_71_);stroke-width:7;stroke-linejoin:round;stroke-miterlimit:10;}
	.st8{fill:url(#XMLID_72_);}
	.st9{fill:url(#XMLID_73_);stroke:url(#XMLID_74_);stroke-width:7;stroke-linejoin:round;stroke-miterlimit:10;}
	.st10{fill:url(#XMLID_75_);}
	.st11{fill:url(#XMLID_76_);}
	.st12{fill:url(#XMLID_77_);}
</style>
<g id="XMLID_1_">
	<g id="XMLID_14_">
		<g id="XMLID_3_">
			<linearGradient id="XMLID_63_" gradientUnits="userSpaceOnUse" x1="84.5" y1="200.6667" x2="84.5" y2="353.0058">
				<stop  offset="1.076729e-007" style="stop-color:#3FC1FF"/>
				<stop  offset="1" style="stop-color:#2A7BFF"/>
			</linearGradient>
			<path id="XMLID_56_" class="st0" d="M60,253.5c-0.5,0-1.2-0.1-1.6-0.3c-1.3-0.5-2.4-1.8-2.4-3.2v-50c0-0.9,0.6-1.8,1.3-2.5
				l50.1-50c1-1,2.3-1.3,3.6-0.8c1.3,0.5,2,1.8,2,3.2v50c0,0.9-0.1,1.8-0.8,2.5l-49.9,50C61.7,253.1,60.9,253.5,60,253.5z M63,201.4
				v40.1l43-43v-40.1L63,201.4z"/>
		</g>
		<g id="XMLID_5_">
			<linearGradient id="XMLID_64_" gradientUnits="userSpaceOnUse" x1="86.5" y1="200.6667" x2="86.5" y2="353.0058">
				<stop  offset="1.076729e-007" style="stop-color:#3FC1FF"/>
				<stop  offset="1" style="stop-color:#2A7BFF"/>
			</linearGradient>
			<path id="XMLID_42_" class="st1" d="M111,255H11.5c-1.4,0-2.7-0.8-3.2-2.1c-0.6-1.3-0.3-2.8,0.7-3.8l48.7-51.7l5.1,4.8L19.6,248
				h90l43.4-43h-44v-7h52.5c1.4,0,2.7,0.9,3.2,2.2c0.5,1.3,0.2,2.8-0.8,3.8l-50.5,50C112.8,254.6,111.9,255,111,255z"/>
		</g>
		<g id="XMLID_4_">
			<linearGradient id="XMLID_65_" gradientUnits="userSpaceOnUse" x1="85.5" y1="200.6667" x2="85.5" y2="353.0058">
				<stop  offset="1.076729e-007" style="stop-color:#3FC1FF"/>
				<stop  offset="1" style="stop-color:#2A7BFF"/>
			</linearGradient>
			<path id="XMLID_39_" class="st2" d="M60,303.5c-0.5,0-1.2-0.1-1.6-0.3c-1.3-0.6-2.4-1.8-2.4-3.2v-48.5c0-1.9,2.1-3.5,4-3.5h51.5
				c1.4,0,2.7,0.9,3.3,2.2c0.5,1.3,0.2,2.9-0.9,3.8l-51.5,48.5C61.7,303.2,60.9,303.5,60,303.5z M63,255v36.9l39.7-36.9H63z"/>
		</g>
		<g id="XMLID_10_">
			<linearGradient id="XMLID_66_" gradientUnits="userSpaceOnUse" x1="134.5" y1="200.6667" x2="134.5" y2="353.0058">
				<stop  offset="1.076729e-007" style="stop-color:#3FC1FF"/>
				<stop  offset="1" style="stop-color:#2A7BFF"/>
			</linearGradient>
			<path id="XMLID_36_" class="st3" d="M110,353.5c-0.5,0-1.2-0.1-1.6-0.3c-1.3-0.5-2.4-1.8-2.4-3.2v-50c0-0.9,0.6-1.8,1.3-2.5
				l50.1-50c1-1,2.3-1.3,3.6-0.8c1.3,0.5,2,1.8,2,3.2v50c0,0.9-0.1,1.8-0.8,2.5l-49.9,50C111.7,353.1,110.9,353.5,110,353.5z
				 M113,301.5v40.1l43-43v-40.1L113,301.5z"/>
		</g>
		<g id="XMLID_17_">
			<linearGradient id="XMLID_67_" gradientUnits="userSpaceOnUse" x1="98.2499" y1="200.6667" x2="98.2499" y2="353.0058">
				<stop  offset="1.076729e-007" style="stop-color:#3FC1FF"/>
				<stop  offset="1" style="stop-color:#2A7BFF"/>
			</linearGradient>
			<path id="XMLID_33_" class="st4" d="M110,353.5c-0.9,0-1.8-0.4-2.5-1l-49.3-50c-0.7-0.7-1-1.6-1-2.5c0-0.9,0.4-1.8,1.1-2.5
				l50.8-49.2c1.4-1.3,3.5-1.3,4.9,0l24.2,23.8c0.7,0.7,1,1.6,1,2.5s-0.6,1.8-1.3,2.5l-25,24.4V350c0,1.4-0.6,2.7-1.9,3.2
				C110.6,353.4,110.4,353.5,110,353.5z M65.5,300.1l40.5,41.4V300c0-0.9,0.6-1.8,1.3-2.5l23.3-22.9l-19.3-18.9L65.5,300.1z"/>
		</g>
	</g>
	<g id="XMLID_12_">
		<g id="XMLID_6_">
			<linearGradient id="XMLID_68_" gradientUnits="userSpaceOnUse" x1="212.5313" y1="200.6667" x2="212.5313" y2="353.0058">
				<stop  offset="1.076729e-007" style="stop-color:#3FC1FF"/>
				<stop  offset="1" style="stop-color:#2A7BFF"/>
			</linearGradient>
			<path id="XMLID_30_" class="st5" d="M187.1,353.7c-0.5,0-0.9-0.1-1.4-0.3c-1.3-0.5-2.1-1.8-2.1-3.2L183.5,249
				c0-0.9,0.4-1.8,1-2.5l50-50c1-1,2.5-1.3,3.8-0.8c1.3,0.5,2.2,1.8,2.2,3.2l1.1,101c0,1-0.4,1.9-1,2.5l-51,50.2
				C188.9,353.3,188,353.7,187.1,353.7z M190.5,250.4l0.1,91.4l44-43.3l-1-91.2L190.5,250.4z"/>
		</g>
		<g id="XMLID_7_">
			<linearGradient id="XMLID_69_" gradientUnits="userSpaceOnUse" x1="236.7866" y1="200.6667" x2="236.7866" y2="353.0058">
				<stop  offset="1.076729e-007" style="stop-color:#3FC1FF"/>
				<stop  offset="1" style="stop-color:#2A7BFF"/>
			</linearGradient>
			<path id="XMLID_27_" class="st6" d="M287,354C287,354,287,354,287,354l-99.9-0.3c-1.4,0-2.7-0.9-3.2-2.2
				c-0.5-1.3-0.2-2.8,0.8-3.8l50.7-49.7c0.7-0.6,1.5-1,2.5-1c0,0,0,0,0,0l49,0c1.9,0,3.2,1.5,3.2,3.5v50c0,0.9-0.1,1.8-0.8,2.5
				C288.6,353.6,287.9,354,287,354z M195.4,346.7L283,347v-43l-44.2-0.1L195.4,346.7z"/>
		</g>
		<g id="XMLID_15_">
			<linearGradient id="XMLID_70_" gradientUnits="userSpaceOnUse" x1="337" y1="249" x2="337" y2="249">
				<stop  offset="1.076729e-007" style="stop-color:#3FC1FF"/>
				<stop  offset="1" style="stop-color:#2A7BFF"/>
			</linearGradient>
			<linearGradient id="XMLID_71_" gradientUnits="userSpaceOnUse" x1="337" y1="249" x2="337" y2="249">
				<stop  offset="0" style="stop-color:#3FA9F5"/>
				<stop  offset="1" style="stop-color:#2E3192"/>
			</linearGradient>
			<path id="XMLID_59_" class="st7" d="M337,249"/>
		</g>
		<g id="XMLID_2_">
			<linearGradient id="XMLID_72_" gradientUnits="userSpaceOnUse" x1="311.5352" y1="200.6667" x2="311.5352" y2="353.0058">
				<stop  offset="1.076729e-007" style="stop-color:#3FC1FF"/>
				<stop  offset="1" style="stop-color:#2A7BFF"/>
			</linearGradient>
			<path id="XMLID_26_" class="st8" d="M287,354.1c-0.4,0-1.1-0.1-1.6-0.3c-1.3-0.5-2.4-1.8-2.4-3.2V249c0-1,0.6-1.9,1.3-2.5
				l51.1-48.3l4.6,5.1L290,250.5v91.4l43-44.3V249h7v50c0,0.9-0.1,1.8-0.7,2.4L289.4,353C288.7,353.7,287.9,354.1,287,354.1z"/>
		</g>
		<g id="XMLID_8_">
			<linearGradient id="XMLID_73_" gradientUnits="userSpaceOnUse" x1="338.5" y1="200.7402" x2="338.5" y2="200.7402">
				<stop  offset="1.076729e-007" style="stop-color:#3FC1FF"/>
				<stop  offset="1" style="stop-color:#2A7BFF"/>
			</linearGradient>
			<linearGradient id="XMLID_74_" gradientUnits="userSpaceOnUse" x1="338.5" y1="200.7402" x2="338.5" y2="200.7402">
				<stop  offset="0" style="stop-color:#3FA9F5"/>
				<stop  offset="1" style="stop-color:#2E3192"/>
			</linearGradient>
			<path id="XMLID_16_" class="st9" d="M338.5,200.7"/>
		</g>
	</g>
	<g id="XMLID_13_">
		<g id="XMLID_11_">
			<linearGradient id="XMLID_75_" gradientUnits="userSpaceOnUse" x1="387.7501" y1="200.6667" x2="387.7501" y2="353.0058">
				<stop  offset="1.076729e-007" style="stop-color:#3FC1FF"/>
				<stop  offset="1" style="stop-color:#2A7BFF"/>
			</linearGradient>
			<path id="XMLID_25_" class="st10" d="M438.5,354h-50c-1.3,0-2.5-0.7-3.1-1.9l-49.1-98.1l-49.4-1.4c-1.4,0-2.7-0.9-3.2-2.3
				c-0.5-1.3-0.2-2.8,0.9-3.8l51.5-48.5c0.6-0.6,1.5-1,2.4-1h50c1.3,0,2.5,0.7,3.1,1.9l16.8,32.4l-6.2,3.2L386.4,204h-46.5
				l-44.3,41.7l43,1.3c1.3,0,2.5,0.8,3,1.9l49,98.1H437l43-43h-41.5c-1.3,0-2.5-0.8-3.1-1.9l-25-50.4l6.3-3.1l24,48.4h47.8
				c1.4,0,2.7,0.9,3.2,2.2c0.5,1.3,0.2,2.8-0.8,3.8l-50,50C440.3,353.6,439.4,354,438.5,354z"/>
		</g>
		<g id="XMLID_9_">
			<linearGradient id="XMLID_76_" gradientUnits="userSpaceOnUse" x1="438.5" y1="200.6667" x2="438.5" y2="353.0058">
				<stop  offset="1.076729e-007" style="stop-color:#3FC1FF"/>
				<stop  offset="1" style="stop-color:#2A7BFF"/>
			</linearGradient>
			<path id="XMLID_22_" class="st11" d="M438.5,254h-50c-1.4,0-2.7-0.9-3.2-2.2c-0.5-1.3-0.2-2.8,0.8-3.8l50-50c0.7-0.7,1.5-1,2.5-1
				h50c1.4,0,2.7,0.9,3.2,2.2c0.5,1.3,0.2,2.8-0.8,3.8l-50,50C440.3,253.6,439.4,254,438.5,254z M397,247H437l43-43H440L397,247z"/>
		</g>
		<g id="XMLID_18_">
			<linearGradient id="XMLID_77_" gradientUnits="userSpaceOnUse" x1="329.1616" y1="200.6667" x2="329.1616" y2="353.0058">
				<stop  offset="1.076729e-007" style="stop-color:#3FC1FF"/>
				<stop  offset="1" style="stop-color:#2A7BFF"/>
			</linearGradient>
			<path id="XMLID_19_" class="st12" d="M338.5,354h-51.7c-1.4,0-2.7-0.9-3.2-2.2c-0.5-1.3-0.2-2.8,0.8-3.8l51-50.7
				c0.7-0.7,1.6-1,2.6-1l25.7,0.7c1.3,0,2.5,0.8,3.1,2l8,17c0.6,1.3,0.4,2.9-0.7,4l-33,33C340.3,353.6,339.4,354,338.5,354z
				 M295.3,347H337l30.3-30.3l-6.1-12.8l-22-0.6L295.3,347z"/>
		</g>
	</g>
</g>
</svg>
