<?xml version="1.0" encoding="utf-8"?>
<!-- Generator: Adobe Illustrator 19.0.0, SVG Export Plug-In . SVG Version: 6.00 Build 0)  -->
<svg version="1.1" id="Layer_1" xmlns="http://www.w3.org/2000/svg" xmlns:xlink="http://www.w3.org/1999/xlink" x="0px" y="0px"
	 viewBox="0 0 500 210" style="enable-background:new 0 0 500 210;" xml:space="preserve">
<style type="text/css">
	.st0{fill:url(#XMLID_167_);}
	.st1{fill:url(#XMLID_168_);}
	.st2{fill:url(#XMLID_169_);}
	.st3{fill:url(#XMLID_170_);}
	.st4{fill:url(#XMLID_171_);}
	.st5{fill:url(#XMLID_172_);}
	.st6{fill:url(#XMLID_173_);}
	.st7{fill:url(#XMLID_174_);stroke:url(#XMLID_175_);stroke-width:7;stroke-linejoin:round;stroke-miterlimit:10;}
	.st8{fill:url(#XMLID_176_);}
	.st9{fill:url(#XMLID_177_);stroke:url(#XMLID_178_);stroke-width:7;stroke-linejoin:round;stroke-miterlimit:10;}
	.st10{fill:url(#XMLID_179_);}
	.st11{fill:url(#XMLID_180_);}
	.st12{fill:url(#XMLID_181_);}
</style>
<g id="XMLID_1_">
	<g id="XMLID_14_">
		<g id="XMLID_3_">
			<linearGradient id="XMLID_167_" gradientUnits="userSpaceOnUse" x1="84.5" y1="55.6667" x2="84.5" y2="208.0058">
				<stop  offset="1.076729e-007" style="stop-color:#3FC1FF"/>
				<stop  offset="1" style="stop-color:#2A7BFF"/>
			</linearGradient>
			<path id="XMLID_56_" class="st0" d="M60,108.5c-0.5,0-1.2-0.1-1.6-0.3c-1.3-0.5-2.4-1.8-2.4-3.2V55c0-0.9,0.6-1.8,1.3-2.5
				l50.1-50c1-1,2.3-1.3,3.6-0.8c1.3,0.5,2,1.8,2,3.2v50c0,0.9-0.1,1.8-0.8,2.5l-49.9,50C61.7,108.1,60.9,108.5,60,108.5z M63,56.4
				v40.1l43-43V13.4L63,56.4z"/>
		</g>
		<g id="XMLID_5_">
			<linearGradient id="XMLID_168_" gradientUnits="userSpaceOnUse" x1="86.5" y1="55.6667" x2="86.5" y2="208.0058">
				<stop  offset="1.076729e-007" style="stop-color:#3FC1FF"/>
				<stop  offset="1" style="stop-color:#2A7BFF"/>
			</linearGradient>
			<path id="XMLID_42_" class="st1" d="M111,110H11.5c-1.4,0-2.7-0.8-3.2-2.1c-0.6-1.3-0.3-2.8,0.7-3.8l48.7-51.7l5.1,4.8L19.6,103
				h90L153,60h-44v-7h52.5c1.4,0,2.7,0.9,3.2,2.2c0.5,1.3,0.2,2.8-0.8,3.8l-50.5,50C112.8,109.6,111.9,110,111,110z"/>
		</g>
		<g id="XMLID_4_">
			<linearGradient id="XMLID_169_" gradientUnits="userSpaceOnUse" x1="85.5" y1="55.6667" x2="85.5" y2="208.0058">
				<stop  offset="1.076729e-007" style="stop-color:#3FC1FF"/>
				<stop  offset="1" style="stop-color:#2A7BFF"/>
			</linearGradient>
			<path id="XMLID_39_" class="st2" d="M60,158.5c-0.5,0-1.2-0.1-1.6-0.3c-1.3-0.6-2.4-1.8-2.4-3.2v-48.5c0-1.9,2.1-3.5,4-3.5h51.5
				c1.4,0,2.7,0.9,3.3,2.2c0.5,1.3,0.2,2.9-0.9,3.8l-51.5,48.5C61.7,158.2,60.9,158.5,60,158.5z M63,110v36.9l39.7-36.9H63z"/>
		</g>
		<g id="XMLID_10_">
			<linearGradient id="XMLID_170_" gradientUnits="userSpaceOnUse" x1="134.5" y1="55.6667" x2="134.5" y2="208.0058">
				<stop  offset="1.076729e-007" style="stop-color:#3FC1FF"/>
				<stop  offset="1" style="stop-color:#2A7BFF"/>
			</linearGradient>
			<path id="XMLID_36_" class="st3" d="M110,208.5c-0.5,0-1.2-0.1-1.6-0.3c-1.3-0.5-2.4-1.8-2.4-3.2v-50c0-0.9,0.6-1.8,1.3-2.5
				l50.1-50c1-1,2.3-1.3,3.6-0.8c1.3,0.5,2,1.8,2,3.2v50c0,0.9-0.1,1.8-0.8,2.5l-49.9,50C111.7,208.1,110.9,208.5,110,208.5z
				 M113,156.5v40.1l43-43v-40.1L113,156.5z"/>
		</g>
		<g id="XMLID_17_">
			<linearGradient id="XMLID_171_" gradientUnits="userSpaceOnUse" x1="98.2499" y1="55.6667" x2="98.2499" y2="208.0058">
				<stop  offset="1.076729e-007" style="stop-color:#3FC1FF"/>
				<stop  offset="1" style="stop-color:#2A7BFF"/>
			</linearGradient>
			<path id="XMLID_33_" class="st4" d="M110,208.5c-0.9,0-1.8-0.4-2.5-1l-49.3-50c-0.7-0.7-1-1.6-1-2.5c0-0.9,0.4-1.8,1.1-2.5
				l50.8-49.2c1.4-1.3,3.5-1.3,4.9,0l24.2,23.8c0.7,0.7,1,1.6,1,2.5s-0.6,1.8-1.3,2.5l-25,24.4V205c0,1.4-0.6,2.7-1.9,3.2
				C110.6,208.4,110.4,208.5,110,208.5z M65.5,155.1l40.5,41.4V155c0-0.9,0.6-1.8,1.3-2.5l23.3-22.9l-19.3-18.9L65.5,155.1z"/>
		</g>
	</g>
	<g id="XMLID_12_">
		<g id="XMLID_6_">
			<linearGradient id="XMLID_172_" gradientUnits="userSpaceOnUse" x1="212.5313" y1="55.6667" x2="212.5313" y2="208.0058">
				<stop  offset="1.076729e-007" style="stop-color:#3FC1FF"/>
				<stop  offset="1" style="stop-color:#2A7BFF"/>
			</linearGradient>
			<path id="XMLID_30_" class="st5" d="M187.1,208.7c-0.5,0-0.9-0.1-1.4-0.3c-1.3-0.5-2.1-1.8-2.1-3.2L183.5,104
				c0-0.9,0.4-1.8,1-2.5l50-50c1-1,2.5-1.3,3.8-0.8c1.3,0.5,2.2,1.8,2.2,3.2l1.1,101c0,1-0.4,1.9-1,2.5l-51,50.2
				C188.9,208.3,188,208.7,187.1,208.7z M190.5,105.4l0.1,91.4l44-43.3l-1-91.2L190.5,105.4z"/>
		</g>
		<g id="XMLID_7_">
			<linearGradient id="XMLID_173_" gradientUnits="userSpaceOnUse" x1="236.7866" y1="55.6667" x2="236.7866" y2="208.0058">
				<stop  offset="1.076729e-007" style="stop-color:#3FC1FF"/>
				<stop  offset="1" style="stop-color:#2A7BFF"/>
			</linearGradient>
			<path id="XMLID_27_" class="st6" d="M287,209C287,209,287,209,287,209l-99.9-0.3c-1.4,0-2.7-0.9-3.2-2.2
				c-0.5-1.3-0.2-2.8,0.8-3.8l50.7-49.7c0.7-0.6,1.5-1,2.5-1c0,0,0,0,0,0l49,0c1.9,0,3.2,1.5,3.2,3.5v50c0,0.9-0.1,1.8-0.8,2.5
				C288.6,208.6,287.9,209,287,209z M195.4,201.7L283,202v-43l-44.2-0.1L195.4,201.7z"/>
		</g>
		<g id="XMLID_15_">
			<linearGradient id="XMLID_174_" gradientUnits="userSpaceOnUse" x1="337" y1="104" x2="337" y2="104">
				<stop  offset="1.076729e-007" style="stop-color:#3FC1FF"/>
				<stop  offset="1" style="stop-color:#2A7BFF"/>
			</linearGradient>
			<linearGradient id="XMLID_175_" gradientUnits="userSpaceOnUse" x1="337" y1="104" x2="337" y2="104">
				<stop  offset="0" style="stop-color:#3FA9F5"/>
				<stop  offset="1" style="stop-color:#2E3192"/>
			</linearGradient>
			<path id="XMLID_59_" class="st7" d="M337,104"/>
		</g>
		<g id="XMLID_2_">
			<linearGradient id="XMLID_176_" gradientUnits="userSpaceOnUse" x1="311.5352" y1="55.6667" x2="311.5352" y2="208.0058">
				<stop  offset="1.076729e-007" style="stop-color:#3FC1FF"/>
				<stop  offset="1" style="stop-color:#2A7BFF"/>
			</linearGradient>
			<path id="XMLID_26_" class="st8" d="M287,209.1c-0.4,0-1.1-0.1-1.6-0.3c-1.3-0.5-2.4-1.8-2.4-3.2V104c0-1,0.6-1.9,1.3-2.5
				l51.1-48.3l4.6,5.1L290,105.5v91.4l43-44.3V104h7v50c0,0.9-0.1,1.8-0.7,2.4L289.4,208C288.7,208.7,287.9,209.1,287,209.1z"/>
		</g>
		<g id="XMLID_8_">
			<linearGradient id="XMLID_177_" gradientUnits="userSpaceOnUse" x1="338.5" y1="55.7402" x2="338.5" y2="55.7402">
				<stop  offset="1.076729e-007" style="stop-color:#3FC1FF"/>
				<stop  offset="1" style="stop-color:#2A7BFF"/>
			</linearGradient>
			<linearGradient id="XMLID_178_" gradientUnits="userSpaceOnUse" x1="338.5" y1="55.7402" x2="338.5" y2="55.7402">
				<stop  offset="0" style="stop-color:#3FA9F5"/>
				<stop  offset="1" style="stop-color:#2E3192"/>
			</linearGradient>
			<path id="XMLID_16_" class="st9" d="M338.5,55.7"/>
		</g>
	</g>
	<g id="XMLID_13_">
		<g id="XMLID_11_">
			<linearGradient id="XMLID_179_" gradientUnits="userSpaceOnUse" x1="387.7501" y1="55.6667" x2="387.7501" y2="208.0058">
				<stop  offset="1.076729e-007" style="stop-color:#3FC1FF"/>
				<stop  offset="1" style="stop-color:#2A7BFF"/>
			</linearGradient>
			<path id="XMLID_25_" class="st10" d="M438.5,209h-50c-1.3,0-2.5-0.7-3.1-1.9l-49.1-98.1l-49.4-1.4c-1.4,0-2.7-0.9-3.2-2.3
				c-0.5-1.3-0.2-2.8,0.9-3.8L336.1,53c0.6-0.6,1.5-1,2.4-1h50c1.3,0,2.5,0.7,3.1,1.9l16.8,32.4l-6.2,3.2L386.4,59h-46.5l-44.3,41.7
				l43,1.3c1.3,0,2.5,0.8,3,1.9l49,98.1H437l43-43h-41.5c-1.3,0-2.5-0.8-3.1-1.9l-25-50.4l6.3-3.1l24,48.4h47.8
				c1.4,0,2.7,0.9,3.2,2.2c0.5,1.3,0.2,2.8-0.8,3.8l-50,50C440.3,208.6,439.4,209,438.5,209z"/>
		</g>
		<g id="XMLID_9_">
			<linearGradient id="XMLID_180_" gradientUnits="userSpaceOnUse" x1="438.5" y1="55.6667" x2="438.5" y2="208.0058">
				<stop  offset="1.076729e-007" style="stop-color:#3FC1FF"/>
				<stop  offset="1" style="stop-color:#2A7BFF"/>
			</linearGradient>
			<path id="XMLID_22_" class="st11" d="M438.5,109h-50c-1.4,0-2.7-0.9-3.2-2.2c-0.5-1.3-0.2-2.8,0.8-3.8l50-50c0.7-0.7,1.5-1,2.5-1
				h50c1.4,0,2.7,0.9,3.2,2.2c0.5,1.3,0.2,2.8-0.8,3.8l-50,50C440.3,108.6,439.4,109,438.5,109z M397,102H437l43-43H440L397,102z"/>
		</g>
		<g id="XMLID_18_">
			<linearGradient id="XMLID_181_" gradientUnits="userSpaceOnUse" x1="329.1616" y1="55.6667" x2="329.1616" y2="208.0058">
				<stop  offset="1.076729e-007" style="stop-color:#3FC1FF"/>
				<stop  offset="1" style="stop-color:#2A7BFF"/>
			</linearGradient>
			<path id="XMLID_19_" class="st12" d="M338.5,209h-51.7c-1.4,0-2.7-0.9-3.2-2.2c-0.5-1.3-0.2-2.8,0.8-3.8l51-50.7
				c0.7-0.7,1.6-1,2.6-1l25.7,0.7c1.3,0,2.5,0.8,3.1,2l8,17c0.6,1.3,0.4,2.9-0.7,4l-33,33C340.3,208.6,339.4,209,338.5,209z
				 M295.3,202H337l30.3-30.3l-6.1-12.8l-22-0.6L295.3,202z"/>
		</g>
	</g>
</g>
</svg>
